<svg xmlns="http://www.w3.org/2000/svg" xmlns:xlink="http://www.w3.org/1999/xlink" xmlns:a="http://ns.adobe.com/AdobeSVGViewerExtensions/3.0/" version="1.1" x="0" y="0" width="567" height="196" viewBox="-4.957" xml:space="preserve" enable-background="new -4.957 -4.655 567 196">
  <style type="text/css">
    
	.st0{display:none;fill-rule:evenodd;clip-rule:evenodd;fill:#fff;stroke:#FFFFFF;stroke-width:0.2;stroke-miterlimit:10;}
	.st1{fill-rule:evenodd;clip-rule:evenodd;}
	.st2{display:none;fill-rule:evenodd;clip-rule:evenodd;fill:#FFFFFF;}

  </style>
  <path class="st1" d="M95.752 5.452c-3.857 0.455-6.592-1.758-7.4-5C92.364-0.954 95.206 2.078 95.752 5.452z"/>
  <path class="st1" d="M89.752 5.452c-4.035 0.697-6.742-1.472-7.8-4.4C85.368-1.108 89.047 2.349 89.752 5.452z"/>
  <path class="st1" d="M101.952 5.852c-4.482 0.349-6.044-2.222-7.2-5.2C98.775-0.765 101.356 2.528 101.952 5.852z"/>
  <path class="st1" d="M107.952 6.852c-4.077-0.19-6.241-2.292-6.8-6C105.369 0.109 107.35 3.315 107.952 6.852z"/>
  <path class="st1" d="M83.552 5.852c-4.027 0.781-7.03-1.07-8-4C79.079 0.102 83.056 2.621 83.552 5.852z"/>
  <path class="st1" d="M113.952 8.252c-3.777-0.296-5.932-3.26-6.2-6.4C111.731 1.281 113.983 4.149 113.952 8.252z"/>
  <path class="st1" d="M77.152 6.652c-3.316 2.87-12.228-4.583-5.2-4.2C74.389 2.585 76.755 4.62 77.152 6.652z"/>
  <path class="st1" d="M120.152 9.652c-3.782 0.574-5.818-3.375-6-6.4C118.044 2.701 119.721 6.077 120.152 9.652z"/>
  <path class="st1" d="M71.152 8.052c-3.253 1.424-7.202-0.142-8.4-2.6C65.191 2.604 70.624 5.208 71.152 8.052z"/>
  <path class="st1" d="M125.752 12.052c-3.766-0.307-5.651-3.541-5.4-7.2C124.204 5.2 125.894 7.71 125.752 12.052z"/>
  <path class="st1" d="M65.152 9.252c-2.097 2.629-6.861 0.39-8.4-1.2C58.1 4.215 64.664 7.433 65.152 9.252z"/>
  <path class="st1" d="M131.152 14.652c-3.218-0.636-5.59-4.068-4.6-7.6C130.035 7.509 131.894 10.635 131.152 14.652z"/>
  <path class="st1" d="M59.352 11.452c-1.919 2.379-7.554 0.952-8.6-1.2C52.542 7.14 58.785 9.324 59.352 11.452z"/>
  <path class="st1" d="M136.752 17.452c-3.113-0.034-5.048-4.004-4.6-7.6C136.132 9.806 137.161 13.776 136.752 17.452z"/>
  <path class="st1" d="M53.952 13.652c-1.235 2.938-7.178 1.778-8.8 0C46.156 10.171 52.418 11.888 53.952 13.652z"/>
  <path class="st1" d="M93.552 12.252c0.158 1.025-1.234 0.499-1.6 1 -0.921 0.471-1.109 1.218-2 2.2 -0.361 0.398-2.174 1.399-2.2 2 -0.027 0.63 2.228 2.384 2.8 3 1.092 1.176 2.002 2.064 2.8 3 0.501 0.298 1.493 0.107 1.4 1 -5.149 2.54-6.552-3.463-9.6-5.2 0.079 1.655 0.137 3.33 0.4 4.8 0.249 0.551 1.854-0.253 1.6 0.8 -1.319 0.75-4.555 0.643-6 0.6 -0.316-1.184 1.051-0.683 1.4-1.2 -0.064-3.536-0.402-6.798-0.6-10.2 0.088-0.889-1.735 0.135-1.6-0.8 0.01-1.084 1.554-0.526 2.4-0.6 1.366-0.12 2.831-0.391 3.6-0.2 0.348 1.215-1.031 0.703-1.4 1.2 -0.175 0.958-0.057 3.22 0.2 4.4 1.534-1.267 4.049-3.284 4.8-6C91.252 12.431 93.048 11.356 93.552 12.252z"/>
  <path class="st1" d="M96.552 12.052c3.111 0.556 6.54 0.793 9.8 1.2 -0.191 1.142 0.059 2.725-1 3 -0.789 0.122-0.235-1.098-0.4-1.6 -1.063-0.471-2.418-0.648-4-0.6 -0.713 0.954-0.33 3.004-0.8 4.2 1.167-0.034 1.918 0.349 3.2 0.2 0.53-0.203 0.013-1.454 1-1.2 0.628 0.608 0.094 3.393-0.4 4.2 -1.133 0.333-0.258-1.342-0.8-1.6 -0.856-0.277-1.824-0.442-3-0.4 -0.362 1.372-0.403 3.063-0.6 4.6 1.085 0.448 2.654 0.413 4.2 0.4 0.79-0.21 0.256-1.744 1.2-1.8 -0.037 0.17 0.078 0.188 0.2 0.2 0.798 0.406-0.264 2.214-0.2 3.2 -3.428-0.039-6.074-0.859-9.4-1 2.09-2.51 1.716-7.483 2.2-11.6 -0.196-0.471-1.154-0.179-1.4-0.6C96.327 12.494 96.597 12.43 96.552 12.052z"/>
  <path class="st1" d="M142.152 21.052c-3.452-0.421-4.622-4.169-4-8C141.718 13.387 142.886 17.073 142.152 21.052z"/>
  <path class="st1" d="M113.352 14.852c1.271 3.796 2.855 7.278 4.4 10.8 0.933-2.201 1.489-4.778 2.4-7 0.139-0.881-1.867-0.654-1.2-1.4 0.888-0.587 3.481 0.494 4.4 1.2 -0.17-0.037-0.188 0.078-0.2 0.2 0.139 0.772-0.995 0.132-1.2 0 -2.086 3.181-2.646 7.888-4.2 11.6 -0.537-0.263-1.063-0.537-1.6-0.8 -1.751-3.648-3.037-7.763-4.8-11.4 -1.085 2.315-1.604 5.196-2.6 7.6 0.083 0.784 1.285 0.448 1.4 1.2 -0.17-0.037-0.188 0.078-0.2 0.2 -0.642 0.458-4.117-0.633-4.2-1.4 0.016-0.927 0.907-0.044 1.4-0.2 1.557-2.844 2.251-6.549 3.4-9.8 0.109-1.043-1.358-0.509-1.2-1.6C110.698 13.553 111.804 14.899 113.352 14.852z"/>
  <path class="st1" d="M62.152 21.252c1.067 2.6 1.828 5.505 3 8 0.7 0.281 1.28-0.561 1.6 0 0.122 1.405-2.739 1.334-4 2 -0.648 0.809-1.96 1.145-3 1.8 -0.84 0.53-1.718 1.91-2.6 1.2 -0.245-0.912 0.702-0.632 0.8-1.2 -0.228-1.105-1.5-1.167-2-2 -1.387 0.747-2.563 1.704-4 2.4 0.386 0.814 0.267 2.133 0.8 2.8 0.824-0.07 1.241-0.951 1.8-0.2 -0.91 1.065-2.895 2.822-4.2 2.2 -0.055-0.722 0.791-0.542 0.8-1.2 -0.425-4.508-1.402-8.464-2-12.8 0.467-0.067 0.862-0.205 1-0.6 3.771 2.296 7.147 4.986 10.8 7.4 1.922-0.167 0.913-0.314 2.6-1 -0.78-3.887-2.15-7.183-3.6-10.4 -0.346 0.073-1.236 0.604-1.4 0.2 0.032-0.232-0.044-0.355-0.2-0.4 0.778-0.956 2.543-0.923 3.6-1.6 3.303 1.964 6.682 3.852 10 5.8 -0.253-2.147-1.626-4.907-2.4-7.2 -0.868-0.158-1.456 0.564-1.8-0.2 0.877-1.013 3.066-1.703 4.4-1.6 0.247 1.113-1.137 0.597-1.2 1.4 1.273 3.727 2.5 7.5 4 11 -2.251 1.545-4.919-1.267-7.2-2.6C65.667 23.233 63.587 22.324 62.152 21.252zM51.952 32.052c0.79-0.61 1.628-1.172 2.6-1.6 -0.887-1.246-2.326-1.941-3.6-2.8C51.385 29.019 51.345 30.86 51.952 32.052z"/>
  <path class="st1" d="M48.352 16.852c-1.164 2.854-6.736 2.185-8.8 0.6C40.295 13.5 46.474 14.946 48.352 16.852z"/>
  <path class="st1" d="M146.952 24.652c-3.297-0.57-3.753-3.98-3.6-8C147.273 16.5 147.965 21.134 146.952 24.652z"/>
  <path class="st1" d="M43.152 20.052c-0.709 2.954-6.636 2.609-8.6 1C35.106 17.558 41.296 18.083 43.152 20.052z"/>
  <path class="st1" d="M129.752 21.452c0.199 4.201 1.23 7.57 1.8 11.4 1.402-2.064 2.782-4.151 3.8-6.6 -0.094-0.817-1.455-0.589-0.8-1.6 1.169 0.257 3.33 1.184 4 2.6 -0.558 0.534-0.988-0.188-1.6-0.2 -2.379 3.087-4.132 6.801-6.2 10.2 -0.748-0.119-1.034-0.699-1.6-1 -0.636-4.164-1.457-8.144-2-12.4 -1.536 2.197-2.826 4.641-4.2 7 -0.255 1.081 1.552 0.852 0.8 1.8 -0.783 0.042-3.778-1.408-3.8-2.4 0.144-1.001 0.819 0.364 1.6 0 1.957-2.843 3.575-6.025 5.4-9 -0.211-0.742-1.571-0.645-1-1.6C127.239 19.467 128.363 21.083 129.752 21.452z"/>
  <path class="st1" d="M151.552 28.852c-2.539 0.335-4.905-7.769-2.4-8.4C151.707 19.808 153.528 26.596 151.552 28.852z"/>
  <path class="st1" d="M38.152 23.652c-0.565 2.883-6.499 3.015-8.6 1.4C30.437 21.905 35.779 21.716 38.152 23.652z"/>
  <path class="st1" d="M155.952 33.052c-3.024-0.477-3.809-5.96-2.2-8.6C157.087 25.075 157.639 30.198 155.952 33.052z"/>
  <path class="st1" d="M33.552 27.452c-0.48 3.165-5.901 3.646-8.6 2.2C25.394 26.351 30.717 26.021 33.552 27.452z"/>
  <path class="st2" d="M50.952 27.652c1.274 0.858 2.713 1.554 3.6 2.8 -0.972 0.428-1.811 0.99-2.6 1.6C51.345 30.86 51.385 29.019 50.952 27.652z"/>
  <path class="st1" d="M140.752 28.652c2.652 2.081 5.231 4.236 7.6 6.6 -0.635 0.831-1.23 1.703-2.4 2 -0.474-0.574 0.091-1.39 0.6-1.6 -0.59-0.214-2.164-2.995-3-3 -1.316-0.008-1.503 2.513-3 3 0.669 0.864 1.644 1.422 2.4 2.2 0.547-0.171 0.987-1.113 1.6-0.6 -0.072 1.224-1.59 2.655-2.8 3.4 -0.82-0.63 0.13-0.976 0.2-1.8 -0.475-0.858-1.335-1.331-2-2 -1.339 0.861-2.172 2.229-3.2 3.4 0.806 1.193 2.094 1.906 3.2 2.8 0.841-0.206 1.229-1.313 2.2-0.8 0.01 0.919-1.421 2.013-2.4 2.6 -2.292-2.107-4.929-3.87-6.8-6.4 0.4 0 0.8 0 1.2 0 2.559-2.375 4.73-5.136 7-7.8C141.189 29.554 139.851 29.57 140.752 28.652z"/>
  <path class="st1" d="M159.952 37.852c-2.599-0.056-3.573-8.069-1.4-8.6C161.468 28.54 161.947 36.487 159.952 37.852z"/>
  <path class="st1" d="M44.152 32.852c-1.382 0.397-1.021-0.764-2.4-0.8 -1.712-0.045-3.354 1.697-3.8 2.8 -1.148 2.841 1.525 7.005 4.8 7.4 3.734 0.451 4.757-2.393 6.8-4.8 0.675 3.381-2.989 6.721-6.2 7.2 -5.013 0.749-8.327-3.48-7.8-7.6 0.409-3.196 3.633-6.025 6.4-7C42.854 29.735 43.828 31.722 44.152 32.852z"/>
  <path class="st1" d="M29.152 31.852c-0.379 3.08-5.055 3.797-8.2 2.8C20.343 31.352 26.248 30.39 29.152 31.852z"/>
  <path class="st1" d="M162.952 34.252c3.35 0.799 2.7 6.892 0.8 8.8C161.222 42.075 160.713 35.995 162.952 34.252z"/>
  <path class="st1" d="M89.952 34.652c18.861-0.898 33.748 6.947 43.2 16.4 9.83 9.83 18.005 21.927 18.8 40.8 0.816 19.377-6.499 33.71-16 43.601 -9.926 10.331-22.939 17.639-41 18.399 -19.228 0.811-33.375-6.723-43.4-16.2 -10.483-9.91-17.612-22.53-18.6-41 -1.034-19.312 6.339-33.107 15.8-43.399C58.045 43.142 71.005 35.554 89.952 34.652zM87.552 77.652c0.961-13.206 2.529-26.077 4.2-38.4 -0.045-0.155-0.005-0.395-0.2-0.4 -1.896 0.931-7.87 8.704-10.2 8.6 -2.913-0.129-3.59-4.044-7-4.2 2.465 8.775 5.673 18.271 6.6 29.2 0.926 10.92 1.29 23.066 0.6 35.2 -0.729 12.823-3.083 26.001-3.8 38.2 2.565 0.743 3.907-5.035 6.2-4.8 1.341 0.138 2.994 3.754 3.8 5 1.369 2.116 2.31 3.755 4.4 4.6 -1.64-13.923-4.901-27.989-5.6-43 -0.202-4.331-0.817-12.596 3-12.8 1.419-0.075 2.78 1.275 3.6 2.4 7.591 10.42 6.169 33.745 5.8 50.2 2.894-1.24 3.615-4.652 6.4-6 2.745 1.594 5.641 4.085 9.6 3.8 -0.552-2.227-2.16-3.931-3.2-6 -1.069-2.126-2.041-4.45-3-6.8 -4.678-11.466-5.348-26.828-11.6-36.801 -0.965-1.539-3.893-4.231-4-5.8 -0.103-1.502 1.539-4.128 2.4-6 5.924-12.872 12.94-23.915 20.6-34.4 0.469-0.641 1.496-1.471 1.2-2.4 -4.4-0.267-6.75 1.517-10 2.4 -2.814-2.186-3.271-6.729-6.8-8.2 0.211 15.422-3.693 28.197-7.6 39.2 -1.311 3.69-2.489 7.737-5.4 10.2C86.377 86.466 87.24 81.937 87.552 77.652zM60.952 53.852c-1.385-0.215-1.034-2.166-2.6-2.2 -3.178 20.804-6.126 41.53-14.8 56.6 -1.252 2.175-3.11 3.931-3.8 6.399 0.966 1.305 3.093 0.528 5 0.601 2.048 2.752 1.692 7.907 3.6 10.8 0.599-4.134 1.443-8.504 2.2-12.8 0.76-4.315 0.859-8.963 2.8-12.4 2.072-0.043 4.591-0.632 5.8 0.601 0.168 3.777 0.043 7.039 0.2 10.6 0.397 9.029-0.271 18.035-1.2 25.6 2.838 0.24 2.623-2.675 5-2.399 1.467 0.17 3.168 3.279 4.4 4.8 1.578 1.947 2.955 3.944 4.4 4.8 -3.255-17.482-7.932-39.079-7-61.2 0.568-13.486-0.841-28.081 2.4-38.4 -0.011-0.122-0.03-0.237-0.2-0.2C64.054 46.955 63.452 51.353 60.952 53.852zM125.952 54.052c-3.677 3.632-6.511 11.407-8.4 19 -3.704 14.888-3.913 32.175 0.2 46.4 2.026 7.009 4.42 13.753 8.8 17.399 6.833-5.966 13.914-13.419 16.6-24.2 -0.565-0.317-2.234-0.317-2.8 0 -3.818 7.516-6.939 15.729-13.6 20.4 -5.082-18.603-4.792-46.455-2-67.4 0.333-2.501 0.286-5.643 1.8-7.2 1.871 1.296 3.19 3.603 4.2 5.8 3.222 7.011 4.002 16.233 6.2 24.2 0.766-5.5 1.659-10.875 3-15.8 -0.276-0.391-0.734 0.719-1.6 0.4C135.017 65.921 132.777 57.694 125.952 54.052z"/>
  <path class="st1" d="M24.952 36.652c-0.506 3.113-4.849 4.233-8.2 3.2C16.988 36.354 21.699 35.281 24.952 36.652z"/>
  <path class="st1" d="M150.152 37.452c1.694 1.117 3.376 3.275 4 4.8 -0.726 0.626-1.088-0.393-1.6-0.6 -3.013 1.854-5.295 4.438-8.2 6.4 0.894 1.106 1.635 2.365 2.8 3.2 0.97 0.087 1.496-1.057 2.4-0.4 0.173 1.083-1.855 1.58-2.6 2.4 -2.19-2.276-4.177-4.757-6-7.4 0.311-0.329 0.933-0.085 1.2 0.2 2.979-2.087 5.602-4.532 8.4-6.8C150.34 38.548 149.366 38.041 150.152 37.452z"/>
  <path class="st2" d="M87.552 90.652c2.911-2.463 4.089-6.51 5.4-10.2 3.907-11.003 7.812-23.777 7.6-39.2 3.528 1.471 3.985 6.014 6.8 8.2 3.25-0.883 5.6-2.667 10-2.4 0.295 0.929-0.731 1.759-1.2 2.4 -7.659 10.485-14.676 21.528-20.6 34.4 -0.862 1.872-2.503 4.498-2.4 6 0.107 1.569 3.035 4.261 4 5.8 6.252 9.973 6.922 25.335 11.6 36.801 0.959 2.35 1.931 4.674 3 6.8 1.041 2.069 2.648 3.773 3.2 6 -3.959 0.285-6.855-2.206-9.6-3.8 -2.785 1.348-3.506 4.76-6.4 6 0.369-16.455 1.791-39.78-5.8-50.2 -0.819-1.125-2.181-2.476-3.6-2.4 -3.817 0.204-3.202 8.469-3 12.8 0.698 15.011 3.96 29.077 5.6 43 -2.09-0.845-3.031-2.483-4.4-4.6 -0.806-1.246-2.459-4.862-3.8-5 -2.293-0.235-3.635 5.543-6.2 4.8 0.717-12.199 3.071-25.377 3.8-38.2 0.69-12.134 0.326-24.28-0.6-35.2 -0.927-10.928-4.135-20.425-6.6-29.2 3.41 0.155 4.087 4.07 7 4.2 2.331 0.104 8.304-7.669 10.2-8.6 0.194 0.006 0.155 0.245 0.2 0.4 -1.67 12.323-3.239 25.194-4.2 38.4C87.24 81.937 86.377 86.466 87.552 90.652z"/>
  <path class="st1" d="M167.152 48.252c-2.667-0.314-2.596-8.381-0.4-8.8 1.766-0.337 2.492 2.904 2.2 5C168.684 46.376 167.659 47.055 167.152 48.252z"/>
  <path class="st1" d="M31.952 40.452c-0.003 0.597-0.52 0.68-0.6 1.2 2.224 2.709 5.407 4.459 8 6.8 1.005-0.192 0.995-1.434 2-0.6 -1.18 1.754-2.303 3.564-4 4.8 -0.719-0.548-0.064-0.987 0.2-1.6 -2.38-2.62-5.454-4.546-8.2-6.8 -0.609 0.162-0.862 1.391-1.6 0.8 0.184-1.833 2.488-3.233 3.4-5C31.698 39.907 31.555 40.45 31.952 40.452z"/>
  <path class="st1" d="M21.352 41.452c-0.726 3.008-4.105 4.427-7.8 3.8C13.014 41.751 18.214 40.069 21.352 41.452z"/>
  <path class="st1" d="M170.352 44.852c3.308 1.52 1.626 6.928-0.2 8.8C167.368 52.328 168.14 46.218 170.352 44.852z"/>
  <path class="st2" d="M67.152 45.052c0.17-0.037 0.189 0.078 0.2 0.2 -3.241 10.319-1.832 24.914-2.4 38.4 -0.932 22.121 3.745 43.717 7 61.2 -1.445-0.855-2.822-2.853-4.4-4.8 -1.232-1.521-2.933-4.63-4.4-4.8 -2.377-0.275-2.162 2.64-5 2.399 0.929-7.564 1.597-16.57 1.2-25.6 -0.157-3.561-0.032-6.822-0.2-10.6 -1.208-1.232-3.728-0.644-5.8-0.601 -1.941 3.438-2.04 8.085-2.8 12.4 -0.757 4.296-1.601 8.666-2.2 12.8 -1.908-2.893-1.552-8.048-3.6-10.8 -1.907-0.072-4.034 0.704-5-0.601 0.69-2.469 2.548-4.225 3.8-6.399 8.673-15.07 11.622-35.796 14.8-56.6 1.566 0.034 1.215 1.985 2.6 2.2C63.452 51.353 64.054 46.955 67.152 45.052zM53.952 95.652c1.299-0.17 3.354 0.108 5.2 0 -0.053-7.546 0.153-15.353-0.2-22.6 -0.044-0.156-0.167-0.232-0.4-0.2C57.166 80.599 55.339 87.906 53.952 95.652z"/>
  <path class="st1" d="M18.152 46.652c-0.909 3.17-4.512 4.811-8 4.2C10.307 47.08 14.419 45.564 18.152 46.652z"/>
  <path class="st1" d="M29.152 53.452c2.804-0.008 6.146-0.505 8-0.8 -0.184 1.483-1.37 1.963-1.6 3.4 -2.896-0.096-5.245 0.355-8.2 0.2 2.639-3.395-3.359-6.373-4.2-2.4 2.557 2.177 5.941 3.526 8.8 5.4 0.783 0.107 0.8-1.586 1.6-0.8 0.272 1.127-1.818 3.938-2.8 5.2 -1.138-0.049-0.263-1.042-0.2-1.6 -2.583-2.15-5.975-3.492-8.8-5.4 -0.938 0.061-0.946 1.435-2 0.8 1.863-2.043 3.079-9.474 7.4-8.4C28.618 49.417 29.329 51.025 29.152 53.452z"/>
  <path class="st1" d="M173.752 50.452c2.682 2.167 1.054 7.657-1.4 8.8C170.271 57.043 171.143 51.463 173.752 50.452z"/>
  <path class="st1" d="M15.152 51.852c-0.822 3.311-3.44 4.827-7.4 5C6.913 53.503 11.059 50.924 15.152 51.852z"/>
  <path class="st2" d="M138.352 73.052c0.866 0.319 1.324-0.791 1.6-0.4 -1.341 4.925-2.234 10.299-3 15.8 -2.198-7.967-2.979-17.189-6.2-24.2 -1.01-2.197-2.329-4.504-4.2-5.8 -1.514 1.558-1.467 4.699-1.8 7.2 -2.792 20.945-3.082 48.797 2 67.4 6.661-4.672 9.782-12.885 13.6-20.4 0.565-0.317 2.235-0.317 2.8 0 -2.686 10.781-9.766 18.234-16.6 24.2 -4.38-3.646-6.774-10.391-8.8-17.399 -4.112-14.226-3.903-31.512-0.2-46.4 1.889-7.593 4.723-15.368 8.4-19C132.777 57.694 135.017 65.921 138.352 73.052z"/>
  <path class="st1" d="M166.152 63.252c-1.101 0.103-2.493 0.967-3.2 0.8 -0.402-1.412 1.113-1.083 1.4-2.2 0.677-2.638-1.924-5.128-3.8-5.4 -2.871-0.416-6.449 2.018-6.8 4.8 -0.344 2.727 1.476 4.214 3 6.4 -3.137-0.165-4.718-3.537-5-6.4 -0.169-1.719 0.354-3.7 1.2-4.8C157.395 50.678 166.716 55.504 166.152 63.252z"/>
  <path class="st1" d="M176.152 56.252c3.185 1.939 0.839 7.537-1.6 8.6C172.535 62.446 173.911 57.422 176.152 56.252z"/>
  <path class="st1" d="M12.352 57.452c-0.332 3.522-3.851 5.808-7.2 5C5.343 58.693 8.676 57.066 12.352 57.452z"/>
  <path class="st1" d="M18.352 60.252c1.235 0.165 2.222 0.578 2.8 1.4 0.028 1.062-0.965 0.187-1.6 0.2 -0.794 1.006-1.196 2.405-1.6 3.8 0.993 0.807 2.629 0.971 3.8 1.6 0.672-0.662 0.608-2.059 1.2-2.8 0.002-0.678-1.811-0.576-1-1.4 0.667-0.366 3.484 0.491 4 1.6 -0.186 0.577-0.998 0.301-1.4 0 -0.962 0.505-1.116 1.817-1.4 3 1.288 0.645 2.824 1.042 4.2 1.6 0.716-1.017 1.155-2.312 1.4-3.8 0-1.134-1.641-0.625-1.4-2 1.103-0.444 2.127 0.764 3.2 1 -0.762 3.238-2.015 5.985-3.2 8.8 -2.32-2.68-6.866-3.135-10.4-4.6 -0.948-0.271-0.67 1.716-1.4 1C15.361 67.032 17.597 63.558 18.352 60.252z"/>
  <path class="st1" d="M178.552 62.452c1.36 0.533 1.837 3.044 1.2 4.8 -0.793 2.185-3.633 5.548-4.2 1.8C175.22 66.858 176.949 62.894 178.552 62.452z"/>
  <path class="st1" d="M9.952 63.252c-0.102 4.098-2.957 5.443-6.6 6C2.724 65.216 6.133 63.506 9.952 63.252z"/>
  <path class="st1" d="M167.152 65.452c1.026 1.292 2.088 4.51 1.6 6 -0.964 0.097-0.622-1.111-1.2-1.4 -3.228 0.973-6.596 1.804-9.8 2.8 0.066 1.734 0.747 2.853 1.2 4.2 0.673 0.126 1.857-0.258 2.2 0.2 -0.18 1.353-2.143 0.923-3.4 1.2 -0.796-3.004-1.677-5.923-2.4-9 3.685 1.107 7.994-1.516 11.6-2.4C166.76 66.541 166.551 65.663 167.152 65.452z"/>
  <path class="st1" d="M177.552 77.052c-1.453-3.251 0.584-7.137 3-8.4C183.028 71.338 180.689 76.38 177.552 77.052z"/>
  <path class="st1" d="M8.352 69.252c-0.327 3.873-2.765 5.634-6.2 6.4C1.079 71.909 4.383 69.268 8.352 69.252z"/>
  <path class="st1" d="M13.952 72.452c0.133 0 0.267 0 0.4 0 0.865-0.132 0.065 1.401 0.6 1.6 3.309 0.624 6.719 1.147 10.4 1.4 0.569-0.164 0.02-1.446 0.8-1.4 1.037 0.156 0.353 1.905 0.2 3 -0.154 1.1 0.064 2.962-1 3 -0.896 0.015 0.122-0.741-0.2-1.4 -2.508-0.825-5.792-0.875-8.6-1.4 2.788 2.146 6.691 4.242 9 6.2 -0.787 1.258-3.114 1.66-4.8 2.2 -1.755 0.563-3.672 1.125-5.4 1.6 2.17 0.963 5.481 0.785 8 1.4 0.762 0.085 0.535-1.852 1-1.4 1.267 0.511-0.032 2.777 0 4.2 0.046 2.064 1.13 4.315 0.6 6.2 -1.149 0.35-0.479-1.121-1.2-1.199 -0.998 0.202-1.577 0.823-2.4 1.199 0.063 1.472 0.154 2.913 0.4 4.2 0.488 0.646 1.54 0.728 2.6 0.8 0.742-0.058 0.083-1.517 0.8-1.6 0.65 0.979 0.813 3.414 0.6 4.6 -3.302-2.764-8.731-3.401-13.4-4.8 -0.119-0.414 0.247-1.313-0.2-1.399 3.677-2.856 9.069-3.998 12-7.601 -0.618-0.115-0.703-0.763-0.6-1.6 -3.039-0.961-6.836-1.164-10.4-1.6 -0.842 0.024-0.124 1.609-1.2 1.4 -0.853-0.96 0.426-3.144 0.2-4.8 3.306-0.761 6.071-2.063 9.4-2.8 -2.483-2.117-5.461-3.739-8.2-5.6C13.535 75.368 13.809 73.976 13.952 72.452zM16.152 100.453c1.361 0.438 2.765 0.835 4.2 1.199 -0.028-1.238-0.092-2.441-0.4-3.399C18.769 99.07 17.318 99.619 16.152 100.453z"/>
  <path class="st1" d="M58.552 72.852c0.232-0.032 0.355 0.044 0.4 0.2 0.353 7.247 0.146 15.054 0.2 22.6 -1.846 0.108-3.901-0.17-5.2 0C55.339 87.906 57.166 80.599 58.552 72.852z"/>
  <path class="st1" d="M473.752 75.252c0 1.6 0 3.2 0 4.8 -4.011-2.515-9.717-2.111-12.801-0.2 -8.269 5.126-7.65 22.828 0.801 27 3.088 1.524 9.096 1.377 11.8-0.8 0.465 1.269 0.068 3.398 0.2 5 -3.171 0.882-6.025 1.333-9.601 1 -18.702-1.742-18.929-36.046 0-38C467.859 73.669 471.048 74.215 473.752 75.252z"/>
  <path class="st1" d="M206.952 74.252c11.007-0.704 19.5 0.377 20 10 0.455 8.758-5.123 12.77-15.2 12 0 5.2 0 10.399 0 15.6 -1.667 0-3.333 0-5 0C206.885 99.385 206.485 86.386 206.952 74.252zM220.752 89.652c3.843-5.675-1.334-13.364-8.8-11.2 -0.466 4.2-0.067 9.267-0.2 13.8C215.411 92.143 219 92.239 220.752 89.652z"/>
  <path class="st1" d="M249.952 74.252c0 1.466 0 2.933 0 4.4 -4.2 0-8.4 0-12.6 0 0 3.867 0 7.733 0 11.6 4 0 8 0 12 0 0 1.4 0 2.8 0 4.2 -3.934 0-7.867 0-11.8 0 -0.467 3.934-0.067 8.732-0.2 13 4.4 0 8.8 0 13.2 0 0 1.466 0 2.933 0 4.399 -6.067 0-12.133 0-18.2 0 0.133-12.467-0.267-25.466 0.2-37.6C238.352 74.252 244.152 74.252 249.952 74.252z"/>
  <path class="st1" d="M275.952 74.252c0 1.466 0 2.933 0 4.4 -2.867 0-5.733 0-8.6 0 0 11.066 0 22.133 0 33.2 -1.6 0-3.2 0-4.8 0 0-11 0-22 0-33 -2.468-0.466-5.8-0.067-8.6-0.2 0.131-1.402-0.264-3.331 0.2-4.4C261.418 74.252 268.686 74.252 275.952 74.252z"/>
  <path class="st1" d="M298.552 74.252c0 5.267 0 10.533 0 15.8 3.8 0.466 8.466 0.067 12.6 0.2 0.467-4.934 0.067-10.733 0.2-16 1.6 0 3.2 0 4.8 0 0 12.533 0 25.066 0 37.6 -1.6 0-3.2 0-4.8 0 0-5.8 0-11.6 0-17.399 -4.267 0-8.533 0-12.8 0 0 5.8 0 11.6 0 17.399 -1.667 0-3.334 0-5 0 0.133-12.467-0.267-25.466 0.2-37.6C295.352 74.252 296.952 74.252 298.552 74.252z"/>
  <path class="st1" d="M341.752 74.252c0 1.466 0 2.933 0 4.4 -4.2 0-8.4 0-12.601 0 0 3.867 0 7.733 0 11.6 4 0 8 0 12 0 0 1.4 0 2.8 0 4.2 -3.934 0-7.866 0-11.8 0 -0.467 3.934-0.066 8.732-0.2 13 4.4 0 8.8 0 13.2 0 0 1.466 0 2.933 0 4.399 -6.066 0-12.134 0-18.2 0 0.134-12.467-0.267-25.466 0.2-37.6C330.152 74.252 335.952 74.252 341.752 74.252z"/>
  <path class="st1" d="M362.952 74.252c4.088 12.513 8.302 24.898 12.2 37.6 -1.666 0-3.333 0-5 0 -1.077-3.189-2.1-6.434-3-9.8 -4.6 0-9.2 0-13.8 0 -1.447 2.886-2.184 6.483-3.2 9.8 -1.666 0-3.333 0-5 0 4.228-12.572 8.245-25.354 12.8-37.6C359.619 74.252 361.286 74.252 362.952 74.252zM354.552 97.852c3.733 0 7.467 0 11.2 0 -1.805-6.063-3.561-12.172-5.601-18C358.253 85.82 356.237 91.67 354.552 97.852z"/>
  <path class="st1" d="M384.352 74.252c0 11.066 0 22.133 0 33.2 4.066 0 8.134 0 12.2 0 0 1.466 0 2.933 0 4.399 -5.667 0-11.334 0-17 0 0.133-12.467-0.267-25.466 0.2-37.6C381.286 74.252 382.819 74.252 384.352 74.252z"/>
  <path class="st1" d="M416.152 74.252c0 1.466 0 2.933 0 4.4 -2.8 0-5.6 0-8.399 0 -0.467 10.667-0.067 22.2-0.2 33.2 -1.667 0-3.334 0-5 0 0-11 0-22 0-33 -2.401-0.466-5.666-0.067-8.4-0.2 0.132-1.402-0.264-3.331 0.2-4.4C401.619 74.252 408.885 74.252 416.152 74.252z"/>
  <path class="st1" d="M425.752 74.252c0 5.333 0 10.667 0 16 4.267 0 8.533 0 12.8 0 0.466-4.934 0.066-10.733 0.2-16 1.6 0 3.199 0 4.8 0 0 12.533 0 25.066 0 37.6 -1.601 0-3.2 0-4.8 0 0-5.8 0-11.6 0-17.399 -4.267 0-8.534 0-12.801 0 -0.466 5.399-0.066 11.666-0.199 17.399 -1.601 0-3.2 0-4.801 0 0.134-12.467-0.267-25.466 0.2-37.6C422.685 74.252 424.218 74.252 425.752 74.252z"/>
  <path class="st1" d="M494.352 74.252c3.966 12.634 8.18 25.021 12.2 37.6 -1.733 0-3.467 0-5.2 0 -0.936-3.331-1.966-6.567-3-9.8 -4.6 0-9.2 0-13.8 0 -1.309 3.025-2.048 6.618-3.2 9.8 -1.6 0-3.2 0-4.8 0 4.075-12.657 8.197-25.269 12.6-37.6C490.885 74.252 492.619 74.252 494.352 74.252zM485.752 97.852c3.733-0.133 7.999 0.267 11.399-0.2 -2.151-5.782-3.582-12.284-5.8-18C489.683 85.917 487.555 91.722 485.752 97.852z"/>
  <path class="st1" d="M524.352 93.052c3.822 1.238 4.323 6.176 5.8 10.4 1.024 2.929 2.267 5.765 3 8.399 -1.8 0-3.6 0-5.399 0 -0.682-2.41-1.728-5.558-2.801-8.8 -1.489-4.502-2.34-9.04-9-8.2 -0.466 5.267-0.066 11.4-0.199 17 -1.667 0-3.334 0-5 0 0.133-12.467-0.267-25.466 0.199-37.6 9.8-0.507 19.136-0.417 20.2 8.2C531.799 87.692 528.986 92.004 524.352 93.052zM524.952 80.452c-1.68-2.048-4.863-2.112-9-2 -0.466 3.734-0.066 8.333-0.199 12.4C523.679 93.059 528.944 85.32 524.952 80.452z"/>
  <path class="st1" d="M555.952 74.252c0 1.466 0 2.933 0 4.4 -4.199 0-8.399 0-12.6 0 0 3.8 0 7.6 0 11.4 3.601 0.466 8.066 0.067 12 0.2 0 1.4 0 2.8 0 4.2 -3.934 0-7.866 0-11.8 0 -0.467 3.866-0.067 8.6-0.2 12.8 4.067 0.466 9 0.066 13.4 0.2 0 1.466 0 2.933 0 4.399 -6.067 0-12.134 0-18.2 0 0.133-12.467-0.267-25.466 0.2-37.6C544.486 74.252 550.218 74.252 555.952 74.252z"/>
  <path class="st1" d="M182.352 75.052c1.604 3.454-0.723 7.318-3.8 8C177.284 79.824 179.282 75.812 182.352 75.052z"/>
  <path class="st1" d="M6.952 75.252c-0.122 4.078-2.438 5.962-6 6.6C0.386 77.864 3.042 75.425 6.952 75.252z"/>
  <path class="st1" d="M170.152 77.852c0.133 0 0.267 0 0.4 0 0.972 1.163 0.798 4.534 0.8 6 -1.239 0.373-0.562-1.171-1.2-1.4 -2.945 0.672-8.771-0.401-9.8 2.2 -0.664 1.68 0 4.175 1.6 4.8 2.465 0.963 5.746-0.755 8.6-0.6 0.889 0.089-0.135-1.735 0.8-1.6 0.986 0.365 0.889 4.188 0.6 4.6 -1.082 0.148-0.414-1.452-1.2-1.6 -6.555 0.946-12.475 1.729-12.4-5.2 0.067-6.248 6.163-4.518 11.6-5.6C170.261 79.162 170.128 78.428 170.152 77.852z"/>
  <path class="st2" d="M211.752 92.252c0.133-4.534-0.266-9.6 0.2-13.8 7.465-2.164 12.643 5.525 8.8 11.2C219 92.239 215.411 92.143 211.752 92.252z"/>
  <path class="st2" d="M515.752 90.852c0.133-4.067-0.267-8.666 0.199-12.4 4.137-0.112 7.32-0.048 9 2C528.944 85.32 523.679 93.059 515.752 90.852z"/>
  <path class="st2" d="M491.352 79.652c2.218 5.716 3.648 12.218 5.8 18 -3.4 0.467-7.666 0.067-11.399 0.2C487.555 91.722 489.683 85.917 491.352 79.652z"/>
  <path class="st2" d="M360.152 79.852c2.04 5.828 3.796 11.938 5.601 18 -3.733 0-7.467 0-11.2 0C356.237 91.67 358.253 85.82 360.152 79.852z"/>
  <path class="st1" d="M5.952 81.252c0.161 4.294-2.093 6.174-5.4 7C-0.599 84.465 2.427 81.668 5.952 81.252z"/>
  <path class="st1" d="M183.352 81.452c1.492 3.969-1.373 6.837-4.2 7.8C177.981 85.63 180.091 81.962 183.352 81.452z"/>
  <path class="st1" d="M5.352 87.452c0.6 3.911-1.683 6.551-4.8 7.4C-1.079 91.347 1.977 87.893 5.352 87.452z"/>
  <path class="st1" d="M183.952 88.052c1.123 3.782-1.42 6.843-4.8 7.4C178.511 91.521 180.632 88.682 183.952 88.052z"/>
  <path class="st1" d="M159.152 93.652c2.42 2.114 7.492 1.575 11.6 2 0.728-0.071-0.096-1.695 1-1.399 0.341 2.357-0.02 7.608-1.2 9.8 -2.114 1.081-4.707-0.015-4.6-2.4 -0.744 0.79-0.926 2.142-2 2.601C157.411 105.04 158.622 98.557 159.152 93.652zM160.152 97.652c-1.912 4.504 6.1 4.854 5.2 0.4C163.418 98.12 161.966 97.705 160.152 97.652zM166.552 98.252c-0.445 0.863-0.028 1.829 0.2 2.6 0.672 0.462 1.533 0.734 2.8 0.601 0.572-0.694 1.121-1.412 1-2.801C169.193 98.544 167.911 98.36 166.552 98.252z"/>
  <path class="st1" d="M5.352 93.852c0.713 2.432-0.41 4.853-2 6.4 -1.416 1.378-3.624 1.725-3-1.8 0.327-1.846 3.065-3.991 4.2-4.601C4.819 93.852 5.085 93.852 5.352 93.852z"/>
  <path class="st1" d="M178.752 101.852c-0.582-3.923 2.01-6.384 5.2-7.2C185.169 98.552 182.143 101.269 178.752 101.852z"/>
  <path class="st2" d="M165.352 98.052c0.899 4.453-7.112 4.104-5.2-0.4C161.966 97.705 163.418 98.12 165.352 98.052z"/>
  <path class="st2" d="M19.952 98.252c0.308 0.958 0.372 2.161 0.4 3.399 -1.436-0.364-2.839-0.761-4.2-1.199C17.318 99.619 18.769 99.07 19.952 98.252z"/>
  <path class="st2" d="M170.552 98.652c0.121 1.389-0.428 2.106-1 2.801 -1.268 0.134-2.128-0.139-2.8-0.601 -0.228-0.771-0.645-1.736-0.2-2.6C167.911 98.36 169.193 98.544 170.552 98.652z"/>
  <path class="st1" d="M1.752 107.652c-1.861-3.514 0.963-7.035 3.6-8C7.032 102.998 4.669 106.961 1.752 107.652z"/>
  <path class="st1" d="M183.152 101.052c2.428 3.005-1.791 6.79-5.2 6.8C177.75 103.651 180.362 102.262 183.152 101.052z"/>
  <path class="st1" d="M6.152 105.852c3.25 2.125-3.319 11.803-4 6.2C1.883 109.843 4.474 105.708 6.152 105.852z"/>
  <path class="st1" d="M182.752 107.453c0.757 4.164-2.317 6.21-6.2 6.399C176.934 110.035 179.16 108.06 182.752 107.453z"/>
  <path class="st1" d="M7.352 111.652c1.969 2.865-0.086 7.301-2.2 8.601C1.929 117.849 5.099 112.875 7.352 111.652z"/>
  <path class="st1" d="M181.752 113.852c0.164 4.279-3.229 5.903-6.8 5.8C175.368 115.986 178.266 113.788 181.752 113.852z"/>
  <path class="st1" d="M23.752 114.252c0.785 1.415 1.301 3.099 1.8 4.8 1.667 0 3.333 0 5 0 -0.913 1.421-2.832 1.835-3.8 3.2 0.441 1.691 1.248 3.019 1.6 4.8 -1.645-0.822-3.028-1.905-4.4-3 -1.755 0.845-2.947 2.254-4.8 3 0.568-1.632 1.172-3.229 1.8-4.8 -1.15-1.184-2.681-1.985-4-3 1.202-0.465 3.265-0.068 4.8-0.2C22.707 117.74 22.989 115.755 23.752 114.252z"/>
  <path class="st1" d="M160.952 115.252c1.013 1.253 1.351 3.182 2 4.8 1.667 0 3.333 0 5 0 -1.094 1.239-2.58 2.087-4 3 0.657 1.609 1.231 3.302 1.8 5 -1.719-0.814-3.093-1.973-4.6-3 -1.532 1.001-2.884 2.183-4.6 3 0.512-1.688 1.107-3.293 1.8-4.8 -1.167-1.233-2.97-1.83-4-3.2 1.6 0 3.2 0 4.8 0C159.906 118.606 160.504 117.004 160.952 115.252z"/>
  <path class="st1" d="M8.752 117.652c4.03 1.419-2.075 13.266-3 6.4C5.362 121.158 7.629 118.94 8.752 117.652z"/>
  <path class="st1" d="M179.952 120.252c0 4.133-2.879 5.388-7 5.399C173.316 122.01 176.414 120.056 179.952 120.252z"/>
  <path class="st1" d="M9.752 132.453c-2.808-2.057-1.254-7.659 1.6-8.601C13.312 126.307 12.078 131.301 9.752 132.453z"/>
  <path class="st1" d="M206.952 125.252c10.892-1.023 19.518 0.527 20 9.8 0.449 8.64-5.161 12.901-15 12 -0.466 4.8-0.067 10.467-0.2 15.6 -1.667 0-3.333 0-5 0C206.885 150.252 206.485 137.319 206.952 125.252zM220.752 140.453c3.685-5.441-0.861-13.188-8.8-11.2 -0.466 4.2-0.067 9.267-0.2 13.8C215.892 143.063 219.128 142.85 220.752 140.453z"/>
  <path class="st1" d="M237.352 125.252c0 11.066 0 22.133 0 33.2 4.067 0 8.133 0 12.2 0 0 1.399 0 2.8 0 4.199 -5.733 0-11.467 0-17.2 0 0.133-12.399-0.267-25.333 0.2-37.399C234.152 125.252 235.752 125.252 237.352 125.252z"/>
  <path class="st1" d="M268.352 125.252c3.845 12.621 8.217 24.716 12 37.399 -1.667 0-3.333 0-5 0 -1.056-3.211-2.083-6.45-3-9.8 -4.6 0-9.2 0-13.8 0 -1.386 2.947-2.127 6.54-3.2 9.8 -1.667 0-3.333 0-5 0 4.37-12.363 8.106-25.36 12.8-37.399C264.885 125.252 266.619 125.252 268.352 125.252zM259.752 148.652c3.733 0 7.467 0 11.2 0 -1.769-6.164-3.636-12.23-5.6-18.199C263.603 136.636 261.475 142.442 259.752 148.652z"/>
  <path class="st1" d="M290.752 125.252c4.616 10.117 9.344 20.123 13.8 30.399 0.467-9.733 0.066-20.333 0.2-30.399 1.533 0 3.066 0 4.6 0 0 12.467 0 24.934 0 37.399 -2 0-4 0-6 0 -4.559-10.107-9.296-20.037-13.8-30.199 -0.467 9.666-0.067 20.199-0.2 30.199 -1.533 0-3.066 0-4.6 0 0.133-12.399-0.267-25.333 0.199-37.399C286.885 125.252 288.819 125.252 290.752 125.252z"/>
  <path class="st1" d="M177.752 126.652c-0.296 3.577-3.396 5.396-7.4 4.601C171.136 128.163 173.892 126 177.752 126.652z"/>
  <path class="st1" d="M13.352 129.252c2.66 0.782 1.592 8.875-0.6 8.8 -1.46-0.051-1.986-3.205-1.6-5.2C11.495 131.08 12.829 130.347 13.352 129.252z"/>
  <path class="st2" d="M211.752 143.052c0.133-4.533-0.266-9.6 0.2-13.8 7.939-1.987 12.484 5.759 8.8 11.2C219.128 142.85 215.892 143.063 211.752 143.052z"/>
  <path class="st2" d="M265.352 130.453c1.964 5.969 3.831 12.035 5.6 18.199 -3.733 0-7.467 0-11.2 0C261.475 142.442 263.603 136.636 265.352 130.453z"/>
  <path class="st1" d="M174.952 132.252c0.589 3.681-3.564 5.341-7.4 4.6C167.929 133.363 171.737 132.238 174.952 132.252z"/>
  <path class="st1" d="M16.552 143.652c-3.531-1.045-2.468-7.158-0.2-8.8C18.855 136.097 18.152 141.975 16.552 143.652z"/>
  <path class="st1" d="M43.952 143.453c-0.5-0.034-0.626 0.307-0.8 0.6 -1.728-1.072-2.634-2.966-4-4.4 -1.001 0.399-1.528 1.271-2.4 1.801 0.834 1.699 2.57 2.496 3.2 4.399 -0.52 0.08-0.603 0.597-1.2 0.601 -0.921-1.412-2.024-2.643-3.2-3.801 -1.764 0.574-3.426 4.4-4.8 1.801 2.513-2.487 5.545-4.455 8-7C40.974 138.963 42.508 141.163 43.952 143.453z"/>
  <path class="st1" d="M172.152 138.052c0.089 3.896-4.006 4.651-7.8 4C164.877 138.771 168.5 137.542 172.152 138.052z"/>
  <path class="st1" d="M151.152 143.652c0.743-0.058 0.542-1.058 1.4-1 1.629 0.424-0.25 1.528-0.2 1.801 0.165 0.892 1.138 0.91 1.8 1.8 -0.543 2.083-1.871 0.336-2.8-0.4 -1.041 1.093-1.989 2.277-3 3.4 -0.542-0.125-0.498-0.836-1.2-0.8 -0.383-3.017-1.307-5.494-1.8-8.4 0.288-0.112 0.488-0.312 0.6-0.6C148.05 140.488 149.387 142.284 151.152 143.652zM148.352 147.252c0.553-0.914 1.36-1.573 2-2.4 -1.239-0.63-2.412-2.385-3.4-2.6C147.607 143.73 147.759 145.711 148.352 147.252z"/>
  <path class="st1" d="M20.352 148.852c-3.559-0.642-2.914-6.851-1-8.8C22.188 140.927 22.018 146.801 20.352 148.852z"/>
  <path class="st1" d="M168.752 143.453c-0.021 3.87-4.706 4.805-8 3.6C161.428 143.976 164.928 142.72 168.752 143.453z"/>
  <path class="st1" d="M24.352 153.852c-3.32-0.414-3.262-6.98-1.2-8.8C25.718 146.197 26.276 151.576 24.352 153.852z"/>
  <path class="st1" d="M45.752 146.652c2.981-0.374 5.671 1.799 6 4.4 0.888 7.033-9.578 9.475-11.4 3.2C39.374 150.883 42.289 147.087 45.752 146.652zM45.352 156.453c4.908 0.104 6.712-9.152 0.6-8.2C41.362 148.967 40.263 156.344 45.352 156.453z"/>
  <path class="st1" d="M142.552 150.453c2.498-0.728 3.849 1.505 3.8 3.199 -0.126 4.339-7.958 5.386-7-0.199 -0.695-0.305-1.678-0.322-2.2-0.801C133.265 148.269 143.551 144.084 142.552 150.453zM137.952 150.252c-0.142 4.807 6.252-1.898 1.8-1.601C138.607 148.729 137.985 149.143 137.952 150.252zM142.352 155.852c2.661 0.305 3.313-4.106 0.6-4C140.141 151.962 139.756 155.555 142.352 155.852z"/>
  <path class="st2" d="M45.952 148.252c6.112-0.952 4.308 8.304-0.6 8.2C40.263 156.344 41.362 148.967 45.952 148.252z"/>
  <path class="st1" d="M165.152 148.652c-0.043 3.736-5.042 4.171-8.2 3C157.484 148.629 161.846 147.601 165.152 148.652z"/>
  <path class="st2" d="M139.752 148.652c4.453-0.298-1.942 6.407-1.8 1.601C137.985 149.143 138.607 148.729 139.752 148.652z"/>
  <path class="st1" d="M27.352 150.252c2.651 0.891 3.175 5.798 1.8 8.399C25.649 158.47 25.035 152.234 27.352 150.252z"/>
  <path class="st2" d="M142.952 151.852c2.713-0.106 2.061 4.305-0.6 4C139.756 155.555 140.141 151.962 142.952 151.852z"/>
  <path class="st1" d="M57.352 153.852c-0.399 2.356-4.435 4.907-4 8 0.192 1.369 1.557 2.421 3.2 2.2 3.06-0.411 3.193-5.586 5.4-7.4 0.614 0.053 0.899 0.435 1.4 0.601 -2.186 2.546-2.655 7.946-6.4 8.399 -2.534 0.308-4.832-1.448-5.2-3.199 -0.825-3.929 3.507-6.559 4-9.4C56.508 153.096 56.723 153.681 57.352 153.852z"/>
  <path class="st1" d="M160.952 153.652c-0.148 3.82-5.656 3.964-8.4 2.4C153.251 153.216 158.015 152.403 160.952 153.652z"/>
  <path class="st1" d="M134.352 156.652c0.71 0.29 1.565 0.435 2.2 0.801 3.945 4.239-4.306 9.145-6.2 4.199 0.009-0.924-0.112-1.978 0.4-2.399C122.722 157.224 135.098 148.511 134.352 156.652zM133.152 155.852c-0.462-3.037-5.743 0.482-2.8 2C132.461 157.992 133.301 156.83 133.152 155.852zM133.352 162.252c2.929 0.524 3.967-4.708 0.2-3.8C131.211 159.016 131.625 161.943 133.352 162.252z"/>
  <path class="st1" d="M33.952 163.052c-3.334-0.379-4.16-5.16-2.8-8.4C34.449 154.974 35.168 160.092 33.952 163.052z"/>
  <path class="st2" d="M130.352 157.852c-2.943-1.518 2.338-5.037 2.8-2C133.301 156.83 132.461 157.992 130.352 157.852z"/>
  <path class="st1" d="M156.552 158.252c-0.336 3.829-5.987 3.586-8.6 2C148.486 157.306 153.777 157.109 156.552 158.252z"/>
  <path class="st1" d="M126.752 167.453c-0.314 0.485-0.851 0.749-1.6 0.8 -0.76-2.373-1.94-4.326-2.8-6.601 -1.014-0.013-1.686 1.156-2.6 0.601 -0.54-1.325 1.196-1.25 1.6-2.2 -0.117-1.184-0.01-2.144 1.2-2C123.83 161.308 125.279 164.392 126.752 167.453z"/>
  <path class="st2" d="M133.552 158.453c3.767-0.908 2.729 4.324-0.2 3.8C131.625 161.943 131.211 159.016 133.552 158.453z"/>
  <path class="st1" d="M38.952 166.852c-3.655 0.101-4.31-5.244-3-8.2C38.753 159.4 40.276 163.891 38.952 166.852z"/>
  <path class="st1" d="M66.152 158.652c0.625 0.309 1.441 0.427 2 0.801 0.388 3.411 1.427 6.173 1.8 9.6 1.178-2.488 1.959-5.374 3-8 0.448 0.219 1.002 0.331 1.4 0.6 -1.106 3.494-2.433 6.768-3.6 10.2 -0.72 0.054-0.964-0.369-1.6-0.399 -0.877-3.056-1.388-6.479-2.2-9.601 -1.113 2.354-1.95 4.983-2.8 7.601 -0.72 0.053-0.964-0.37-1.6-0.4C63.679 165.513 65.162 162.329 66.152 158.652z"/>
  <path class="st1" d="M151.752 162.652c-0.479 3.843-6.271 2.844-8.6 1.4C143.685 161.132 149.644 161.049 151.752 162.652z"/>
  <path class="st1" d="M77.552 162.453c2.298 0.765 4.756 0.287 6.4 1.399 2.768 1.874 2.341 9.256-1.8 10.2 -2.2 0.502-3.656-0.601-6.4-0.8C76.408 169.708 77.117 166.217 77.552 162.453zM77.752 172.252c4.555 2.446 7.975-3.298 5.8-6.601 -0.841-1.276-2.649-1.104-4.6-1.399C78.705 167.072 77.929 169.363 77.752 172.252z"/>
  <path class="st1" d="M44.352 170.652c-3.474-0.36-4.517-4.102-3.8-8C44.027 162.978 45.269 167.213 44.352 170.652z"/>
  <path class="st1" d="M102.552 174.652c-0.72-3.547-1.455-7.078-2-10.8 3.178-0.001 4.664-1.594 7.2-0.399 3.177 1.496 3.638 7.912 1 9.8C107.198 174.365 104.903 174.046 102.552 174.652zM107.552 172.252c2.101-1.361 1.318-6.015-0.2-7.2 -1.387-1.083-2.926-0.256-5 0 0.603 2.597 0.926 5.474 1.6 8C105.378 172.429 106.438 172.973 107.552 172.252z"/>
  <path class="st1" d="M168.752 167.252c-0.333 0-0.667 0-1 0 -1.137-0.664-1.097-2.644-3.6-2.2 -0.841 0.149-1.691 0.805-1.6 1.8 0.197 2.139 5.04 1.251 6.2 3.2 3.044 5.116-8.743 7.886-8.2 1.2 0.4 0 0.8 0 1.2 0 0.796 0.271 0.542 1.591 1.2 2 2.014 0.96 4.685 0.289 4.6-1.4 -0.128-2.562-5.934-1.272-6.6-3.8C159.451 162.39 169.384 162.153 168.752 167.252z"/>
  <path class="st1" d="M170.952 163.852c0.8 0 1.6 0 2.4 0 0.774 3.093 1.942 5.791 2.8 8.8 1.074-2.859 2.142-5.725 3-8.8 0.8 0 1.6 0 2.4 0 0 3.667 0 7.334 0 11 -0.534 0-1.067 0-1.6 0 0-2.733 0-5.467 0-8.2 -1.003 2.664-2.036 5.298-2.8 8.2 -0.6 0-1.2 0-1.8 0 -0.736-2.798-1.922-5.145-2.6-8 -0.466 2.268-0.067 5.399-0.2 8 -0.534 0-1.067 0-1.6 0C170.952 171.186 170.952 167.519 170.952 163.852z"/>
  <path class="st2" d="M78.952 164.252c1.951 0.295 3.759 0.123 4.6 1.399 2.175 3.303-1.245 9.047-5.8 6.601C77.929 169.363 78.705 167.072 78.952 164.252z"/>
  <path class="st1" d="M89.552 164.252c2.601 0.133 5.732-0.266 8 0.2 0 0.267 0 0.533 0 0.8 -1.283 0.917-4.255 0.145-6.2 0.399 -0.462 0.672-0.07 2.197-0.2 3.2 1.935 0.133 4.399-0.265 6 0.2 0 0.267 0 0.533 0 0.8 -1.151 0.916-3.986 0.146-5.8 0.4 -0.462 0.737-0.07 2.33-0.2 3.399 2.134 0.133 4.799-0.265 6.6 0.2 0 0.267 0 0.533 0 0.8 -1.943 0.924-5.593 0.141-8.2 0.4C89.552 171.453 89.552 167.852 89.552 164.252z"/>
  <path class="st2" d="M103.952 173.052c-0.674-2.526-0.997-5.403-1.6-8 2.074-0.256 3.613-1.083 5 0 1.518 1.186 2.301 5.839 0.2 7.2C106.438 172.973 105.378 172.429 103.952 173.052z"/>
  <path class="st1" d="M146.752 166.652c-0.713 3.403-7.003 2.684-8.6 0.601C139.014 164.393 145.007 164.971 146.752 166.652z"/>
  <path class="st1" d="M45.752 166.052c3.477 0.508 4.751 4.111 4.4 7.8C46.266 173.753 45.075 170.067 45.752 166.052z"/>
  <path class="st1" d="M141.552 170.252c-1.073 3.483-7.088 2.13-8.6 0C134.119 167.222 139.943 168.593 141.552 170.252z"/>
  <path class="st1" d="M50.752 168.852c3.271 0.669 5.192 3.733 4.6 7.601C51.468 176.386 50.34 172.553 50.752 168.852z"/>
  <path class="st1" d="M135.752 173.652c-1.397 3.237-7.583 1.57-8.6-0.8C128.921 170.177 134.369 171.789 135.752 173.652z"/>
  <path class="st1" d="M61.352 178.852c-4.114 0.107-5.56-3.499-5.2-7.2C59.799 172.139 61.212 174.859 61.352 178.852z"/>
  <path class="st1" d="M61.752 173.852c3.503 0.631 5.26 3.007 5.6 6.8C63.418 181.245 61.537 178.074 61.752 173.852z"/>
  <path class="st1" d="M129.952 176.652c-2.088 2.867-7.354 0.76-8.6-1.399C123.238 172.453 128.881 174.41 129.952 176.652z"/>
  <path class="st1" d="M123.952 179.052c-2.508 2.583-7.258 0.371-8.4-2C117.719 174.48 123.053 176.648 123.952 179.052z"/>
  <path class="st1" d="M67.352 176.052c4.313-0.113 5.605 2.795 6.4 6.2C69.995 183.338 67.683 179.707 67.352 176.052z"/>
  <path class="st1" d="M72.952 177.453c4.332-0.133 5.839 2.561 6.8 5.8C75.839 184.519 73.417 180.955 72.952 177.453z"/>
  <path class="st1" d="M117.752 180.852c-2.761 2.445-7.762 0.036-8.2-3C112.987 176.772 116.678 178.302 117.752 180.852z"/>
  <path class="st1" d="M78.952 178.453c4.108-0.175 6.151 2.78 6.8 5.399 -3.285 1.741-6.389-1.688-6.8-4.8C78.952 178.852 78.952 178.652 78.952 178.453z"/>
  <path class="st1" d="M111.552 182.252c-2.797 2.637-7.443-0.388-8-3.2C107.043 177.782 110.509 179.765 111.552 182.252z"/>
  <path class="st1" d="M84.752 179.252c4.44-0.307 6.263 2.004 7.4 5C88.448 186.055 85.301 182.557 84.752 179.252z"/>
  <path class="st1" d="M104.952 183.652c-3.416 1.723-6.991-0.979-7.8-3.8C100.415 178.134 104.275 180.806 104.952 183.652z"/>
  <path class="st1" d="M98.552 184.252c-3.397 1.521-7.128-1.256-7.6-4.601C94.997 178.882 97.612 181.252 98.552 184.252z"/>
  <path class="st0" d="M88.352 0.452c0.808 3.242 3.543 5.455 7.4 5C95.206 2.078 92.364-0.954 88.352 0.452zM81.952 1.052c1.058 2.928 3.765 5.097 7.8 4.4C89.047 2.349 85.368-1.108 81.952 1.052zM94.752 0.652c1.156 2.978 2.718 5.549 7.2 5.2C101.356 2.528 98.775-0.765 94.752 0.652zM101.152 0.852c0.56 3.708 2.724 5.81 6.8 6C107.35 3.315 105.369 0.109 101.152 0.852zM75.552 1.852c0.97 2.93 3.973 4.781 8 4C83.056 2.621 79.079 0.102 75.552 1.852zM107.752 1.852c0.268 3.14 2.423 6.104 6.2 6.4C113.983 4.149 111.731 1.281 107.752 1.852zM71.952 2.452c-7.028-0.383 1.884 7.07 5.2 4.2C76.755 4.62 74.389 2.585 71.952 2.452zM114.152 3.252c0.182 3.025 2.218 6.974 6 6.4C119.721 6.077 118.044 2.701 114.152 3.252zM62.752 5.452c1.198 2.458 5.147 4.024 8.4 2.6C70.624 5.208 65.191 2.604 62.752 5.452zM120.352 4.852c-0.251 3.66 1.634 6.894 5.4 7.2C125.894 7.71 124.204 5.2 120.352 4.852zM56.752 8.052c1.539 1.59 6.303 3.829 8.4 1.2C64.664 7.433 58.1 4.215 56.752 8.052zM126.552 7.052c-0.991 3.532 1.381 6.964 4.6 7.6C131.894 10.635 130.035 7.509 126.552 7.052zM50.752 10.252c1.046 2.152 6.681 3.579 8.6 1.2C58.785 9.324 52.542 7.14 50.752 10.252zM132.152 9.852c-0.448 3.596 1.487 7.566 4.6 7.6C137.161 13.776 136.132 9.806 132.152 9.852zM45.152 13.652c1.623 1.778 7.565 2.938 8.8 0C52.418 11.888 46.156 10.171 45.152 13.652zM89.952 12.052c-0.751 2.716-3.266 4.733-4.8 6 -0.256-1.18-0.375-3.441-0.2-4.4 0.369-0.498 1.748 0.015 1.4-1.2 -0.77-0.19-2.234 0.08-3.6 0.2 -0.846 0.074-2.39-0.484-2.4 0.6 -0.135 0.935 1.688-0.089 1.6 0.8 0.198 3.402 0.536 6.664 0.6 10.2 -0.35 0.517-1.717 0.016-1.4 1.2 1.445 0.042 4.681 0.149 6-0.6 0.254-1.053-1.351-0.249-1.6-0.8 -0.264-1.47-0.322-3.145-0.4-4.8 3.048 1.736 4.451 7.739 9.6 5.2 0.093-0.893-0.898-0.702-1.4-1 -0.797-0.936-1.708-1.824-2.8-3 -0.572-0.616-2.827-2.37-2.8-3 0.026-0.601 1.839-1.602 2.2-2 0.891-0.981 1.079-1.729 2-2.2 0.366-0.501 1.758 0.025 1.6-1C93.048 11.356 91.252 12.431 89.952 12.052zM96.352 12.852c0.246 0.421 1.204 0.129 1.4 0.6 -0.483 4.117-0.109 9.09-2.2 11.6 3.326 0.141 5.972 0.961 9.4 1 -0.064-0.986 0.998-2.794 0.2-3.2 -0.122-0.011-0.237-0.03-0.2-0.2 -0.944 0.056-0.41 1.59-1.2 1.8 -1.546 0.013-3.114 0.048-4.2-0.4 0.196-1.537 0.238-3.229 0.6-4.6 1.176-0.042 2.144 0.123 3 0.4 0.542 0.258-0.333 1.933 0.8 1.6 0.494-0.807 1.028-3.592 0.4-4.2 -0.987-0.254-0.47 0.997-1 1.2 -1.282 0.149-2.033-0.233-3.2-0.2 0.471-1.196 0.087-3.247 0.8-4.2 1.582-0.048 2.938 0.129 4 0.6 0.165 0.502-0.389 1.722 0.4 1.6 1.059-0.275 0.809-1.858 1-3 -3.26-0.407-6.689-0.645-9.8-1.2C96.597 12.43 96.327 12.494 96.352 12.852zM138.152 13.052c-0.622 3.831 0.548 7.579 4 8C142.886 17.073 141.718 13.387 138.152 13.052zM109.352 14.052c-0.158 1.091 1.31 0.557 1.2 1.6 -1.149 3.251-1.844 6.956-3.4 9.8 -0.493 0.156-1.384-0.727-1.4 0.2 0.083 0.767 3.559 1.857 4.2 1.4 0.011-0.122 0.03-0.237 0.2-0.2 -0.115-0.751-1.317-0.416-1.4-1.2 0.996-2.404 1.515-5.285 2.6-7.6 1.763 3.637 3.048 7.752 4.8 11.4 0.537 0.263 1.063 0.537 1.6 0.8 1.554-3.712 2.114-8.419 4.2-11.6 0.205 0.132 1.339 0.772 1.2 0 0.012-0.122 0.03-0.237 0.2-0.2 -0.918-0.706-3.512-1.787-4.4-1.2 -0.667 0.746 1.339 0.519 1.2 1.4 -0.911 2.222-1.467 4.799-2.4 7 -1.544-3.522-3.129-7.004-4.4-10.8C111.804 14.899 110.698 13.553 109.352 14.052zM67.752 24.452c2.281 1.333 4.949 4.145 7.2 2.6 -1.5-3.5-2.727-7.273-4-11 0.063-0.803 1.446-0.287 1.2-1.4 -1.333-0.103-3.523 0.587-4.4 1.6 0.345 0.764 0.933 0.042 1.8 0.2 0.774 2.293 2.146 5.053 2.4 7.2 -3.318-1.949-6.697-3.836-10-5.8 -1.057 0.677-2.822 0.645-3.6 1.6 0.156 0.044 0.232 0.167 0.2 0.4 0.164 0.405 1.054-0.126 1.4-0.2 1.45 3.217 2.82 6.513 3.6 10.4 -1.687 0.686-0.678 0.833-2.6 1 -3.653-2.414-7.03-5.104-10.8-7.4 -0.138 0.395-0.533 0.533-1 0.6 0.598 4.335 1.575 8.292 2 12.8 -0.009 0.658-0.854 0.479-0.8 1.2 1.305 0.622 3.291-1.135 4.2-2.2 -0.56-0.75-0.976 0.13-1.8 0.2 -0.533-0.667-0.414-1.986-0.8-2.8 1.438-0.696 2.613-1.653 4-2.4 0.5 0.833 1.772 0.895 2 2 -0.099 0.568-1.045 0.288-0.8 1.2 0.882 0.71 1.76-0.67 2.6-1.2 1.04-0.655 2.352-0.991 3-1.8 1.261-0.666 4.122-0.595 4-2 -0.32-0.561-0.9 0.281-1.6 0 -1.172-2.495-1.933-5.4-3-8C63.587 22.324 65.667 23.233 67.752 24.452zM39.552 17.452c2.064 1.584 7.636 2.254 8.8-0.6C46.474 14.946 40.295 13.5 39.552 17.452zM143.352 16.652c-0.153 4.02 0.303 7.43 3.6 8C147.965 21.134 147.273 16.5 143.352 16.652zM34.552 21.052c1.964 1.609 7.89 1.954 8.6-1C41.296 18.083 35.106 17.558 34.552 21.052zM125.952 19.652c-0.571 0.956 0.789 0.858 1 1.6 -1.825 2.975-3.443 6.157-5.4 9 -0.781 0.364-1.456-1.001-1.6 0 0.021 0.992 3.017 2.442 3.8 2.4 0.752-0.948-1.055-0.719-0.8-1.8 1.374-2.359 2.664-4.803 4.2-7 0.543 4.257 1.364 8.236 2 12.4 0.566 0.301 0.852 0.881 1.6 1 2.068-3.399 3.821-7.113 6.2-10.2 0.612 0.013 1.042 0.734 1.6 0.2 -0.67-1.417-2.831-2.343-4-2.6 -0.655 1.011 0.706 0.783 0.8 1.6 -1.018 2.448-2.397 4.536-3.8 6.6 -0.57-3.83-1.601-7.199-1.8-11.4C128.363 21.083 127.239 19.467 125.952 19.652zM149.152 20.452c-2.505 0.631-0.138 8.735 2.4 8.4C153.528 26.596 151.707 19.808 149.152 20.452zM29.552 25.052c2.101 1.615 8.035 1.483 8.6-1.4C35.779 21.716 30.437 21.905 29.552 25.052zM153.752 24.452c-1.609 2.64-0.824 8.123 2.2 8.6C157.639 30.198 157.087 25.075 153.752 24.452zM24.952 29.652c2.699 1.446 8.12 0.965 8.6-2.2C30.717 26.021 25.394 26.351 24.952 29.652zM141.152 30.652c-2.27 2.664-4.441 5.425-7 7.8 -0.4 0-0.8 0-1.2 0 1.871 2.53 4.508 4.292 6.8 6.4 0.979-0.586 2.41-1.68 2.4-2.6 -0.971-0.514-1.358 0.594-2.2 0.8 -1.106-0.894-2.394-1.606-3.2-2.8 1.028-1.172 1.861-2.539 3.2-3.4 0.665 0.669 1.525 1.142 2 2 -0.07 0.824-1.021 1.17-0.2 1.8 1.21-0.745 2.728-2.176 2.8-3.4 -0.613-0.513-1.053 0.428-1.6 0.6 -0.756-0.777-1.73-1.336-2.4-2.2 1.497-0.487 1.684-3.008 3-3 0.836 0.005 2.41 2.786 3 3 -0.509 0.21-1.074 1.026-0.6 1.6 1.169-0.297 1.765-1.169 2.4-2 -2.369-2.364-4.948-4.519-7.6-6.6C139.851 29.57 141.189 29.554 141.152 30.652zM158.552 29.252c-2.173 0.531-1.199 8.544 1.4 8.6C161.947 36.487 161.468 28.54 158.552 29.252zM41.952 30.052c-2.767 0.975-5.991 3.804-6.4 7 -0.527 4.12 2.787 8.349 7.8 7.6 3.211-0.479 6.875-3.819 6.2-7.2 -2.043 2.407-3.066 5.251-6.8 4.8 -3.274-0.396-5.948-4.56-4.8-7.4 0.446-1.103 2.088-2.845 3.8-2.8 1.378 0.036 1.018 1.197 2.4 0.8C43.828 31.722 42.854 29.735 41.952 30.052zM20.952 34.652c3.145 0.997 7.821 0.28 8.2-2.8C26.248 30.39 20.343 31.352 20.952 34.652zM163.752 43.052c1.9-1.908 2.55-8.001-0.8-8.8C160.713 35.995 161.222 42.075 163.752 43.052zM48.752 53.252c-9.461 10.292-16.833 24.087-15.8 43.399 0.988 18.47 8.117 31.09 18.6 41 10.025 9.478 24.172 17.011 43.4 16.2 18.061-0.761 31.074-8.068 41-18.399 9.501-9.891 16.816-24.224 16-43.601 -0.795-18.873-8.97-30.97-18.8-40.8 -9.452-9.453-24.339-17.298-43.2-16.4C71.005 35.554 58.045 43.142 48.752 53.252zM16.752 39.852c3.352 1.033 7.694-0.087 8.2-3.2C21.699 35.281 16.988 36.354 16.752 39.852zM150.552 39.252c-2.799 2.268-5.421 4.712-8.4 6.8 -0.267-0.286-0.889-0.529-1.2-0.2 1.823 2.644 3.81 5.124 6 7.4 0.745-0.82 2.773-1.317 2.6-2.4 -0.905-0.656-1.43 0.487-2.4 0.4 -1.165-0.835-1.906-2.094-2.8-3.2 2.905-1.961 5.188-4.545 8.2-6.4 0.511 0.208 0.874 1.226 1.6 0.6 -0.624-1.525-2.306-3.683-4-4.8C149.366 38.041 150.34 38.548 150.552 39.252zM168.952 44.452c0.292-2.096-0.434-5.337-2.2-5 -2.196 0.419-2.268 8.486 0.4 8.8C167.659 47.055 168.684 46.376 168.952 44.452zM31.152 40.052c-0.912 1.767-3.216 3.167-3.4 5 0.738 0.591 0.991-0.638 1.6-0.8 2.746 2.254 5.82 4.18 8.2 6.8 -0.264 0.613-0.919 1.052-0.2 1.6 1.697-1.236 2.82-3.046 4-4.8 -1.005-0.834-0.995 0.408-2 0.6 -2.593-2.34-5.776-4.091-8-6.8 0.08-0.52 0.597-0.604 0.6-1.2C31.555 40.45 31.698 39.907 31.152 40.052zM13.552 45.252c3.694 0.627 7.074-0.792 7.8-3.8C18.214 40.069 13.014 41.751 13.552 45.252zM170.152 53.652c1.827-1.873 3.508-7.281 0.2-8.8C168.14 46.218 167.368 52.328 170.152 53.652zM10.152 50.852c3.488 0.611 7.091-1.029 8-4.2C14.419 45.564 10.307 47.08 10.152 50.852zM27.152 49.052c-4.321-1.074-5.537 6.356-7.4 8.4 1.054 0.635 1.062-0.739 2-0.8 2.825 1.908 6.217 3.25 8.8 5.4 -0.063 0.559-0.938 1.551 0.2 1.6 0.982-1.263 3.073-4.073 2.8-5.2 -0.8-0.786-0.817 0.907-1.6 0.8 -2.859-1.875-6.243-3.224-8.8-5.4 0.841-3.972 6.839-0.994 4.2 2.4 2.955 0.155 5.304-0.296 8.2-0.2 0.229-1.437 1.416-1.917 1.6-3.4 -1.854 0.294-5.196 0.792-8 0.8C29.329 51.025 28.618 49.417 27.152 49.052zM172.352 59.252c2.454-1.143 4.082-6.633 1.4-8.8C171.143 51.463 170.271 57.043 172.352 59.252zM7.752 56.852c3.96-0.173 6.578-1.689 7.4-5C11.059 50.924 6.913 53.503 7.752 56.852zM152.952 56.452c-0.846 1.1-1.369 3.082-1.2 4.8 0.282 2.863 1.863 6.235 5 6.4 -1.524-2.186-3.344-3.673-3-6.4 0.352-2.782 3.929-5.216 6.8-4.8 1.876 0.272 4.477 2.762 3.8 5.4 -0.287 1.118-1.802 0.788-1.4 2.2 0.707 0.167 2.099-0.697 3.2-0.8C166.716 55.504 157.395 50.678 152.952 56.452zM174.552 64.852c2.438-1.063 4.784-6.661 1.6-8.6C173.911 57.422 172.535 62.446 174.552 64.852zM5.152 62.452c3.35 0.808 6.868-1.478 7.2-5C8.676 57.066 5.343 58.693 5.152 62.452zM15.552 69.652c0.729 0.716 0.452-1.271 1.4-1 3.534 1.465 8.08 1.92 10.4 4.6 1.185-2.815 2.438-5.563 3.2-8.8 -1.073-0.236-2.098-1.444-3.2-1 -0.241 1.375 1.4 0.866 1.4 2 -0.245 1.489-0.684 2.783-1.4 3.8 -1.376-0.558-2.912-0.955-4.2-1.6 0.285-1.183 0.438-2.495 1.4-3 0.402 0.301 1.214 0.577 1.4 0 -0.516-1.109-3.333-1.966-4-1.6 -0.811 0.824 1.002 0.722 1 1.4 -0.592 0.742-0.528 2.139-1.2 2.8 -1.171-0.629-2.807-0.793-3.8-1.6 0.404-1.396 0.806-2.794 1.6-3.8 0.635-0.013 1.627 0.862 1.6-0.2 -0.578-0.822-1.565-1.235-2.8-1.4C17.597 63.558 15.361 67.032 15.552 69.652zM175.552 69.052c0.567 3.749 3.406 0.385 4.2-1.8 0.638-1.756 0.161-4.268-1.2-4.8C176.949 62.894 175.22 66.858 175.552 69.052zM3.352 69.252c3.644-0.557 6.498-1.902 6.6-6C6.133 63.506 2.724 65.216 3.352 69.252zM166.952 67.052c-3.606 0.884-7.916 3.507-11.6 2.4 0.723 3.077 1.604 5.996 2.4 9 1.257-0.276 3.22 0.153 3.4-1.2 -0.342-0.458-1.526-0.074-2.2-0.2 -0.453-1.347-1.134-2.466-1.2-4.2 3.205-0.996 6.573-1.827 9.8-2.8 0.578 0.289 0.236 1.497 1.2 1.4 0.488-1.49-0.574-4.708-1.6-6C166.551 65.663 166.76 66.541 166.952 67.052zM180.552 68.652c-2.416 1.263-4.453 5.148-3 8.4C180.689 76.38 183.028 71.338 180.552 68.652zM2.152 75.652c3.435-0.766 5.873-2.527 6.2-6.4C4.383 69.268 1.079 71.909 2.152 75.652zM13.352 76.852c2.739 1.861 5.717 3.483 8.2 5.6 -3.329 0.738-6.094 2.039-9.4 2.8 0.226 1.656-1.053 3.839-0.2 4.8 1.076 0.209 0.357-1.376 1.2-1.4 3.564 0.436 7.361 0.639 10.4 1.6 -0.104 0.836-0.019 1.484 0.6 1.6 -2.931 3.603-8.323 4.744-12 7.601 0.447 0.086 0.081 0.985 0.2 1.399 4.668 1.398 10.098 2.036 13.4 4.8 0.212-1.186 0.05-3.62-0.6-4.6 -0.716 0.083-0.058 1.542-0.8 1.6 -1.061-0.072-2.112-0.153-2.6-0.8 -0.246-1.287-0.337-2.729-0.4-4.2 0.823-0.376 1.402-0.997 2.4-1.199 0.721 0.078 0.051 1.549 1.2 1.199 0.53-1.885-0.554-4.136-0.6-6.2 -0.032-1.423 1.267-3.689 0-4.2 -0.465-0.452-0.238 1.485-1 1.4 -2.519-0.615-5.83-0.437-8-1.4 1.728-0.475 3.645-1.038 5.4-1.6 1.686-0.541 4.014-0.942 4.8-2.2 -2.309-1.958-6.212-4.054-9-6.2 2.808 0.525 6.091 0.575 8.6 1.4 0.322 0.659-0.696 1.415 0.2 1.4 1.064-0.038 0.846-1.9 1-3 0.153-1.095 0.837-2.844-0.2-3 -0.78-0.046-0.23 1.236-0.8 1.4 -3.681-0.252-7.091-0.776-10.4-1.4 -0.535-0.199 0.265-1.732-0.6-1.6 -0.133 0-0.267 0-0.4 0C13.809 73.976 13.535 75.368 13.352 76.852zM464.152 74.052c-18.929 1.954-18.702 36.258 0 38 3.575 0.333 6.43-0.118 9.601-1 -0.132-1.602 0.265-3.731-0.2-5 -2.704 2.177-8.712 2.324-11.8 0.8 -8.451-4.172-9.069-21.874-0.801-27 3.084-1.911 8.79-2.314 12.801 0.2 0-1.6 0-3.2 0-4.8C471.048 74.215 467.859 73.669 464.152 74.052zM206.752 111.852c1.667 0 3.333 0 5 0 0-5.2 0-10.399 0-15.6 10.077 0.77 15.655-3.242 15.2-12 -0.5-9.623-8.993-10.704-20-10C206.485 86.386 206.885 99.385 206.752 111.852zM232.552 74.252c-0.467 12.133-0.067 25.133-0.2 37.6 6.067 0 12.133 0 18.2 0 0-1.467 0-2.934 0-4.399 -4.4 0-8.8 0-13.2 0 0.133-4.268-0.267-9.066 0.2-13 3.933 0 7.866 0 11.8 0 0-1.4 0-2.8 0-4.2 -4 0-8 0-12 0 0-3.867 0-7.733 0-11.6 4.2 0 8.4 0 12.6 0 0-1.467 0-2.934 0-4.4C244.152 74.252 238.352 74.252 232.552 74.252zM254.152 74.252c-0.464 1.069-0.068 2.998-0.2 4.4 2.8 0.133 6.132-0.266 8.6 0.2 0 11 0 22 0 33 1.6 0 3.2 0 4.8 0 0-11.066 0-22.133 0-33.2 2.867 0 5.733 0 8.6 0 0-1.467 0-2.934 0-4.4C268.686 74.252 261.418 74.252 254.152 74.252zM293.752 74.252c-0.467 12.133-0.067 25.133-0.2 37.6 1.666 0 3.333 0 5 0 0-5.8 0-11.6 0-17.399 4.267 0 8.533 0 12.8 0 0 5.8 0 11.6 0 17.399 1.6 0 3.2 0 4.8 0 0-12.533 0-25.066 0-37.6 -1.6 0-3.2 0-4.8 0 -0.133 5.267 0.267 11.066-0.2 16 -4.134-0.133-8.8 0.266-12.6-0.2 0-5.267 0-10.533 0-15.8C296.952 74.252 295.352 74.252 293.752 74.252zM324.352 74.252c-0.467 12.133-0.066 25.133-0.2 37.6 6.066 0 12.134 0 18.2 0 0-1.467 0-2.934 0-4.399 -4.4 0-8.8 0-13.2 0 0.134-4.268-0.267-9.066 0.2-13 3.934 0 7.866 0 11.8 0 0-1.4 0-2.8 0-4.2 -4 0-8 0-12 0 0-3.867 0-7.733 0-11.6 4.2 0 8.4 0 12.601 0 0-1.467 0-2.934 0-4.4C335.952 74.252 330.152 74.252 324.352 74.252zM357.952 74.252c-4.555 12.245-8.572 25.027-12.8 37.6 1.667 0 3.334 0 5 0 1.017-3.316 1.753-6.914 3.2-9.8 4.6 0 9.2 0 13.8 0 0.9 3.366 1.923 6.61 3 9.8 1.667 0 3.334 0 5 0 -3.898-12.701-8.112-25.087-12.2-37.6C361.286 74.252 359.619 74.252 357.952 74.252zM379.752 74.252c-0.467 12.133-0.067 25.133-0.2 37.6 5.666 0 11.333 0 17 0 0-1.467 0-2.934 0-4.399 -4.066 0-8.134 0-12.2 0 0-11.067 0-22.134 0-33.2C382.819 74.252 381.286 74.252 379.752 74.252zM394.352 74.252c-0.464 1.069-0.068 2.998-0.2 4.4 2.734 0.133 5.999-0.266 8.4 0.2 0 11 0 22 0 33 1.666 0 3.333 0 5 0 0.133-11-0.267-22.533 0.2-33.2 2.8 0 5.6 0 8.399 0 0-1.467 0-2.934 0-4.4C408.885 74.252 401.619 74.252 394.352 74.252zM421.152 74.252c-0.467 12.133-0.066 25.133-0.2 37.6 1.601 0 3.2 0 4.801 0 0.133-5.733-0.267-12 0.199-17.399 4.267 0 8.534 0 12.801 0 0 5.8 0 11.6 0 17.399 1.6 0 3.199 0 4.8 0 0-12.533 0-25.066 0-37.6 -1.601 0-3.2 0-4.8 0 -0.134 5.267 0.266 11.066-0.2 16 -4.267 0-8.533 0-12.8 0 0-5.333 0-10.667 0-16C424.218 74.252 422.685 74.252 421.152 74.252zM489.152 74.252c-4.402 12.331-8.524 24.942-12.6 37.6 1.6 0 3.2 0 4.8 0 1.152-3.182 1.892-6.774 3.2-9.8 4.6 0 9.2 0 13.8 0 1.034 3.232 2.064 6.469 3 9.8 1.733 0 3.467 0 5.2 0 -4.021-12.579-8.234-24.966-12.2-37.6C492.619 74.252 490.885 74.252 489.152 74.252zM531.152 82.452c-1.064-8.617-10.4-8.707-20.2-8.2 -0.466 12.133-0.066 25.133-0.199 37.6 1.666 0 3.333 0 5 0 0.133-5.6-0.267-11.733 0.199-17 6.66-0.84 7.511 3.698 9 8.2 1.073 3.242 2.119 6.39 2.801 8.8 1.8 0 3.6 0 5.399 0 -0.733-2.635-1.976-5.471-3-8.399 -1.477-4.225-1.978-9.162-5.8-10.4C528.986 92.004 531.799 87.692 531.152 82.452zM538.752 74.252c-0.467 12.133-0.067 25.133-0.2 37.6 6.066 0 12.133 0 18.2 0 0-1.467 0-2.934 0-4.399 -4.4-0.134-9.333 0.266-13.4-0.2 0.133-4.2-0.267-8.934 0.2-12.8 3.934 0 7.866 0 11.8 0 0-1.4 0-2.8 0-4.2 -3.934-0.133-8.399 0.266-12-0.2 0-3.8 0-7.6 0-11.4 4.2 0 8.4 0 12.6 0 0-1.467 0-2.934 0-4.4C550.218 74.252 544.486 74.252 538.752 74.252zM178.552 83.052c3.077-0.682 5.403-4.546 3.8-8C179.282 75.812 177.284 79.824 178.552 83.052zM0.952 81.852c3.563-0.637 5.878-2.522 6-6.6C3.042 75.425 0.386 77.864 0.952 81.852zM169.952 79.452c-5.438 1.082-11.533-0.648-11.6 5.6 -0.075 6.929 5.845 6.146 12.4 5.2 0.786 0.147 0.118 1.748 1.2 1.6 0.289-0.411 0.386-4.234-0.6-4.6 -0.935-0.135 0.089 1.688-0.8 1.6 -2.854-0.155-6.135 1.563-8.6 0.6 -1.601-0.625-2.264-3.12-1.6-4.8 1.028-2.602 6.855-1.528 9.8-2.2 0.638 0.229-0.039 1.772 1.2 1.4 -0.002-1.466 0.172-4.837-0.8-6 -0.133 0-0.267 0-0.4 0C170.128 78.428 170.261 79.162 169.952 79.452zM0.552 88.252c3.307-0.826 5.561-2.706 5.4-7C2.427 81.668-0.599 84.465 0.552 88.252zM179.152 89.252c2.827-0.963 5.692-3.831 4.2-7.8C180.091 81.962 177.981 85.63 179.152 89.252zM0.552 94.852c3.117-0.849 5.4-3.489 4.8-7.4C1.977 87.893-1.079 91.347 0.552 94.852zM179.152 95.453c3.38-0.558 5.923-3.619 4.8-7.4C180.632 88.682 178.511 91.521 179.152 95.453zM163.952 104.252c1.074-0.459 1.256-1.811 2-2.601 -0.107 2.386 2.486 3.481 4.6 2.4 1.18-2.191 1.541-7.442 1.2-9.8 -1.096-0.296-0.272 1.328-1 1.399 -4.108-0.425-9.18 0.114-11.6-2C158.622 98.557 157.411 105.04 163.952 104.252zM4.552 93.852c-1.135 0.609-3.874 2.755-4.2 4.601 -0.624 3.524 1.584 3.178 3 1.8 1.59-1.548 2.713-3.969 2-6.4C5.085 93.852 4.819 93.852 4.552 93.852zM183.952 94.652c-3.19 0.816-5.782 3.277-5.2 7.2C182.143 101.269 185.169 98.552 183.952 94.652zM5.352 99.652c-2.637 0.965-5.461 4.486-3.6 8C4.669 106.961 7.032 102.998 5.352 99.652zM177.952 107.852c3.409-0.01 7.627-3.795 5.2-6.8C180.362 102.262 177.75 103.651 177.952 107.852zM2.152 112.052c0.681 5.603 7.25-4.075 4-6.2C4.474 105.708 1.883 109.843 2.152 112.052zM176.552 113.852c3.883-0.189 6.957-2.235 6.2-6.399C179.16 108.06 176.934 110.035 176.552 113.852zM5.152 120.252c2.114-1.3 4.169-5.735 2.2-8.601C5.099 112.875 1.929 117.849 5.152 120.252zM174.952 119.652c3.57 0.104 6.963-1.521 6.8-5.8C178.266 113.788 175.368 115.986 174.952 119.652zM21.752 119.052c-1.535 0.132-3.598-0.265-4.8 0.2 1.319 1.015 2.85 1.816 4 3 -0.628 1.571-1.232 3.168-1.8 4.8 1.854-0.746 3.045-2.155 4.8-3 1.372 1.095 2.755 2.178 4.4 3 -0.352-1.781-1.159-3.108-1.6-4.8 0.968-1.365 2.888-1.779 3.8-3.2 -1.667 0-3.333 0-5 0 -0.499-1.701-1.016-3.385-1.8-4.8C22.989 115.755 22.707 117.74 21.752 119.052zM159.152 120.052c-1.6 0-3.2 0-4.8 0 1.03 1.37 2.833 1.967 4 3.2 -0.693 1.507-1.288 3.111-1.8 4.8 1.716-0.817 3.067-1.999 4.6-3 1.507 1.027 2.881 2.186 4.6 3 -0.568-1.698-1.143-3.391-1.8-5 1.42-0.913 2.906-1.761 4-3 -1.667 0-3.333 0-5 0 -0.649-1.618-0.987-3.547-2-4.8C160.504 117.004 159.906 118.606 159.152 120.052zM5.752 124.052c0.925 6.865 7.03-4.981 3-6.4C7.629 118.94 5.362 121.158 5.752 124.052zM172.952 125.652c4.121-0.012 7-1.267 7-5.399C176.414 120.056 173.316 122.01 172.952 125.652zM11.352 123.852c-2.854 0.941-4.408 6.544-1.6 8.601C12.078 131.301 13.312 126.307 11.352 123.852zM206.752 162.652c1.667 0 3.333 0 5 0 0.133-5.133-0.266-10.8 0.2-15.6 9.839 0.901 15.449-3.36 15-12 -0.482-9.272-9.108-10.823-20-9.8C206.485 137.319 206.885 150.252 206.752 162.652zM232.552 125.252c-0.467 12.066-0.067 25-0.2 37.399 5.733 0 11.467 0 17.2 0 0-1.399 0-2.8 0-4.199 -4.067 0-8.133 0-12.2 0 0-11.067 0-22.134 0-33.2C235.752 125.252 234.152 125.252 232.552 125.252zM263.152 125.252c-4.694 12.039-8.43 25.036-12.8 37.399 1.667 0 3.333 0 5 0 1.073-3.26 1.814-6.853 3.2-9.8 4.6 0 9.2 0 13.8 0 0.917 3.35 1.944 6.589 3 9.8 1.667 0 3.333 0 5 0 -3.783-12.684-8.155-24.778-12-37.399C266.619 125.252 264.885 125.252 263.152 125.252zM284.952 125.252c-0.466 12.066-0.066 25-0.199 37.399 1.533 0 3.066 0 4.6 0 0.133-10-0.267-20.533 0.2-30.199 4.504 10.162 9.241 20.092 13.8 30.199 2 0 4 0 6 0 0-12.466 0-24.933 0-37.399 -1.533 0-3.066 0-4.6 0 -0.134 10.066 0.267 20.666-0.2 30.399 -4.456-10.276-9.184-20.282-13.8-30.399C288.819 125.252 286.885 125.252 284.952 125.252zM170.352 131.252c4.004 0.795 7.104-1.023 7.4-4.601C173.892 126 171.136 128.163 170.352 131.252zM11.152 132.852c-0.386 1.995 0.14 5.149 1.6 5.2 2.192 0.075 3.26-8.018 0.6-8.8C12.829 130.347 11.495 131.08 11.152 132.852zM167.552 136.852c3.836 0.741 7.989-0.919 7.4-4.6C171.737 132.238 167.929 133.363 167.552 136.852zM16.352 134.852c-2.268 1.642-3.331 7.755 0.2 8.8C18.152 141.975 18.855 136.097 16.352 134.852zM38.752 137.453c-2.455 2.545-5.487 4.513-8 7 1.374 2.6 3.037-1.227 4.8-1.801 1.175 1.158 2.278 2.389 3.2 3.801 0.597-0.004 0.68-0.521 1.2-0.601 -0.63-1.903-2.366-2.7-3.2-4.399 0.872-0.529 1.399-1.401 2.4-1.801 1.366 1.435 2.272 3.328 4 4.4 0.174-0.293 0.3-0.634 0.8-0.6C42.508 141.163 40.974 138.963 38.752 137.453zM164.352 142.052c3.794 0.651 7.889-0.104 7.8-4C168.5 137.542 164.877 138.771 164.352 142.052zM145.952 139.453c-0.112 0.288-0.312 0.487-0.6 0.6 0.493 2.906 1.417 5.384 1.8 8.4 0.703-0.036 0.658 0.675 1.2 0.8 1.011-1.123 1.959-2.308 3-3.4 0.929 0.736 2.256 2.483 2.8 0.4 -0.662-0.89-1.635-0.908-1.8-1.8 -0.05-0.272 1.83-1.377 0.2-1.801 -0.858-0.058-0.658 0.942-1.4 1C149.387 142.284 148.05 140.488 145.952 139.453zM19.352 140.052c-1.914 1.949-2.559 8.158 1 8.8C22.018 146.801 22.188 140.927 19.352 140.052zM160.752 147.052c3.294 1.205 7.979 0.271 8-3.6C164.928 142.72 161.428 143.976 160.752 147.052zM23.152 145.052c-2.062 1.819-2.12 8.386 1.2 8.8C26.276 151.576 25.718 146.197 23.152 145.052zM40.352 154.252c1.822 6.274 12.288 3.833 11.4-3.2 -0.329-2.602-3.019-4.774-6-4.4C42.289 147.087 39.374 150.883 40.352 154.252zM137.152 152.652c0.522 0.479 1.505 0.496 2.2 0.801 -0.958 5.585 6.874 4.538 7 0.199 0.049-1.694-1.302-3.927-3.8-3.199C143.551 144.084 133.265 148.269 137.152 152.652zM156.952 151.652c3.158 1.171 8.157 0.736 8.2-3C161.846 147.601 157.484 148.629 156.952 151.652zM29.152 158.652c1.375-2.602 0.851-7.509-1.8-8.399C25.035 152.234 25.649 158.47 29.152 158.652zM55.752 153.052c-0.493 2.842-4.825 5.472-4 9.4 0.368 1.751 2.667 3.507 5.2 3.199 3.745-0.453 4.214-5.854 6.4-8.399 -0.5-0.166-0.786-0.548-1.4-0.601 -2.207 1.814-2.34 6.989-5.4 7.4 -1.644 0.221-3.008-0.831-3.2-2.2 -0.435-3.093 3.601-5.644 4-8C56.723 153.681 56.508 153.096 55.752 153.052zM152.552 156.052c2.744 1.563 8.252 1.42 8.4-2.4C158.015 152.403 153.251 153.216 152.552 156.052zM130.752 159.252c-0.512 0.422-0.391 1.476-0.4 2.399 1.894 4.945 10.146 0.04 6.2-4.199 -0.635-0.366-1.49-0.511-2.2-0.801C135.098 148.511 122.722 157.224 130.752 159.252zM31.152 154.652c-1.359 3.24-0.534 8.021 2.8 8.4C35.168 160.092 34.449 154.974 31.152 154.652zM147.952 160.252c2.613 1.586 8.264 1.829 8.6-2C153.777 157.109 148.486 157.306 147.952 160.252zM122.552 158.052c-1.21-0.144-1.317 0.816-1.2 2 -0.404 0.95-2.14 0.875-1.6 2.2 0.915 0.556 1.586-0.613 2.6-0.601 0.859 2.274 2.04 4.228 2.8 6.601 0.75-0.051 1.286-0.314 1.6-0.8C125.279 164.392 123.83 161.308 122.552 158.052zM35.952 158.652c-1.31 2.956-0.655 8.301 3 8.2C40.276 163.891 38.753 159.4 35.952 158.652zM62.552 169.052c0.636 0.03 0.88 0.453 1.6 0.4 0.851-2.617 1.687-5.247 2.8-7.601 0.812 3.122 1.322 6.545 2.2 9.601 0.636 0.03 0.88 0.453 1.6 0.399 1.167-3.433 2.494-6.706 3.6-10.2 -0.398-0.269-0.952-0.381-1.4-0.6 -1.041 2.626-1.822 5.512-3 8 -0.374-3.427-1.412-6.188-1.8-9.6 -0.559-0.374-1.375-0.492-2-0.801C65.162 162.329 63.679 165.513 62.552 169.052zM143.152 164.052c2.329 1.443 8.121 2.442 8.6-1.4C149.644 161.049 143.685 161.132 143.152 164.052zM75.752 173.252c2.744 0.199 4.2 1.302 6.4 0.8 4.142-0.944 4.568-8.326 1.8-10.2 -1.644-1.112-4.102-0.635-6.4-1.399C77.117 166.217 76.408 169.708 75.752 173.252zM40.552 162.652c-0.717 3.898 0.326 7.64 3.8 8C45.269 167.213 44.027 162.978 40.552 162.652zM108.752 173.252c2.638-1.888 2.177-8.304-1-9.8 -2.536-1.194-4.022 0.398-7.2 0.399 0.545 3.722 1.28 7.253 2 10.8C104.903 174.046 107.198 174.365 108.752 173.252zM160.952 168.052c0.666 2.527 6.472 1.238 6.6 3.8 0.084 1.689-2.586 2.36-4.6 1.4 -0.658-0.409-0.404-1.729-1.2-2 -0.4 0-0.8 0-1.2 0 -0.543 6.686 11.244 3.916 8.2-1.2 -1.16-1.949-6.003-1.062-6.2-3.2 -0.092-0.995 0.758-1.65 1.6-1.8 2.503-0.443 2.463 1.536 3.6 2.2 0.333 0 0.667 0 1 0C169.384 162.153 159.451 162.39 160.952 168.052zM170.952 174.852c0.533 0 1.066 0 1.6 0 0.132-2.601-0.266-5.732 0.2-8 0.678 2.855 1.864 5.202 2.6 8 0.6 0 1.2 0 1.8 0 0.765-2.902 1.797-5.536 2.8-8.2 0 2.733 0 5.467 0 8.2 0.533 0 1.066 0 1.6 0 0-3.666 0-7.333 0-11 -0.8 0-1.6 0-2.4 0 -0.858 3.075-1.926 5.94-3 8.8 -0.857-3.009-2.026-5.707-2.8-8.8 -0.8 0-1.6 0-2.4 0C170.952 167.519 170.952 171.186 170.952 174.852zM89.552 175.052c2.607-0.26 6.257 0.523 8.2-0.4 0-0.267 0-0.533 0-0.8 -1.801-0.465-4.466-0.067-6.6-0.2 0.13-1.069-0.262-2.662 0.2-3.399 1.813-0.254 4.649 0.516 5.8-0.4 0-0.267 0-0.533 0-0.8 -1.601-0.465-4.065-0.067-6-0.2 0.13-1.003-0.262-2.528 0.2-3.2 1.945-0.255 4.917 0.518 6.2-0.399 0-0.267 0-0.533 0-0.8 -2.268-0.466-5.399-0.067-8-0.2C89.552 167.852 89.552 171.453 89.552 175.052zM138.152 167.252c1.597 2.083 7.887 2.803 8.6-0.601C145.007 164.971 139.014 164.393 138.152 167.252zM50.152 173.852c0.351-3.688-0.923-7.292-4.4-7.8C45.075 170.067 46.266 173.753 50.152 173.852zM132.952 170.252c1.512 2.13 7.527 3.483 8.6 0C139.943 168.593 134.119 167.222 132.952 170.252zM55.352 176.453c0.592-3.867-1.33-6.932-4.6-7.601C50.34 172.553 51.468 176.386 55.352 176.453zM127.152 172.852c1.017 2.37 7.203 4.037 8.6 0.8C134.369 171.789 128.921 170.177 127.152 172.852zM56.152 171.652c-0.359 3.701 1.086 7.308 5.2 7.2C61.212 174.859 59.799 172.139 56.152 171.652zM67.352 180.652c-0.34-3.793-2.097-6.169-5.6-6.8C61.537 178.074 63.418 181.245 67.352 180.652zM121.352 175.252c1.247 2.159 6.512 4.267 8.6 1.399C128.881 174.41 123.238 172.453 121.352 175.252zM115.552 177.052c1.142 2.371 5.892 4.583 8.4 2C123.053 176.648 117.719 174.48 115.552 177.052zM73.752 182.252c-0.795-3.405-2.086-6.313-6.4-6.2C67.683 179.707 69.995 183.338 73.752 182.252zM79.752 183.252c-0.961-3.239-2.468-5.933-6.8-5.8C73.417 180.955 75.839 184.519 79.752 183.252zM109.552 177.852c0.438 3.036 5.438 5.445 8.2 3C116.678 178.302 112.987 176.772 109.552 177.852zM78.952 179.052c0.411 3.112 3.515 6.541 6.8 4.8 -0.648-2.619-2.692-5.574-6.8-5.399C78.952 178.652 78.952 178.852 78.952 179.052zM103.552 179.052c0.557 2.813 5.203 5.837 8 3.2C110.509 179.765 107.043 177.782 103.552 179.052zM92.152 184.252c-1.137-2.996-2.96-5.307-7.4-5C85.301 182.557 88.448 186.055 92.152 184.252zM97.152 179.852c0.809 2.82 4.385 5.522 7.8 3.8C104.275 180.806 100.415 178.134 97.152 179.852zM90.952 179.652c0.472 3.345 4.203 6.122 7.6 4.601C97.612 181.252 94.997 178.882 90.952 179.652z"/>
  <path class="st2" d="M146.952 142.252c0.988 0.215 2.161 1.97 3.4 2.6 -0.64 0.827-1.447 1.486-2 2.4C147.759 145.711 147.607 143.73 146.952 142.252z"/>
</svg>