<svg xmlns="http://www.w3.org/2000/svg" viewBox="0 0 567 196"><g fill="#fff" fill-rule="evenodd"><path d="m95.75 5.452c-3.857.455-6.592-1.758-7.4-5 4.01-1.406 6.854 1.626 7.4 5"/><path d="m89.75 5.452c-4.03.697-6.742-1.472-7.8-4.4 3.416-2.16 7.095 1.297 7.8 4.4"/><path d="m101.95 5.852c-4.482.349-6.04-2.222-7.2-5.2 4.02-1.417 6.604 1.876 7.2 5.2"/><path d="m107.95 6.852c-4.077-.19-6.241-2.292-6.8-6 4.217-.743 6.198 2.463 6.8 6"/><path d="m83.55 5.852c-4.03.781-7.03-1.07-8-4 3.527-1.75 7.504.769 8 4"/><path d="m113.95 8.252c-3.777-.296-5.932-3.26-6.2-6.4 3.979-.571 6.231 2.297 6.2 6.4"/><path d="m77.15 6.652c-3.316 2.87-12.228-4.583-5.2-4.2 2.437.133 4.803 2.168 5.2 4.2"/><path d="m120.15 9.652c-3.782.574-5.818-3.375-6-6.4 3.892-.551 5.569 2.825 6 6.4"/><path d="m71.15 8.05c-3.253 1.424-7.202-.142-8.4-2.6 2.439-2.848 7.872-.244 8.4 2.6"/><path d="m125.75 12.05c-3.766-.307-5.651-3.541-5.4-7.2 3.852.348 5.542 2.858 5.4 7.2"/><path d="m65.15 9.252c-2.097 2.629-6.861.39-8.4-1.2 1.348-3.837 7.912-.619 8.4 1.2"/><path d="m131.15 14.652c-3.218-.636-5.59-4.068-4.6-7.6 3.483.457 5.342 3.583 4.6 7.6"/><path d="m59.35 11.452c-1.919 2.379-7.554.952-8.6-1.2 1.79-3.112 8.03-.928 8.6 1.2"/><path d="m136.75 17.452c-3.113-.034-5.05-4-4.6-7.6 3.98-.046 5.01 3.924 4.6 7.6"/><path d="m53.952 13.652c-1.235 2.938-7.178 1.778-8.8 0 1-3.481 7.266-1.764 8.8 0"/><path d="m93.55 12.252c.158 1.025-1.234.499-1.6 1-.921.471-1.109 1.218-2 2.2-.361.398-2.174 1.399-2.2 2-.027.63 2.228 2.384 2.8 3 1.092 1.176 2 2.064 2.8 3 .501.298 1.493.107 1.4 1-5.149 2.54-6.552-3.463-9.6-5.2.079 1.655.137 3.33.4 4.8.249.551 1.854-.253 1.6.8-1.319.75-4.555.643-6 .6-.316-1.184 1.051-.683 1.4-1.2-.064-3.536-.402-6.798-.6-10.2.088-.889-1.735.135-1.6-.8.001-1.084 1.554-.526 2.4-.6 1.366-.12 2.831-.391 3.6-.2.348 1.215-1.031.703-1.4 1.2-.175.958-.057 3.22.2 4.4 1.534-1.267 4.049-3.284 4.8-6 1.3.379 3.096-.696 3.6.2"/><path d="m96.55 12.05c3.111.556 6.54.793 9.8 1.2-.191 1.142.059 2.725-1 3-.789.122-.235-1.098-.4-1.6-1.063-.471-2.418-.648-4-.6-.713.954-.33 3-.8 4.2 1.167-.034 1.918.349 3.2.2.53-.203.013-1.454 1-1.2.628.608.094 3.393-.4 4.2-1.133.333-.258-1.342-.8-1.6-.856-.277-1.824-.442-3-.4-.362 1.372-.403 3.063-.6 4.6 1.085.448 2.654.413 4.2.4.79-.21.256-1.744 1.2-1.8-.037.17.078.188.2.2.798.406-.264 2.214-.2 3.2-3.428-.039-6.074-.859-9.4-1 2.09-2.51 1.716-7.483 2.2-11.6-.196-.471-1.154-.179-1.4-.6-.025-.358.245-.422.2-.8"/><path d="m142.15 21.05c-3.452-.421-4.622-4.169-4-8 3.566.335 4.734 4.02 4 8"/><path d="m113.35 14.852c1.271 3.796 2.855 7.278 4.4 10.8.933-2.201 1.489-4.778 2.4-7 .139-.881-1.867-.654-1.2-1.4.888-.587 3.481.494 4.4 1.2-.17-.037-.188.078-.2.2.139.772-.995.132-1.2 0-2.086 3.181-2.646 7.888-4.2 11.6-.537-.263-1.063-.537-1.6-.8-1.751-3.648-3.037-7.763-4.8-11.4-1.085 2.315-1.604 5.196-2.6 7.6.083.784 1.285.448 1.4 1.2-.17-.037-.188.078-.2.2-.642.458-4.117-.633-4.2-1.4.016-.927.907-.044 1.4-.2 1.557-2.844 2.251-6.549 3.4-9.8.109-1.043-1.358-.509-1.2-1.6 1.346-.499 2.452.847 4 .8"/><path d="m62.15 21.252c1.067 2.6 1.828 5.505 3 8 .7.281 1.28-.561 1.6 0 .122 1.405-2.739 1.334-4 2-.648.809-1.96 1.145-3 1.8-.84.53-1.718 1.91-2.6 1.2-.245-.912.702-.632.8-1.2-.228-1.105-1.5-1.167-2-2-1.387.747-2.563 1.704-4 2.4.386.814.267 2.133.8 2.8.824-.07 1.241-.951 1.8-.2-.91 1.065-2.895 2.822-4.2 2.2-.055-.722.791-.542.8-1.2-.425-4.508-1.402-8.464-2-12.8.467-.067.862-.205 1-.6 3.771 2.296 7.147 4.986 10.8 7.4 1.922-.167.913-.314 2.6-1-.78-3.887-2.15-7.183-3.6-10.4-.346.073-1.236.604-1.4.2.032-.232-.044-.355-.2-.4.778-.956 2.543-.923 3.6-1.6 3.303 1.964 6.682 3.852 10 5.8-.253-2.147-1.626-4.907-2.4-7.2-.868-.158-1.456.564-1.8-.2.877-1.013 3.066-1.703 4.4-1.6.247 1.113-1.137.597-1.2 1.4 1.273 3.727 2.5 7.5 4 11-2.251 1.545-4.919-1.267-7.2-2.6-2.085-1.219-4.165-2.128-5.6-3.2m-10.2 10.8c.79-.61 1.628-1.172 2.6-1.6-.887-1.246-2.326-1.941-3.6-2.8.433 1.367.393 3.208 1 4.4"/><path d="m48.35 16.852c-1.164 2.854-6.736 2.185-8.8.6.743-3.952 6.922-2.506 8.8-.6"/><path d="m146.95 24.652c-3.297-.57-3.753-3.98-3.6-8 3.921-.152 4.613 4.482 3.6 8"/><path d="m43.15 20.05c-.709 2.954-6.636 2.609-8.6 1 .554-3.494 6.744-2.969 8.6-1"/><path d="m129.75 21.452c.199 4.201 1.23 7.57 1.8 11.4 1.402-2.064 2.782-4.151 3.8-6.6-.094-.817-1.455-.589-.8-1.6 1.169.257 3.33 1.184 4 2.6-.558.534-.988-.188-1.6-.2-2.379 3.087-4.132 6.801-6.2 10.2-.748-.119-1.034-.699-1.6-1-.636-4.164-1.457-8.144-2-12.4-1.536 2.197-2.826 4.641-4.2 7-.255 1.081 1.552.852.8 1.8-.783.042-3.778-1.408-3.8-2.4.144-1 .819.364 1.6 0 1.957-2.843 3.575-6.02 5.4-9-.211-.742-1.571-.645-1-1.6 1.287-.185 2.411 1.431 3.8 1.8"/><path d="m151.55 28.852c-2.539.335-4.905-7.769-2.4-8.4 2.555-.644 4.376 6.144 2.4 8.4"/><path d="m38.15 23.652c-.565 2.883-6.499 3.02-8.6 1.4.885-3.147 6.227-3.336 8.6-1.4"/><path d="m155.95 33.05c-3.02-.477-3.809-5.96-2.2-8.6 3.335.623 3.887 5.746 2.2 8.6"/><path d="m33.552 27.452c-.48 3.165-5.901 3.646-8.6 2.2.442-3.301 5.765-3.631 8.6-2.2"/><path d="m140.75 28.652c2.652 2.081 5.231 4.236 7.6 6.6-.635.831-1.23 1.703-2.4 2-.474-.574.091-1.39.6-1.6-.59-.214-2.164-2.995-3-3-1.316-.008-1.503 2.513-3 3 .669.864 1.644 1.422 2.4 2.2.547-.171.987-1.113 1.6-.6-.072 1.224-1.59 2.655-2.8 3.4-.82-.63.13-.976.2-1.8-.475-.858-1.335-1.331-2-2-1.339.861-2.172 2.229-3.2 3.4.806 1.193 2.094 1.906 3.2 2.8.841-.206 1.229-1.313 2.2-.8.001.919-1.421 2.01-2.4 2.6-2.292-2.107-4.929-3.87-6.8-6.4.4 0 .8 0 1.2 0 2.559-2.375 4.73-5.136 7-7.8.037-1.098-1.301-1.082-.4-2"/><path d="m159.95 37.852c-2.599-.056-3.573-8.07-1.4-8.6 2.916-.712 3.395 7.235 1.4 8.6"/><path d="m44.15 32.852c-1.382.397-1.021-.764-2.4-.8-1.712-.045-3.354 1.697-3.8 2.8-1.148 2.841 1.525 7.01 4.8 7.4 3.734.451 4.757-2.393 6.8-4.8.675 3.381-2.989 6.721-6.2 7.2-5.01.749-8.327-3.48-7.8-7.6.409-3.196 3.633-6.02 6.4-7 .902-.317 1.876 1.67 2.2 2.8"/><path d="m29.15 31.852c-.379 3.08-5.05 3.797-8.2 2.8-.609-3.3 5.296-4.262 8.2-2.8"/><path d="m162.95 34.25c3.35.799 2.7 6.892.8 8.8-2.53-.977-3.039-7.06-.8-8.8"/><path d="m89.95 34.652c18.861-.898 33.748 6.947 43.2 16.4 9.83 9.83 18 21.927 18.8 40.8.816 19.377-6.499 33.71-16 43.601-9.926 10.331-22.939 17.639-41 18.399-19.228.811-33.375-6.723-43.4-16.2-10.483-9.91-17.612-22.53-18.6-41-1.034-19.312 6.339-33.11 15.8-43.4 9.293-10.111 22.253-17.699 41.2-18.601m-2.4 43c.961-13.206 2.529-26.08 4.2-38.4-.045-.155-.005-.395-.2-.4-1.896.931-7.87 8.704-10.2 8.6-2.913-.129-3.59-4.04-7-4.2 2.465 8.775 5.673 18.271 6.6 29.2.926 10.92 1.29 23.07.6 35.2-.729 12.823-3.083 26-3.8 38.2 2.565.743 3.907-5.03 6.2-4.8 1.341.138 2.994 3.754 3.8 5 1.369 2.116 2.31 3.755 4.4 4.6-1.64-13.923-4.901-27.989-5.6-43-.202-4.331-.817-12.596 3-12.8 1.419-.075 2.78 1.275 3.6 2.4 7.591 10.42 6.169 33.745 5.8 50.2 2.894-1.24 3.615-4.652 6.4-6 2.745 1.594 5.641 4.085 9.6 3.8-.552-2.227-2.16-3.931-3.2-6-1.069-2.126-2.041-4.45-3-6.8-4.678-11.466-5.348-26.828-11.6-36.801-.965-1.539-3.893-4.231-4-5.8-.103-1.502 1.539-4.128 2.4-6 5.924-12.872 12.94-23.915 20.6-34.4.469-.641 1.496-1.471 1.2-2.4-4.4-.267-6.75 1.517-10 2.4-2.814-2.186-3.271-6.729-6.8-8.2.211 15.422-3.693 28.2-7.6 39.2-1.311 3.69-2.489 7.737-5.4 10.2-1.175-4.185-.312-8.714 0-12.999m-26.6-23.8c-1.385-.215-1.034-2.166-2.6-2.2-3.178 20.804-6.126 41.53-14.8 56.6-1.252 2.175-3.11 3.931-3.8 6.399.966 1.305 3.093.528 5 .601 2.048 2.752 1.692 7.907 3.6 10.8.599-4.134 1.443-8.504 2.2-12.8.76-4.315.859-8.963 2.8-12.4 2.072-.043 4.591-.632 5.8.601.168 3.777.043 7.04.2 10.6.397 9.03-.271 18.04-1.2 25.6 2.838.24 2.623-2.675 5-2.399 1.467.17 3.168 3.279 4.4 4.8 1.578 1.947 2.955 3.944 4.4 4.8-3.255-17.482-7.932-39.08-7-61.2.568-13.486-.841-28.08 2.4-38.4-.011-.122-.03-.237-.2-.2-3.098 1.901-3.7 6.299-6.2 8.798m65 .2c-3.677 3.632-6.511 11.407-8.4 19-3.704 14.888-3.913 32.17.2 46.4 2.026 7.01 4.42 13.753 8.8 17.399 6.833-5.966 13.914-13.419 16.6-24.2-.565-.317-2.234-.317-2.8 0-3.818 7.516-6.939 15.729-13.6 20.4-5.082-18.603-4.792-46.45-2-67.4.333-2.501.286-5.643 1.8-7.2 1.871 1.296 3.19 3.603 4.2 5.8 3.222 7.01 4 16.233 6.2 24.2.766-5.5 1.659-10.875 3-15.8-.276-.391-.734.719-1.6.4-3.335-7.13-5.575-15.357-12.4-18.999"/><path d="m24.952 36.652c-.506 3.113-4.849 4.233-8.2 3.2.236-3.498 4.947-4.571 8.2-3.2"/><path d="m150.15 37.452c1.694 1.117 3.376 3.275 4 4.8-.726.626-1.088-.393-1.6-.6-3.01 1.854-5.295 4.438-8.2 6.4.894 1.106 1.635 2.365 2.8 3.2.97.087 1.496-1.057 2.4-.4.173 1.083-1.855 1.58-2.6 2.4-2.19-2.276-4.177-4.757-6-7.4.311-.329.933-.085 1.2.2 2.979-2.087 5.602-4.532 8.4-6.8-.212-.704-1.186-1.211-.4-1.8"/><path d="m167.15 48.25c-2.667-.314-2.596-8.381-.4-8.8 1.766-.337 2.492 2.904 2.2 5-.268 1.924-1.293 2.603-1.8 3.8"/><path d="m31.952 40.452c-.003.597-.52.68-.6 1.2 2.224 2.709 5.407 4.459 8 6.8 1.01-.192.995-1.434 2-.6-1.18 1.754-2.303 3.564-4 4.8-.719-.548-.064-.987.2-1.6-2.38-2.62-5.454-4.546-8.2-6.8-.609.162-.862 1.391-1.6.8.184-1.833 2.488-3.233 3.4-5 .546-.145.403.398.8.4"/><path d="m21.352 41.452c-.726 3.01-4.105 4.427-7.8 3.8-.538-3.501 4.662-5.183 7.8-3.8"/><path d="m170.35 44.852c3.308 1.52 1.626 6.928-.2 8.8-2.784-1.324-2.01-7.434.2-8.8"/><path d="m18.15 46.652c-.909 3.17-4.512 4.811-8 4.2.155-3.772 4.267-5.288 8-4.2"/><path d="m29.15 53.45c2.804-.008 6.146-.505 8-.8-.184 1.483-1.37 1.963-1.6 3.4-2.896-.096-5.245.355-8.2.2 2.639-3.395-3.359-6.373-4.2-2.4 2.557 2.177 5.941 3.526 8.8 5.4.783.107.8-1.586 1.6-.8.272 1.127-1.818 3.938-2.8 5.2-1.138-.049-.263-1.042-.2-1.6-2.583-2.15-5.975-3.492-8.8-5.4-.938.061-.946 1.435-2 .8 1.863-2.043 3.079-9.474 7.4-8.4 1.466.365 2.177 1.973 2 4.4"/><path d="m173.75 50.45c2.682 2.167 1.054 7.657-1.4 8.8-2.081-2.209-1.209-7.789 1.4-8.8"/><path d="m15.15 51.852c-.822 3.311-3.44 4.827-7.4 5-.839-3.349 3.307-5.928 7.4-5"/><path d="m166.15 63.25c-1.101.103-2.493.967-3.2.8-.402-1.412 1.113-1.083 1.4-2.2.677-2.638-1.924-5.128-3.8-5.4-2.871-.416-6.449 2.02-6.8 4.8-.344 2.727 1.476 4.214 3 6.4-3.137-.165-4.718-3.537-5-6.4-.169-1.719.354-3.7 1.2-4.8 4.443-5.774 13.764-.948 13.2 6.8"/><path d="m176.15 56.25c3.185 1.939.839 7.537-1.6 8.6-2.02-2.406-.641-7.43 1.6-8.6"/><path d="m12.352 57.45c-.332 3.522-3.851 5.808-7.2 5 .191-3.759 3.524-5.386 7.2-5"/><path d="m18.352 60.25c1.235.165 2.222.578 2.8 1.4.028 1.062-.965.187-1.6.2-.794 1.01-1.196 2.405-1.6 3.8.993.807 2.629.971 3.8 1.6.672-.662.608-2.059 1.2-2.8.002-.678-1.811-.576-1-1.4.667-.366 3.484.491 4 1.6-.186.577-.998.301-1.4 0-.962.505-1.116 1.817-1.4 3 1.288.645 2.824 1.042 4.2 1.6.716-1.017 1.155-2.312 1.4-3.8 0-1.134-1.641-.625-1.4-2 1.103-.444 2.127.764 3.2 1-.762 3.238-2.02 5.985-3.2 8.8-2.32-2.68-6.866-3.135-10.4-4.6-.948-.271-.67 1.716-1.4 1-.191-2.62 2.045-6.094 2.8-9.4"/><path d="m178.55 62.45c1.36.533 1.837 3.044 1.2 4.8-.793 2.185-3.633 5.548-4.2 1.8-.332-2.194 1.397-6.158 3-6.6"/><path d="m9.952 63.25c-.102 4.098-2.957 5.443-6.6 6-.628-4.04 2.781-5.746 6.6-6"/><path d="m167.15 65.45c1.026 1.292 2.088 4.51 1.6 6-.964.097-.622-1.111-1.2-1.4-3.228.973-6.596 1.804-9.8 2.8.066 1.734.747 2.853 1.2 4.2.673.126 1.857-.258 2.2.2-.18 1.353-2.143.923-3.4 1.2-.796-3-1.677-5.923-2.4-9 3.685 1.107 7.994-1.516 11.6-2.4-.192-.511-.401-1.389.2-1.6"/><path d="m177.55 77.05c-1.453-3.251.584-7.137 3-8.4 2.476 2.686.137 7.728-3 8.4"/><path d="m8.352 69.25c-.327 3.873-2.765 5.634-6.2 6.4-1.073-3.743 2.231-6.384 6.2-6.4"/><path d="m13.952 72.45c.133 0 .267 0 .4 0 .865-.132.065 1.401.6 1.6 3.309.624 6.719 1.147 10.4 1.4.569-.164.02-1.446.8-1.4 1.037.156.353 1.905.2 3-.154 1.1.064 2.962-1 3-.896.015.122-.741-.2-1.4-2.508-.825-5.792-.875-8.6-1.4 2.788 2.146 6.691 4.242 9 6.2-.787 1.258-3.114 1.66-4.8 2.2-1.755.563-3.672 1.125-5.4 1.6 2.17.963 5.481.785 8 1.4.762.085.535-1.852 1-1.4 1.267.511-.032 2.777 0 4.2.046 2.064 1.13 4.315.6 6.2-1.149.35-.479-1.121-1.2-1.199-.998.202-1.577.823-2.4 1.199.063 1.472.154 2.913.4 4.2.488.646 1.54.728 2.6.8.742-.058.083-1.517.8-1.6.65.979.813 3.414.6 4.6-3.302-2.764-8.731-3.401-13.4-4.8-.119-.414.247-1.313-.2-1.399 3.677-2.856 9.07-3.998 12-7.601-.618-.115-.703-.763-.6-1.6-3.039-.961-6.836-1.164-10.4-1.6-.842.024-.124 1.609-1.2 1.4-.853-.96.426-3.144.2-4.8 3.306-.761 6.071-2.063 9.4-2.8-2.483-2.117-5.461-3.739-8.2-5.6.183-1.484.457-2.876.6-4.4m2.2 28c1.361.438 2.765.835 4.2 1.199-.028-1.238-.092-2.441-.4-3.399-1.183.817-2.634 1.366-3.8 2.2"/><path d="m58.55 72.852c.232-.032.355.044.4.2.353 7.247.146 15.05.2 22.6-1.846.108-3.901-.17-5.2 0 1.387-7.746 3.214-15.05 4.6-22.8"/><path d="m473.75 75.25c0 1.6 0 3.2 0 4.8-4.01-2.515-9.717-2.111-12.801-.2-8.269 5.126-7.65 22.828.801 27 3.088 1.524 9.1 1.377 11.8-.8.465 1.269.068 3.398.2 5-3.171.882-6.02 1.333-9.601 1-18.702-1.742-18.929-36.05 0-38 3.708-.383 6.897.163 9.601 1.2"/><path d="m206.95 74.25c11.01-.704 19.5.377 20 10 .455 8.758-5.123 12.77-15.2 12 0 5.2 0 10.399 0 15.6-1.667 0-3.333 0-5 0 .133-12.467-.267-25.466.2-37.6m13.8 15.4c3.843-5.675-1.334-13.364-8.8-11.2-.466 4.2-.067 9.267-.2 13.8 3.659-.109 7.248-.013 9-2.6"/><path d="m249.95 74.25c0 1.466 0 2.933 0 4.4-4.2 0-8.4 0-12.6 0 0 3.867 0 7.733 0 11.6 4 0 8 0 12 0 0 1.4 0 2.8 0 4.2-3.934 0-7.867 0-11.8 0-.467 3.934-.067 8.732-.2 13 4.4 0 8.8 0 13.2 0 0 1.466 0 2.933 0 4.399-6.067 0-12.133 0-18.2 0 .133-12.467-.267-25.466.2-37.6 5.8.0001 11.6.0001 17.4.0001"/><path d="m275.95 74.25c0 1.466 0 2.933 0 4.4-2.867 0-5.733 0-8.6 0 0 11.07 0 22.13 0 33.2-1.6 0-3.2 0-4.8 0 0-11 0-22 0-33-2.468-.466-5.8-.067-8.6-.2.131-1.402-.264-3.331.2-4.4 7.266 0 14.534 0 21.8 0"/><path d="m298.55 74.25c0 5.267 0 10.533 0 15.8 3.8.466 8.466.067 12.6.2.467-4.934.067-10.733.2-16 1.6 0 3.2 0 4.8 0 0 12.533 0 25.07 0 37.6-1.6 0-3.2 0-4.8 0 0-5.8 0-11.6 0-17.399-4.267 0-8.533 0-12.8 0 0 5.8 0 11.6 0 17.399-1.667 0-3.334 0-5 0 .133-12.467-.267-25.466.2-37.6 1.6 0 3.2 0 4.8 0"/><path d="m341.75 74.25c0 1.466 0 2.933 0 4.4-4.2 0-8.4 0-12.601 0 0 3.867 0 7.733 0 11.6 4 0 8 0 12 0 0 1.4 0 2.8 0 4.2-3.934 0-7.866 0-11.8 0-.467 3.934-.066 8.732-.2 13 4.4 0 8.8 0 13.2 0 0 1.466 0 2.933 0 4.399-6.07 0-12.134 0-18.2 0 .134-12.467-.267-25.466.2-37.6 5.801.0001 11.601.0001 17.401.0001"/><path d="m362.95 74.25c4.088 12.513 8.302 24.898 12.2 37.6-1.666 0-3.333 0-5 0-1.077-3.189-2.1-6.434-3-9.8-4.6 0-9.2 0-13.8 0-1.447 2.886-2.184 6.483-3.2 9.8-1.666 0-3.333 0-5 0 4.228-12.572 8.245-25.354 12.8-37.6 1.667 0 3.334 0 5 0m-8.4 23.6c3.733 0 7.467 0 11.2 0-1.805-6.06-3.561-12.172-5.601-18-1.898 5.968-3.914 11.818-5.599 18"/><path d="m384.35 74.25c0 11.07 0 22.13 0 33.2 4.066 0 8.134 0 12.2 0 0 1.466 0 2.933 0 4.399-5.667 0-11.334 0-17 0 .133-12.467-.267-25.466.2-37.6 1.534.0001 3.067.0001 4.6.0001"/><path d="m416.15 74.25c0 1.466 0 2.933 0 4.4-2.8 0-5.6 0-8.399 0-.467 10.667-.067 22.2-.2 33.2-1.667 0-3.334 0-5 0 0-11 0-22 0-33-2.401-.466-5.666-.067-8.4-.2.132-1.402-.264-3.331.2-4.4 7.266 0 14.532 0 21.799 0"/><path d="m425.75 74.25c0 5.333 0 10.667 0 16 4.267 0 8.533 0 12.8 0 .466-4.934.066-10.733.2-16 1.6 0 3.199 0 4.8 0 0 12.533 0 25.07 0 37.6-1.601 0-3.2 0-4.8 0 0-5.8 0-11.6 0-17.399-4.267 0-8.534 0-12.801 0-.466 5.399-.066 11.666-.199 17.399-1.601 0-3.2 0-4.801 0 .134-12.467-.267-25.466.2-37.6 1.534 0 3.067 0 4.601 0"/><path d="m494.35 74.25c3.966 12.634 8.18 25.02 12.2 37.6-1.733 0-3.467 0-5.2 0-.936-3.331-1.966-6.567-3-9.8-4.6 0-9.2 0-13.8 0-1.309 3.03-2.048 6.618-3.2 9.8-1.6 0-3.2 0-4.8 0 4.075-12.657 8.197-25.27 12.6-37.6 1.733 0 3.467 0 5.2 0m-8.6 23.6c3.733-.133 7.999.267 11.399-.2-2.151-5.782-3.582-12.284-5.8-18-1.668 6.265-3.796 12.07-5.599 18.2"/><path d="m524.35 93.05c3.822 1.238 4.323 6.176 5.8 10.4 1.024 2.929 2.267 5.765 3 8.399-1.8 0-3.6 0-5.399 0-.682-2.41-1.728-5.558-2.801-8.8-1.489-4.502-2.34-9.04-9-8.2-.466 5.267-.066 11.4-.199 17-1.667 0-3.334 0-5 0 .133-12.467-.267-25.466.199-37.6 9.8-.507 19.14-.417 20.2 8.2.647 5.241-2.166 9.553-6.8 10.601m.6-12.6c-1.68-2.048-4.863-2.112-9-2-.466 3.734-.066 8.333-.199 12.4 7.926 2.207 13.191-5.532 9.199-10.4"/><path d="m555.95 74.25c0 1.466 0 2.933 0 4.4-4.199 0-8.399 0-12.6 0 0 3.8 0 7.6 0 11.4 3.601.466 8.07.067 12 .2 0 1.4 0 2.8 0 4.2-3.934 0-7.866 0-11.8 0-.467 3.866-.067 8.6-.2 12.8 4.067.466 9 .066 13.4.2 0 1.466 0 2.933 0 4.399-6.067 0-12.134 0-18.2 0 .133-12.467-.267-25.466.2-37.6 5.734.0001 11.466.0001 17.2.0001"/><path d="m182.35 75.05c1.604 3.454-.723 7.318-3.8 8-1.268-3.228.73-7.24 3.8-8"/><path d="m6.952 75.25c-.122 4.078-2.438 5.962-6 6.6-.566-3.988 2.09-6.427 6-6.6"/><path d="m170.15 77.852c.133 0 .267 0 .4 0 .972 1.163.798 4.534.8 6-1.239.373-.562-1.171-1.2-1.4-2.945.672-8.771-.401-9.8 2.2-.664 1.68 0 4.175 1.6 4.8 2.465.963 5.746-.755 8.6-.6.889.089-.135-1.735.8-1.6.986.365.889 4.188.6 4.6-1.082.148-.414-1.452-1.2-1.6-6.555.946-12.475 1.729-12.4-5.2.067-6.248 6.163-4.518 11.6-5.6.309-.29.176-1.024.2-1.6"/><path d="m5.952 81.25c.161 4.294-2.093 6.174-5.4 7-1.151-3.787 1.875-6.584 5.4-7"/><path d="m183.35 81.45c1.492 3.969-1.373 6.837-4.2 7.8-1.171-3.622.939-7.29 4.2-7.8"/><path d="m5.352 87.45c.6 3.911-1.683 6.551-4.8 7.4-1.631-3.505 1.425-6.959 4.8-7.4"/><path d="m183.95 88.05c1.123 3.782-1.42 6.843-4.8 7.4-.641-3.931 1.48-6.77 4.8-7.4"/><path d="m159.15 93.65c2.42 2.114 7.492 1.575 11.6 2 .728-.071-.096-1.695 1-1.399.341 2.357-.02 7.608-1.2 9.8-2.114 1.081-4.707-.015-4.6-2.4-.744.79-.926 2.142-2 2.601-6.541.786-5.33-5.697-4.8-10.602m1 4c-1.912 4.504 6.1 4.854 5.2.4-1.934.068-3.386-.347-5.2-.4m6.4.6c-.445.863-.028 1.829.2 2.6.672.462 1.533.734 2.8.601.572-.694 1.121-1.412 1-2.801-1.359-.108-2.641-.292-4-.4"/><path d="m5.352 93.85c.713 2.432-.41 4.853-2 6.4-1.416 1.378-3.624 1.725-3-1.8.327-1.846 3.065-3.991 4.2-4.601.267.0001.533.0001.8.0001"/><path d="m178.75 101.85c-.582-3.923 2.01-6.384 5.2-7.2 1.217 3.9-1.809 6.617-5.2 7.2"/><path d="m1.752 107.65c-1.861-3.514.963-7.03 3.6-8 1.68 3.346-.683 7.309-3.6 8"/><path d="m183.15 101.05c2.428 3-1.791 6.79-5.2 6.8-.202-4.201 2.41-5.59 5.2-6.8"/><path d="m6.152 105.85c3.25 2.125-3.319 11.803-4 6.2-.269-2.209 2.322-6.344 4-6.2"/><path d="m182.75 107.45c.757 4.164-2.317 6.21-6.2 6.399.382-3.817 2.608-5.792 6.2-6.399"/><path d="m7.352 111.65c1.969 2.865-.086 7.301-2.2 8.601-3.223-2.404-.053-7.378 2.2-8.601"/><path d="m181.75 113.85c.164 4.279-3.229 5.903-6.8 5.8.416-3.666 3.314-5.864 6.8-5.8"/><path d="m23.752 114.25c.785 1.415 1.301 3.099 1.8 4.8 1.667 0 3.333 0 5 0-.913 1.421-2.832 1.835-3.8 3.2.441 1.691 1.248 3.02 1.6 4.8-1.645-.822-3.03-1.905-4.4-3-1.755.845-2.947 2.254-4.8 3 .568-1.632 1.172-3.229 1.8-4.8-1.15-1.184-2.681-1.985-4-3 1.202-.465 3.265-.068 4.8-.2.955-1.312 1.237-3.297 2-4.8"/><path d="m160.95 115.25c1.013 1.253 1.351 3.182 2 4.8 1.667 0 3.333 0 5 0-1.094 1.239-2.58 2.087-4 3 .657 1.609 1.231 3.302 1.8 5-1.719-.814-3.093-1.973-4.6-3-1.532 1-2.884 2.183-4.6 3 .512-1.688 1.107-3.293 1.8-4.8-1.167-1.233-2.97-1.83-4-3.2 1.6 0 3.2 0 4.8 0 .754-1.446 1.352-3.048 1.8-4.8"/><path d="m8.752 117.65c4.03 1.419-2.075 13.266-3 6.4-.39-2.894 1.877-5.112 3-6.4"/><path d="m179.95 120.25c0 4.133-2.879 5.388-7 5.399.364-3.641 3.462-5.595 7-5.399"/><path d="m9.752 132.45c-2.808-2.057-1.254-7.659 1.6-8.601 1.96 2.455.726 7.449-1.6 8.601"/><path d="m206.95 125.25c10.892-1.023 19.518.527 20 9.8.449 8.64-5.161 12.901-15 12-.466 4.8-.067 10.467-.2 15.6-1.667 0-3.333 0-5 0 .133-12.4-.267-25.333.2-37.4m13.8 15.201c3.685-5.441-.861-13.188-8.8-11.2-.466 4.2-.067 9.267-.2 13.8 4.14.001 7.376-.203 9-2.6"/><path d="m237.35 125.25c0 11.07 0 22.13 0 33.2 4.067 0 8.133 0 12.2 0 0 1.399 0 2.8 0 4.199-5.733 0-11.467 0-17.2 0 .133-12.399-.267-25.333.2-37.4 1.6 0 3.2 0 4.8 0"/><path d="m268.35 125.25c3.845 12.621 8.217 24.716 12 37.4-1.667 0-3.333 0-5 0-1.056-3.211-2.083-6.45-3-9.8-4.6 0-9.2 0-13.8 0-1.386 2.947-2.127 6.54-3.2 9.8-1.667 0-3.333 0-5 0 4.37-12.363 8.106-25.36 12.8-37.4 1.733 0 3.467 0 5.2 0m-8.6 23.4c3.733 0 7.467 0 11.2 0-1.769-6.164-3.636-12.23-5.6-18.199-1.749 6.183-3.877 11.989-5.6 18.199"/><path d="m290.75 125.25c4.616 10.117 9.344 20.12 13.8 30.399.467-9.733.066-20.333.2-30.399 1.533 0 3.066 0 4.6 0 0 12.467 0 24.934 0 37.4-2 0-4 0-6 0-4.559-10.11-9.296-20.04-13.8-30.2-.467 9.666-.067 20.2-.2 30.2-1.533 0-3.066 0-4.6 0 .133-12.399-.267-25.333.199-37.4 1.934 0 3.868 0 5.801 0"/><path d="m177.75 126.65c-.296 3.577-3.396 5.396-7.4 4.601.784-3.09 3.54-5.253 7.4-4.601"/><path d="m13.352 129.25c2.66.782 1.592 8.875-.6 8.8-1.46-.051-1.986-3.205-1.6-5.2.343-1.772 1.677-2.505 2.2-3.6"/><path d="m174.95 132.25c.589 3.681-3.564 5.341-7.4 4.6.377-3.489 4.185-4.614 7.4-4.6"/><path d="m16.552 143.65c-3.531-1.045-2.468-7.158-.2-8.8 2.503 1.245 1.8 7.123.2 8.8"/><path d="m43.952 143.45c-.5-.034-.626.307-.8.6-1.728-1.072-2.634-2.966-4-4.4-1 .399-1.528 1.271-2.4 1.801.834 1.699 2.57 2.496 3.2 4.399-.52.08-.603.597-1.2.601-.921-1.412-2.024-2.643-3.2-3.801-1.764.574-3.426 4.4-4.8 1.801 2.513-2.487 5.545-4.455 8-7 2.222 1.509 3.756 3.709 5.2 5.999"/><path d="m172.15 138.05c.089 3.896-4.01 4.651-7.8 4 .525-3.281 4.148-4.51 7.8-4"/><path d="m151.15 143.65c.743-.058.542-1.058 1.4-1 1.629.424-.25 1.528-.2 1.801.165.892 1.138.91 1.8 1.8-.543 2.083-1.871.336-2.8-.4-1.041 1.093-1.989 2.277-3 3.4-.542-.125-.498-.836-1.2-.8-.383-3.02-1.307-5.494-1.8-8.4.288-.112.488-.312.6-.6 2.098 1.035 3.435 2.831 5.2 4.199m-2.8 3.6c.553-.914 1.36-1.573 2-2.4-1.239-.63-2.412-2.385-3.4-2.6.655 1.478.807 3.459 1.4 5"/><path d="m20.352 148.85c-3.559-.642-2.914-6.851-1-8.8 2.836.875 2.666 6.749 1 8.8"/><path d="m168.75 143.45c-.021 3.87-4.706 4.805-8 3.6.676-3.077 4.176-4.333 8-3.6"/><path d="m24.352 153.85c-3.32-.414-3.262-6.98-1.2-8.8 2.566 1.145 3.124 6.524 1.2 8.8"/><path d="m45.752 146.65c2.981-.374 5.671 1.799 6 4.4.888 7.03-9.578 9.475-11.4 3.2-.978-3.369 1.937-7.165 5.4-7.6m-.4 9.801c4.908.104 6.712-9.152.6-8.2-4.59.714-5.689 8.091-.6 8.2"/><path d="m142.55 150.45c2.498-.728 3.849 1.505 3.8 3.199-.126 4.339-7.958 5.386-7-.199-.695-.305-1.678-.322-2.2-.801-3.887-4.383 6.399-8.568 5.4-2.199m-4.6-.201c-.142 4.807 6.252-1.898 1.8-1.601-1.145.078-1.767.492-1.8 1.601m4.4 5.6c2.661.305 3.313-4.106.6-4-2.811.11-3.196 3.703-.6 4"/><path d="m165.15 148.65c-.043 3.736-5.04 4.171-8.2 3 .532-3.02 4.894-4.051 8.2-3"/><path d="m27.352 150.25c2.651.891 3.175 5.798 1.8 8.399-3.503-.181-4.117-6.417-1.8-8.399"/><path d="m57.35 153.85c-.399 2.356-4.435 4.907-4 8 .192 1.369 1.557 2.421 3.2 2.2 3.06-.411 3.193-5.586 5.4-7.4.614.053.899.435 1.4.601-2.186 2.546-2.655 7.946-6.4 8.399-2.534.308-4.832-1.448-5.2-3.199-.825-3.929 3.507-6.559 4-9.4.756.043.971.628 1.6.799"/><path d="m160.95 153.65c-.148 3.82-5.656 3.964-8.4 2.4.699-2.836 5.463-3.649 8.4-2.4"/><path d="m134.35 156.65c.71.29 1.565.435 2.2.801 3.945 4.239-4.306 9.145-6.2 4.199.009-.924-.112-1.978.4-2.399-8.03-2.029 4.346-10.742 3.6-2.601m-1.2-.8c-.462-3.037-5.743.482-2.8 2 2.109.14 2.949-1.022 2.8-2m.2 6.4c2.929.524 3.967-4.708.2-3.8-2.341.564-1.927 3.491-.2 3.8"/><path d="m33.952 163.05c-3.334-.379-4.16-5.16-2.8-8.4 3.297.322 4.02 5.44 2.8 8.4"/><path d="m156.55 158.25c-.336 3.829-5.987 3.586-8.6 2 .534-2.946 5.825-3.143 8.6-2"/><path d="m126.75 167.45c-.314.485-.851.749-1.6.8-.76-2.373-1.94-4.326-2.8-6.601-1.014-.013-1.686 1.156-2.6.601-.54-1.325 1.196-1.25 1.6-2.2-.117-1.184-.001-2.144 1.2-2 1.278 3.255 2.727 6.339 4.2 9.4"/><path d="m38.952 166.85c-3.655.101-4.31-5.244-3-8.2 2.801.748 4.324 5.239 3 8.2"/><path d="m66.15 158.65c.625.309 1.441.427 2 .801.388 3.411 1.427 6.173 1.8 9.6 1.178-2.488 1.959-5.374 3-8 .448.219 1 .331 1.4.6-1.106 3.494-2.433 6.768-3.6 10.2-.72.054-.964-.369-1.6-.399-.877-3.056-1.388-6.479-2.2-9.601-1.113 2.354-1.95 4.983-2.8 7.601-.72.053-.964-.37-1.6-.4 1.127-3.541 2.61-6.725 3.6-10.402"/><path d="m151.75 162.65c-.479 3.843-6.271 2.844-8.6 1.4.533-2.92 6.492-3 8.6-1.4"/><path d="m77.55 162.45c2.298.765 4.756.287 6.4 1.399 2.768 1.874 2.341 9.256-1.8 10.2-2.2.502-3.656-.601-6.4-.8.656-3.544 1.365-7.03 1.8-10.799m.2 9.799c4.555 2.446 7.975-3.298 5.8-6.601-.841-1.276-2.649-1.104-4.6-1.399-.247 2.82-1.023 5.111-1.2 8"/><path d="m44.35 170.65c-3.474-.36-4.517-4.102-3.8-8 3.475.326 4.717 4.561 3.8 8"/><path d="m102.55 174.65c-.72-3.547-1.455-7.078-2-10.8 3.178-.0001 4.664-1.594 7.2-.399 3.177 1.496 3.638 7.912 1 9.8-1.554 1.112-3.849.793-6.2 1.399m5-2.4c2.101-1.361 1.318-6.01-.2-7.2-1.387-1.083-2.926-.256-5 0 .603 2.597.926 5.474 1.6 8 1.426-.623 2.486-.079 3.6-.8"/><path d="m168.75 167.25c-.333 0-.667 0-1 0-1.137-.664-1.097-2.644-3.6-2.2-.841.149-1.691.805-1.6 1.8.197 2.139 5.04 1.251 6.2 3.2 3.044 5.116-8.743 7.886-8.2 1.2.4 0 .8 0 1.2 0 .796.271.542 1.591 1.2 2 2.01.96 4.685.289 4.6-1.4-.128-2.562-5.934-1.272-6.6-3.8-1.501-5.662 8.432-5.899 7.8-.8"/><path d="m170.95 163.85c.8 0 1.6 0 2.4 0 .774 3.093 1.942 5.791 2.8 8.8 1.074-2.859 2.142-5.725 3-8.8.8 0 1.6 0 2.4 0 0 3.667 0 7.334 0 11-.534 0-1.067 0-1.6 0 0-2.733 0-5.467 0-8.2-1 2.664-2.036 5.298-2.8 8.2-.6 0-1.2 0-1.8 0-.736-2.798-1.922-5.145-2.6-8-.466 2.268-.067 5.399-.2 8-.534 0-1.067 0-1.6 0 0-3.666 0-7.333 0-11"/><path d="m89.55 164.25c2.601.133 5.732-.266 8 .2 0 .267 0 .533 0 .8-1.283.917-4.255.145-6.2.399-.462.672-.07 2.197-.2 3.2 1.935.133 4.399-.265 6 .2 0 .267 0 .533 0 .8-1.151.916-3.986.146-5.8.4-.462.737-.07 2.33-.2 3.399 2.134.133 4.799-.265 6.6.2 0 .267 0 .533 0 .8-1.943.924-5.593.141-8.2.4 0-3.597 0-7.198 0-10.798"/><path d="m146.75 166.65c-.713 3.403-7 2.684-8.6.601.862-2.86 6.855-2.282 8.6-.601"/><path d="m45.752 166.05c3.477.508 4.751 4.111 4.4 7.8-3.886-.099-5.077-3.785-4.4-7.8"/><path d="m141.55 170.25c-1.073 3.483-7.088 2.13-8.6 0 1.167-3.03 6.991-1.659 8.6 0"/><path d="m50.752 168.85c3.271.669 5.192 3.733 4.6 7.601-3.884-.067-5.01-3.9-4.6-7.601"/><path d="m135.75 173.65c-1.397 3.237-7.583 1.57-8.6-.8 1.769-2.675 7.217-1.063 8.6.8"/><path d="m61.35 178.85c-4.114.107-5.56-3.499-5.2-7.2 3.647.487 5.06 3.207 5.2 7.2"/><path d="m61.752 173.85c3.503.631 5.26 3.01 5.6 6.8-3.934.593-5.815-2.578-5.6-6.8"/><path d="m129.95 176.65c-2.088 2.867-7.354.76-8.6-1.399 1.886-2.8 7.529-.843 8.6 1.399"/><path d="m123.95 179.05c-2.508 2.583-7.258.371-8.4-2 2.167-2.572 7.501-.404 8.4 2"/><path d="m67.35 176.05c4.313-.113 5.605 2.795 6.4 6.2-3.757 1.086-6.069-2.545-6.4-6.2"/><path d="m72.952 177.45c4.332-.133 5.839 2.561 6.8 5.8-3.913 1.266-6.335-2.298-6.8-5.8"/><path d="m117.75 180.85c-2.761 2.445-7.762.036-8.2-3 3.435-1.08 7.126.45 8.2 3"/><path d="m78.952 178.45c4.108-.175 6.151 2.78 6.8 5.399-3.285 1.741-6.389-1.688-6.8-4.8 0-.2 0-.4 0-.599"/><path d="m111.55 182.25c-2.797 2.637-7.443-.388-8-3.2 3.491-1.27 6.957.713 8 3.2"/><path d="m84.75 179.25c4.44-.307 6.263 2 7.4 5-3.704 1.803-6.851-1.695-7.4-5"/><path d="m104.95 183.65c-3.416 1.723-6.991-.979-7.8-3.8 3.263-1.718 7.123.954 7.8 3.8"/><path d="m98.55 184.25c-3.397 1.521-7.128-1.256-7.6-4.601 4.045-.769 6.66 1.601 7.6 4.601"/></g></svg>