<?xml version="1.0" encoding="utf-8"?>
<!-- Generated by IcoMoon.io -->
<!DOCTYPE svg PUBLIC "-//W3C//DTD SVG 1.1//EN" "http://www.w3.org/Graphics/SVG/1.1/DTD/svg11.dtd">
<svg version="1.1" xmlns="http://www.w3.org/2000/svg" xmlns:xlink="http://www.w3.org/1999/xlink" width="64" height="64" viewBox="0 0 64 64">
<g>
</g>
	<path d="M8 58c0-3.314 2.686-6 6-6s6 2.686 6 6c0 3.314-2.686 6-6 6-3.314 0-6-2.686-6-6zM48 58c0-3.314 2.686-6 6-6s6 2.686 6 6c0 3.314-2.686 6-6 6-3.314 0-6-2.686-6-6zM60 32v-24h-52c0-4.418-3.582-8-8-8v4c2.206 0 4 1.794 4 4l3.005 25.753c-1.831 1.466-3.005 3.719-3.005 6.247 0 4.418 3.582 8 8 8h48v-4h-48c-2.209 0-4-1.791-4-4 0-0.014 0.001-0.027 0.001-0.041l51.999-7.959z" fill="#000000" />
</svg>
