<svg xmlns="http://www.w3.org/2000/svg" viewBox="0 0 64 64"><path d="m63.42 51.42c0 0-.0001-.0001-.0001-.0001l-19.415-19.416 19.415-19.416c0 0 .0001 0 .0001-.0001.209-.209.36-.453.457-.713.265-.711.114-1.543-.458-2.114l-9.172-9.172c-.572-.572-1.403-.723-2.114-.458-.26.097-.504.248-.714.457 0 0 0 0-.0001.0001l-19.416 19.416-19.416-19.416c0 0 0 0-.0001-.0001-.209-.209-.453-.36-.713-.457-.711-.266-1.543-.114-2.114.457l-9.172 9.172c-.572.572-.723 1.403-.458 2.114.097.26.248.505.457.713 0 0 0 0 .0001.0001l19.416 19.416-19.416 19.416c0 0 0 0 0 .0001-.209.209-.36.453-.457.713-.266.711-.114 1.543.458 2.114l9.172 9.172c.572.572 1.403.723 2.114.458.26-.097.504-.248.713-.457l19.417-19.417 19.416 19.416c0 0 .0001 0 .0001.0001.209.209.453.36.713.457.711.265 1.543.114 2.114-.458l9.172-9.172c.572-.572.723-1.403.458-2.114-.097-.26-.248-.504-.457-.713"/></svg>