<svg xmlns="http://www.w3.org/2000/svg" viewBox="0 0 136 122" enable-background="new 0 0 136 122"><g fill="#fdffff"><path d="m132.53 61.784c-5 0-10.9-2.6-12.7-5.8-.9-1.5-2.3-5.6-3.2-9.2-3.1-12.1-9.4-19.7-18.8-22.5-6.7-2-17.3-1.9-37.9.1-9.2.9-18.2 1.4-20.1 1-1.9-.3-5.3-2.2-7.5-4.1l-4.1-3.5 2.9-3.1c1.6-1.7 2.9-4.1 2.9-5.3 0-2.3-3.8-6.5-7.7-8.5-2.1-1.1-3.4-1.1-10.3-.4-6.4.6-8 1.3-12 4.9-5.4 4.9-5.4 8 .2 12.8 3 2.6 4.4 3.3 4.9 2.4.7-1 1.1-1 2.1 0 1.2 1.2 1.7 3.7 4.3 23.5 1.2 9.7 2.1 13 5.1 19 3.5 6.8 3.8 8.4 5.8 26.5 2.1 18.6 2.1 19.4.4 22-2.3 3.5-2.3 6.2 0 6.2.9 0 2.3.9 3 2.1 1.1 1.6 2.1 2 6 1.7 0 0 2.57.188 3.784.092 1.214-.096 2.228-2.035 2.292-2.517.563-4.271-.833-6.02-1.25-8.26-.405-2.175 1.7-39.14 3.938-42.12.17-.226 2.438-1.4 5.237-2 7.5-1.4 14.4-4.6 21.9-10.2 7.1-5.2 8.7-5.6 12-3.3 1.9 1.3 8.6 13.1 16.9 29.6 5.4 10.6 6.8 22.8 3.3 27.3-3.2 4.1-2.2 6 3.3 6.4 5.7.4 5.5.9 6.1-16.2.4-10.4.2-12.5-1.6-16.5-2.9-6.6-3.6-22.9-1.2-30.1l1.8-5.3 2.6 5.4c1.4 2.9 3.7 6.1 5.1 7.1 3 2.1 16 3.7 16 1.9-.0001-.6-1.501-1.1-3.501-1.1m-99.83 17.5c0 0-.419-5.404-.25-7.708.07-.96.677-2.135.677-.823.0001 2.96-.32 7.785-.427 8.531"/><path d="m81.03 47.659c1.961 1.204 5.223 13.808 14.328 29.878 5.917 10.32 7.917 22.436 4.644 27.1-2.993 4.253-1.901 6.101 3.612 6.229 5.712.118 5.538.627 5.292-16.481-.113-10.407-.417-12.495-2.412-16.401-3.223-6.449-4.727-22.694-2.686-30"/></g></svg>