<svg xmlns="http://www.w3.org/2000/svg" viewBox="0 0 64 64" enable-background="new 0 0 64 64"><path d="m.05 54.35c-.015-.158-.028-.316-.036-.477.008.16.021.318.036.477m14.694-19.03c5.751.171 9.608-5.794 8.616-13.325-.993-7.53-6.462-13.573-12.213-13.745-5.752-.171-9.609 5.593-8.616 13.12.993 7.529 6.46 13.773 12.213 13.945m49.26-19.322v-5.332c0-5.867-4.799-10.668-10.666-10.668h-42.666c-5.767 0-10.501 4.639-10.66 10.37 3.648-3.212 8.708-5.895 13.93-5.895 5.582 0 22.328 0 22.328 0l-4.997 4.226h-7.079c4.696 1.8 7.197 7.258 7.197 12.858 0 4.703-2.613 8.747-6.305 11.623-3.603 2.807-4.286 3.982-4.286 6.367 0 2.036 3.859 5.5 5.877 6.924 5.899 4.159 7.808 8.02 7.808 14.467 0 1.026-.129 2.052-.379 3.06h19.233c5.867 0 10.666-4.797 10.666-10.668v-33.33h-12v12h-4v-12h-12v-4h12v-12h4v12l11.999.0001m-52.38 31.871c1.351 0 2.589-.037 3.871-.037-1.697-1.646-3.039-3.663-3.039-6.148 0-1.476.473-2.896 1.133-4.158-.674.049-1.362.063-2.07.063-4.647-.0001-8.594-1.506-11.513-3.991v4.202 12.608c3.34-1.586 7.306-2.539 11.618-2.539m-11.404 7.583c-.07-.341-.123-.688-.159-1.04.036.352.089.699.159 1.04m28.25 4.099c-.941-3.675-4.278-5.498-8.93-8.723-1.692-.546-3.556-.867-5.556-.889-5.601-.06-10.819 2.185-13.764 5.523.995 4.858 5.315 8.536 10.452 8.536h17.903c.113-.695.169-1.414.169-2.152 0-.784-.096-1.55-.274-2.295" fill="#dd4b39"/></svg>