<?xml version="1.0" encoding="utf-8"?>
<!-- Generated by IcoMoon.io -->
<!DOCTYPE svg PUBLIC "-//W3C//DTD SVG 1.1//EN" "http://www.w3.org/Graphics/SVG/1.1/DTD/svg11.dtd">
<svg version="1.1" xmlns="http://www.w3.org/2000/svg" xmlns:xlink="http://www.w3.org/1999/xlink" width="64" height="64" viewBox="0 0 64 64">
<g>
</g>
	<path d="M31.61 2.563c-16.259 0.218-29.264 13.574-29.046 29.834 0.218 16.25 13.574 29.258 29.834 29.040 16.253-0.218 29.261-13.574 29.040-29.834-0.214-16.253-13.571-29.258-29.827-29.040zM31.523 49.92h-0.163c-2.502-0.074-4.269-1.92-4.198-4.387 0.070-2.422 1.878-4.186 4.301-4.186l0.147 0.003c2.573 0.077 4.32 1.904 4.243 4.442-0.070 2.429-1.853 4.128-4.33 4.128zM42.054 29.018c-0.592 0.835-1.885 1.875-3.517 3.146l-1.798 1.242c-0.986 0.768-1.581 1.488-1.802 2.195-0.179 0.563-0.262 0.707-0.278 1.843l-0.003 0.291h-6.858l0.019-0.582c0.083-2.387 0.144-3.789 1.133-4.95 1.552-1.821 4.976-4.026 5.12-4.118 0.49-0.371 0.902-0.79 1.213-1.238 0.72-0.992 1.037-1.776 1.037-2.541 0-1.066-0.317-2.051-0.941-2.928-0.602-0.848-1.744-1.277-3.395-1.277-1.638 0-2.758 0.522-3.43 1.587-0.694 1.098-1.040 2.246-1.040 3.424v0.294h-7.072l0.013-0.307c0.182-4.333 1.728-7.45 4.595-9.27 1.798-1.162 4.038-1.747 6.65-1.747 3.421 0 6.314 0.832 8.586 2.47 2.304 1.661 3.472 4.15 3.472 7.395 0 1.818-0.573 3.523-1.702 5.072z" fill="#000000" />
</svg>
