<svg xmlns="http://www.w3.org/2000/svg" viewBox="0 0 500 500"><path d="m229 457c-61.2 0-118.7-23.8-161.9-66.9-43.3-43.2-67.1-100.6-67.1-161.6s23.8-118.4 67.1-161.6c43.2-43.1 100.7-66.9 161.9-66.9s118.7 23.8 161.9 66.9c43.3 43.2 67.1 100.5 67.1 161.6s-23.8 118.4-67.1 161.6c-43.2 43.1-100.7 66.9-161.9 66.9m0-450c-122.4 0-222 99.4-222 221.5s99.6 221.5 222 221.5 222-99.4 222-221.5-99.6-221.5-222-221.5m0 365.2c-79.5 0-144.2-64.5-144.2-143.7s64.7-143.7 144.2-143.7c79.5 0 144.2 64.5 144.2 143.7s-64.7 143.7-144.2 143.7m0-283c-77.1 0-139.8 62.5-139.8 139.3s62.7 139.3 139.8 139.3 139.8-62.5 139.8-139.3-62.7-139.3-139.8-139.3m-85.2 128.8c4.9 2.7 16.3 7.3 27.6 7.3 14.5 0 21.8-7 21.8-15.7 0-11.9-11.7-17.2-24-17.2h-11.3v-19.9h11c9.3 0 21-3.7 21-13.7 0-7.1-5.7-12.4-17.6-12.4-9.7 0-19.9 4.2-24.7 7.1l-5.7-20.1c7.1-4.6 21.2-9 36.8-9 25.3 0 39.3 13.4 39.3 29.6 0 12.6-7.1 22.7-21.8 27.6v.4c14.3 2.6 25.8 13.4 25.8 29.1 0 20.9-18.5 36.2-48.7 36.2-15.4 0-28.4-4-35.3-8.2l5.8-21.1m184.5-32.7c0 36.6-14.8 62-45 62-30.7 0-44.3-27.6-44.5-61.3 0-34.6 14.5-61.7 45.2-61.7 31.7 0 44.3 28.4 44.3 61m-61.7.7c0 27.3 6.6 40.3 17.2 40.3 10.8 0 16.7-13.5 16.7-40.6 0-26.4-5.7-40.3-16.8-40.3-10.1 0-17.1 12.8-17.1 40.6m13.6 140.3v-25l-19.9-40.4h18.9l6.1 15.6c1.8 4.2 3.5 9 4.8 13.9h.3c1.1-4.8 2.6-9.5 4.2-14.2l5.4-15.3h18.3l-20.3 39.9v25.5h-17.8m-53.8-14.9l-4 14.9h-17.1l19.7-65.4h21.1l17.6 65.4h-17.1l-3.9-14.9h-16.3m14.7-9.9l-3-13.7c-.9-4-2.2-10.6-3-14.8h-.4c-.9 4.4-2.3 11.1-3.2 14.8l-3.4 13.7h13m-93.1-39.6c4.4-.8 10.9-1.3 17.9-1.3 11.4 0 19.4 1.9 25.2 5.8 7.8 5 11.9 13.7 11.9 26.4 0 13.2-4.7 22.6-12.7 27.6-6.2 4.2-15.1 6.3-27.6 6.3-5.7 0-11.2-.4-14.7-.8v-64m17.7 54.3c.9.2 2.2.2 3.1.2 8.5 0 15.9-6 15.9-24.1 0-13.4-4.8-21.5-15.5-21.5-1.2 0-2.4 0-3.5.3v45.1m-65.3-211.5c-4.3-3-9.5-6.6-13.8-9.9l-.1.1c3.1 4 6.4 8.7 9.4 13.2l10.3 15.4-3.4 4.5-17-6.2c-5-1.9-10.3-4.1-15-6.3l-.1.1c4.1 3.3 9 7.4 13.2 11l12.4 10.6-4.2 5.5-30.5-26.7 5.9-7.7 16.1 5.7c4.6 1.7 9.2 3.6 13.4 5.6l.1-.1c-2.8-3.5-5.9-7.6-8.8-11.8l-9.3-14.4 5.8-7.6 33.6 22.7-4.4 5.7-13.6-9.4m38.3-37.4c8.1 10.9 6.2 22-2.7 28.6-9.2 6.9-20.2 4.1-27.3-5.3-7.5-10-6.4-21.7 2.7-28.5 9.5-7.1 20.4-4.1 27.3 5.2m-23.8 18.5c5 6.6 12.2 9.4 17.9 5.2 5.7-4.3 5-12-.1-18.8-4.6-6.1-11.9-9.6-17.8-5.2-6 4.3-5 12.1 0 18.8m39.7-3.6l-15.1-37.5 7.8-3.2 16.2 12.2c4.1 3.2 8.1 6.6 11.5 10h.1c-2.5-4.8-4.6-9.6-6.9-15.3l-5.2-13.1 6.3-2.6 15.1 37.5-7.1 2.9-16.4-12.6c-4.1-3.2-8.3-6.7-11.9-10.2l-.2.1c2.2 4.7 4.3 9.6 6.8 15.8l5.4 13.4-6.4 2.6m55.6-34.5l-15 2.5 1.9 11.7 16.8-2.8 1 6-24.1 4-6.6-39.9 23.2-3.8 1 6-15.9 2.6 1.7 10.3 15-2.5 1 5.9m18.5 17.4l.4-16.9-12.2-23.9 8.5.2 4.6 10.5c1.3 3 2.3 5.3 3.4 8.1h.1c1-2.6 2.2-5 3.7-8l5.1-10.3 8.3.2-14 23.1-.4 17h-7.5m46.3-35.1c2.4.2 6.6 1 10.6 2.2 5.2 1.5 8.3 3.2 10.3 5.8 2 2.2 2.8 5.2 1.9 8.5-1.1 3.6-4.3 6.1-8.9 6.4l-.1.2c3.8 2.2 6.6 6.6 5 11.9-1 3.5-3.3 5.7-6.1 7-3.5 1.5-8.4 1.4-15.5-.7-3.9-1.2-6.8-2.3-8.5-3.1l11.3-38.2m-2.8 35.1c.9.4 2.1.8 3.7 1.3 4.5 1.3 9.1.9 10.5-3.9 1.3-4.5-2.1-7.6-7-9l-3.5-1-3.7 12.6m5.3-17.7l3.6 1.1c4.9 1.5 8.3 0 9.3-3.3 1.1-3.7-1.2-6.2-5.7-7.5-2.1-.6-3.3-.9-4.1-.9l-3.1 10.6m29.6 24.4l-8.7 8.3-6.6-3.7 31.2-29 8.2 4.6-8.4 41.7-7-3.9 2.4-11.8-11.1-6.2m12.9.8l2.1-10.2c.5-2.5 1.3-5.3 1.9-7.6l-.1-.1c-1.7 1.7-3.6 3.9-5.4 5.6l-7.6 7.2 9.1 5.1m26.5 41.5c-1.9-.6-5.3-2.4-9-5.7-9.5-8.6-9.8-19.8-1.5-29 9-9.8 21.3-9.5 30.4-1.2 3.6 3.3 5.4 6.3 6 7.9l-5.1 3.3c-.9-1.9-2.4-4.3-4.8-6.5-6.1-5.5-13.9-5.7-20.5 1.5-6 6.6-6 14.3.6 20.3 2.2 2 4.9 3.6 6.9 4.4l-3 5m35-18.9l4.2 6-15.3 10.6.1.1c1.8-.1 3.6-.1 5.3-.1l17.7.6 5.2 7.4-22.1-1.6-10.6 25.5-4.9-7.1 8.7-20-5.6-.5-11.7 8.1-4.2-6 33.2-23m-285.9 290.8c-2.5-1.1-7.1-3.8-11-7.6-5-4.8-7.5-9.8-7.7-15.1-.2-5 2-10.3 6.3-14.6 9-9.1 21.3-8.5 31 .9 3.6 3.5 5.7 7 6.4 9l-5.3 3.1c-.9-2.3-2.3-4.7-5.4-7.8-6.3-6.1-14.2-6.8-20.8 0-6.4 6.6-6.1 14.5-.1 20.4 2 1.9 3.6 3 4.6 3.4l7.1-7.2-5.2-5.1 4.1-4.2 10.3 10.1-14.3 14.7m36.9-21.1l-12.3 20.1c-4.1 6.8-3.2 11.6 1.1 14.3 4.6 2.8 9.3 1.4 13.4-5.4l12.3-20.1 6.4 3.9-12.1 19.7c-6.5 10.6-14.9 12-23.3 6.8-8.1-5-10.6-12.6-4-23.5l12.1-19.8 6.4 4m22.2 44.3l-7.2 9.6-7.3-2.6 25.9-33.7 9 3.2-1 42.6-7.6-2.7.3-12-12.1-4.4m13-1.3l.3-10.5c.1-2.6.4-5.4.6-7.8h-.1c-1.4 2-2.9 4.4-4.4 6.5l-6.3 8.3 9.9 3.5m22.7-16.9c2.9-.2 7.1 0 11.3.6 5.8.8 9.6 2.2 12.1 4.8 2 2.1 2.9 5.1 2.4 8.5-.7 5.2-4.7 8.2-8.7 9v.2c2.8 1.5 4.2 4.5 4.7 8.5.7 5.2 1.2 10 1.7 11.6l-7.6-1c-.4-1.3-1-4.7-1.5-9.8-.5-5.4-2.2-7.3-6.4-8l-3.7-.5-2.1 16.5-7.4-1 5.2-39.4m5.1 18.6l4.4.6c5 .7 8.4-1.6 8.9-5.6.6-4.3-2.2-6.8-7.1-7.5-2.4-.3-3.9-.3-4.6-.2l-1.6 12.7m37.2 12.5l-2.6 11.7-7.7.6 10-41.3 9.5-.7 16.3 39.3-8.1.6-4.6-11.1-12.8.9m11.3-6.4l-4-9.7c-1-2.4-1.9-5.1-2.6-7.4h-.1c-.4 2.4-.9 5.2-1.4 7.7l-2.4 10.2 10.5-.8m24.7 14l-10.7-39 8.3-2.3 14.8 13.9c3.8 3.6 7.4 7.5 10.3 11.2h.1c-2-5.1-3.5-10.1-5.1-16l-3.7-13.6 6.7-1.8 10.7 39-7.5 2.1-15.1-14.3c-3.7-3.6-7.6-7.6-10.7-11.5l-.2.1c1.7 5 3.2 10.1 5 16.5l3.8 13.9-6.7 1.8m35.8-48l-10.5 5.2-2.7-5.5 27.8-13.7 2.7 5.5-10.6 5.2 15.2 30.7-6.7 3.3-15.2-30.7m48-11.2l-12.4 9.3 7.1 9.5 13.8-10.4 3.6 4.9-19.8 14.8-24.3-32.4 19.1-14.3 3.6 4.8-13.1 9.8 6.3 8.4 12.4-9.3 3.7 4.9m22.5-24.1l-10.1 11.6 9 7.8 11.3-13 4.6 4-16.3 18.7-30.5-26.6 15.7-18 4.6 4-10.7 12.3 7.9 6.9 10.1-11.7 4.4 4" fill="#369"/></svg>