<svg xmlns="http://www.w3.org/2000/svg" width="100%" height="100%" viewBox="0 0 500 500"><style type="text/css"><![CDATA[.guarantee{fill:#369;}.quote-page .guarantee{fill:#369;}]]></style><path class="guarantee" d="M229 457c-61.2 0-118.7-23.8-161.9-66.9C23.8 346.9 0 289.5 0 228.5S23.8 110.1 67.1 66.9C110.3 23.8 167.8 0 229 0s118.7 23.8 161.9 66.9c43.3 43.2 67.1 100.5 67.1 161.6s-23.8 118.4-67.1 161.6C347.7 433.2 290.2 457 229 457zM229 7C106.6 7 7 106.4 7 228.5S106.6 450 229 450s222-99.4 222-221.5S351.4 7 229 7zM229 372.2c-79.5 0-144.2-64.5-144.2-143.7S149.5 84.8 229 84.8c79.5 0 144.2 64.5 144.2 143.7S308.5 372.2 229 372.2zM229 89.2c-77.1 0-139.8 62.5-139.8 139.3S151.9 367.8 229 367.8s139.8-62.5 139.8-139.3S306.1 89.2 229 89.2zM143.8 218c4.9 2.7 16.3 7.3 27.6 7.3 14.5 0 21.8-7 21.8-15.7 0-11.9-11.7-17.2-24-17.2h-11.3v-19.9h11c9.3 0 21-3.7 21-13.7 0-7.1-5.7-12.4-17.6-12.4 -9.7 0-19.9 4.2-24.7 7.1l-5.7-20.1c7.1-4.6 21.2-9 36.8-9 25.3 0 39.3 13.4 39.3 29.6 0 12.6-7.1 22.7-21.8 27.6v0.4c14.3 2.6 25.8 13.4 25.8 29.1 0 20.9-18.5 36.2-48.7 36.2 -15.4 0-28.4-4-35.3-8.2L143.8 218zM328.3 185.3c0 36.6-14.8 62-45 62 -30.7 0-44.3-27.6-44.5-61.3 0-34.6 14.5-61.7 45.2-61.7C315.7 124.3 328.3 152.7 328.3 185.3zM266.6 186c0 27.3 6.6 40.3 17.2 40.3 10.8 0 16.7-13.5 16.7-40.6 0-26.4-5.7-40.3-16.8-40.3C273.6 145.4 266.6 158.2 266.6 186zM280.2 326.3v-25l-19.9-40.4h18.9l6.1 15.6c1.8 4.2 3.5 9 4.8 13.9h0.3c1.1-4.8 2.6-9.5 4.2-14.2l5.4-15.3h18.3l-20.3 39.9v25.5H280.2zM226.4 311.4l-4 14.9h-17.1l19.7-65.4h21.1l17.6 65.4h-17.1l-3.9-14.9H226.4zM241.1 301.5l-3-13.7c-0.9-4-2.2-10.6-3-14.8h-0.4c-0.9 4.4-2.3 11.1-3.2 14.8l-3.4 13.7H241.1zM148 261.9c4.4-0.8 10.9-1.3 17.9-1.3 11.4 0 19.4 1.9 25.2 5.8 7.8 5 11.9 13.7 11.9 26.4 0 13.2-4.7 22.6-12.7 27.6 -6.2 4.2-15.1 6.3-27.6 6.3 -5.7 0-11.2-0.4-14.7-0.8V261.9zM165.7 316.2c0.9 0.2 2.2 0.2 3.1 0.2 8.5 0 15.9-6 15.9-24.1 0-13.4-4.8-21.5-15.5-21.5 -1.2 0-2.4 0-3.5 0.3V316.2zM100.4 104.7c-4.3-3-9.5-6.6-13.8-9.9l-0.1 0.1c3.1 4 6.4 8.7 9.4 13.2l10.3 15.4 -3.4 4.5 -17-6.2c-5-1.9-10.3-4.1-15-6.3l-0.1 0.1c4.1 3.3 9 7.4 13.2 11l12.4 10.6 -4.2 5.5 -30.5-26.7 5.9-7.7 16.1 5.7c4.6 1.7 9.2 3.6 13.4 5.6l0.1-0.1c-2.8-3.5-5.9-7.6-8.8-11.8L79 93.3l5.8-7.6 33.6 22.7 -4.4 5.7L100.4 104.7zM138.7 67.3c8.1 10.9 6.2 22-2.7 28.6 -9.2 6.9-20.2 4.1-27.3-5.3 -7.5-10-6.4-21.7 2.7-28.5C120.9 55 131.8 58 138.7 67.3zM114.9 85.8c5 6.6 12.2 9.4 17.9 5.2 5.7-4.3 5-12-0.1-18.8 -4.6-6.1-11.9-9.6-17.8-5.2C108.9 71.3 109.9 79.1 114.9 85.8zM154.6 82.2l-15.1-37.5 7.8-3.2 16.2 12.2c4.1 3.2 8.1 6.6 11.5 10l0.1 0c-2.5-4.8-4.6-9.6-6.9-15.3L163 35.3l6.3-2.6 15.1 37.5 -7.1 2.9 -16.4-12.6c-4.1-3.2-8.3-6.7-11.9-10.2l-0.2 0.1c2.2 4.7 4.3 9.6 6.8 15.8l5.4 13.4L154.6 82.2zM210.2 47.7l-15 2.5 1.9 11.7 16.8-2.8 1 6 -24.1 4 -6.6-39.9 23.2-3.8 1 6 -15.9 2.6 1.7 10.3 15-2.5L210.2 47.7zM228.7 65.1l0.4-16.9 -12.2-23.9 8.5 0.2 4.6 10.5c1.3 3 2.3 5.3 3.4 8.1l0.1 0c1-2.6 2.2-5 3.7-8l5.1-10.3 8.3 0.2 -14 23.1 -0.4 17L228.7 65.1zM275 30c2.4 0.2 6.6 1 10.6 2.2 5.2 1.5 8.3 3.2 10.3 5.8 2 2.2 2.8 5.2 1.9 8.5 -1.1 3.6-4.3 6.1-8.9 6.4l-0.1 0.2c3.8 2.2 6.6 6.6 5 11.9 -1 3.5-3.3 5.7-6.1 7 -3.5 1.5-8.4 1.4-15.5-0.7 -3.9-1.2-6.8-2.3-8.5-3.1L275 30zM272.2 65.1c0.9 0.4 2.1 0.8 3.7 1.3 4.5 1.3 9.1 0.9 10.5-3.9 1.3-4.5-2.1-7.6-7-9l-3.5-1L272.2 65.1zM277.5 47.4l3.6 1.1c4.9 1.5 8.3 0 9.3-3.3 1.1-3.7-1.2-6.2-5.7-7.5 -2.1-0.6-3.3-0.9-4.1-0.9L277.5 47.4zM307.1 71.8l-8.7 8.3 -6.6-3.7L323 47.4l8.2 4.6 -8.4 41.7 -7-3.9 2.4-11.8L307.1 71.8zM320 72.6l2.1-10.2c0.5-2.5 1.3-5.3 1.9-7.6l-0.1-0.1c-1.7 1.7-3.6 3.9-5.4 5.6l-7.6 7.2L320 72.6zM346.5 114.1c-1.9-0.6-5.3-2.4-9-5.7 -9.5-8.6-9.8-19.8-1.5-29 9-9.8 21.3-9.5 30.4-1.2 3.6 3.3 5.4 6.3 6 7.9l-5.1 3.3c-0.9-1.9-2.4-4.3-4.8-6.5 -6.1-5.5-13.9-5.7-20.5 1.5 -6 6.6-6 14.3 0.6 20.3 2.2 2 4.9 3.6 6.9 4.4L346.5 114.1zM381.5 95.2l4.2 6 -15.3 10.6 0.1 0.1c1.8-0.1 3.6-0.1 5.3-0.1l17.7 0.6 5.2 7.4 -22.1-1.6L366 143.7l-4.9-7.1 8.7-20 -5.6-0.5 -11.7 8.1 -4.2-6L381.5 95.2zM95.6 386c-2.5-1.1-7.1-3.8-11-7.6 -5-4.8-7.5-9.8-7.7-15.1 -0.2-5 2-10.3 6.3-14.6 9-9.1 21.3-8.5 31 0.9 3.6 3.5 5.7 7 6.4 9l-5.3 3.1c-0.9-2.3-2.3-4.7-5.4-7.8 -6.3-6.1-14.2-6.8-20.8 0 -6.4 6.6-6.1 14.5-0.1 20.4 2 1.9 3.6 3 4.6 3.4l7.1-7.2 -5.2-5.1 4.1-4.2 10.3 10.1L95.6 386zM132.5 364.9L120.2 385c-4.1 6.8-3.2 11.6 1.1 14.3 4.6 2.8 9.3 1.4 13.4-5.4l12.3-20.1 6.4 3.9 -12.1 19.7c-6.5 10.6-14.9 12-23.3 6.8 -8.1-5-10.6-12.6-4-23.5l12.1-19.8L132.5 364.9zM154.7 409.2l-7.2 9.6 -7.3-2.6 25.9-33.7 9 3.2 -1 42.6 -7.6-2.7 0.3-12L154.7 409.2zM167.7 407.9l0.3-10.5c0.1-2.6 0.4-5.4 0.6-7.8l-0.1 0c-1.4 2-2.9 4.4-4.4 6.5l-6.3 8.3L167.7 407.9zM190.4 391c2.9-0.2 7.1 0 11.3 0.6 5.8 0.8 9.6 2.2 12.1 4.8 2 2.1 2.9 5.1 2.4 8.5 -0.7 5.2-4.7 8.2-8.7 9l0 0.2c2.8 1.5 4.2 4.5 4.7 8.5 0.7 5.2 1.2 10 1.7 11.6l-7.6-1c-0.4-1.3-1-4.7-1.5-9.8 -0.5-5.4-2.2-7.3-6.4-8l-3.7-0.5 -2.1 16.5 -7.4-1L190.4 391zM195.5 409.6l4.4 0.6c5 0.7 8.4-1.6 8.9-5.6 0.6-4.3-2.2-6.8-7.1-7.5 -2.4-0.3-3.9-0.3-4.6-0.2L195.5 409.6zM232.7 422.1l-2.6 11.7 -7.7 0.6 10-41.3 9.5-0.7 16.3 39.3 -8.1 0.6 -4.6-11.1L232.7 422.1zM244 415.7l-4-9.7c-1-2.4-1.9-5.1-2.6-7.4l-0.1 0c-0.4 2.4-0.9 5.2-1.4 7.7l-2.4 10.2L244 415.7zM268.7 429.7l-10.7-39 8.3-2.3 14.8 13.9c3.8 3.6 7.4 7.5 10.3 11.2l0.1 0c-2-5.1-3.5-10.1-5.1-16l-3.7-13.6 6.7-1.8 10.7 39 -7.5 2.1 -15.1-14.3c-3.7-3.6-7.6-7.6-10.7-11.5l-0.2 0.1c1.7 5 3.2 10.1 5 16.5l3.8 13.9L268.7 429.7zM304.5 381.7l-10.5 5.2 -2.7-5.5 27.8-13.7 2.7 5.5 -10.6 5.2 15.2 30.7 -6.7 3.3L304.5 381.7zM352.5 370.5l-12.4 9.3 7.1 9.5 13.8-10.4 3.6 4.9 -19.8 14.8 -24.3-32.4 19.1-14.3 3.6 4.8 -13.1 9.8 6.3 8.4 12.4-9.3L352.5 370.5zM375 346.4L364.9 358l9 7.8 11.3-13 4.6 4 -16.3 18.7L343 348.9l15.7-18 4.6 4 -10.7 12.3 7.9 6.9 10.1-11.7L375 346.4z"/></svg>