<svg xmlns="http://www.w3.org/2000/svg" viewBox="-1.25 -1.25 83 81" enable-background="new -1.25 -1.25 83 81"><path d="m81.05 15.357c-.9-2.5-.9-4.2-.1-6.6 1.5-4.2.8-4.6-3.2-2.2-4.101 2.5-10.8 2.7-15 .6-4.2-2.2-5.1-1.2-4.4 4.9.5 3.6.2 6.3-.8 8.8-1.9 4.5-4.3 4.9-23.2 4.1l-14.2-.6-1.1-7.4c-1.4-8.9-3.3-12.8-7.2-14.8s-6.6-1.9-9 .5c-2.5 2.5-2.9 10-.5 10 .9 0 1.8-1.2 2.2-3 .8-4.1 2.1-4.7 4.7-2.1 1.9 1.9 2.1 3.2 2 11.9-.1 5.3-.5 12.3-.9 15.4-.7 5.1-.5 6.4 1.9 11.1 2.8 5.4 2.7 7.3-.5 11.8-1.6 2.1-.6 5.7 3.1 10.7 2.3 3.3 3.7 4.2 5.9 4.2 1.6 0 3.4.699 4.1 1.5 1.4 1.699 5.6 2 6.5.4.4-.601-.9-2.5-2.9-4.4-4.3-3.9-4.5-6.2-.8-9.801 2.6-2.5 3.4-2.699 11.4-2.699 6.6 0 8.9.4 9.9 1.6.8.9 3.4 5.7 5.9 10.7 4.4 8.899 6.958 9.633 8.5 9.5 1.541-.133 3.576-.808 4-4.5s.799-7.8.899-11.399c.2-5.4.8-7.201 2.899-10.1 4.101-5.3 7-12.7 7.801-19.8.4-3.6 1.3-8.4 2-10.7 1-3.399 1.101-4.999.101-7.6zm-20.7 53.05c-1.833-3.625-3.744-8.458.125-8.458 3.87 0 1.621 11.909-.125 8.458z" fill="#0066bc" stroke="#fff" stroke-width="1.5" stroke-miterlimit="10"/></svg>