<?xml version="1.0" encoding="utf-8"?>
<!-- Generator: Adobe Illustrator 15.1.0, SVG Export Plug-In  -->
<!DOCTYPE svg PUBLIC "-//W3C//DTD SVG 1.1//EN" "http://www.w3.org/Graphics/SVG/1.1/DTD/svg11.dtd" [
	<!ENTITY ns_flows "http://ns.adobe.com/Flows/1.0/">
]>
<svg version="1.1"
	 xmlns="http://www.w3.org/2000/svg" xmlns:xlink="http://www.w3.org/1999/xlink" xmlns:a="http://ns.adobe.com/AdobeSVGViewerExtensions/3.0/"
	 x="0px" y="0px" width="124px" height="103px" viewBox="-22.23 -23.758 124 103"
	 style="enable-background:new -22.23 -23.758 124 103;" xml:space="preserve">
<defs>
</defs>
<path d="M80.303,14.608c-0.9-2.5-0.9-4.2-0.1-6.6c1.5-4.2,0.8-4.6-3.2-2.2c-4.1,2.5-10.8,2.7-15,0.6c-4.2-2.2-5.1-1.2-4.4,4.9
	c0.5,3.6,0.2,6.3-0.8,8.8c-1.9,4.5-4.3,4.9-23.2,4.1l-14.2-0.6l-1.1-7.4c-1.4-8.9-3.3-12.8-7.2-14.8s-6.6-1.9-9,0.5
	c-2.5,2.5-2.9,10-0.5,10c0.9,0,1.8-1.2,2.2-3c0.8-4.1,2.1-4.7,4.7-2.1c1.9,1.9,2.1,3.2,2,11.9c-0.1,5.3-0.5,12.3-0.9,15.4
	c-0.7,5.1-0.5,6.4,1.9,11.1c2.8,5.4,2.7,7.3-0.5,11.8c-1.6,2.1-0.6,5.7,3.1,10.7c2.3,3.3,3.7,4.2,5.9,4.2c1.6,0,3.4,0.7,4.1,1.5
	c1.4,1.7,5.6,2,6.5,0.4c0.4-0.6-0.9-2.5-2.9-4.4c-4.3-3.9-4.5-6.2-0.8-9.8c2.6-2.5,3.4-2.7,11.4-2.7c6.6,0,8.9,0.4,9.9,1.6
	c0.8,0.9,3.4,5.7,5.9,10.7c4.4,8.9,6.958,9.633,8.5,9.5s3.576-0.807,4-4.5s0.8-7.8,0.9-11.4c0.2-5.4,0.8-7.2,2.9-10.1
	c4.1-5.3,7-12.7,7.8-19.8c0.4-3.6,1.3-8.4,2-10.7C81.203,18.808,81.303,17.208,80.303,14.608z M59.603,67.658
	c-1.833-3.625-3.744-8.458,0.125-8.458S61.349,71.11,59.603,67.658z"/>
</svg>
