<svg xmlns="http://www.w3.org/2000/svg" viewBox="0 0 396 144" enable-background="new 0 0 396 144"><g fill-rule="evenodd"><path d="m79.82 59.06c3.508-2.789 6.438-7.06 12.72-6.48 6.308.583 7.57 7.588 4.8 13.2-3.411 6.907-12.264 12.715-16.8 17.76-5.088-4.645-14.187-10.5-18-17.281-1.87-3.323-2.64-9.119 0-11.76 5.244-5.244 14.296.942 17.28 4.561" fill="#f4b169"/><g fill="#1a2f6c"><path d="m106.33 103.44c-7.207 14.578-29.712 19.932-49.92 13.68-14.304-4.426-26.341-13.679-31.68-28.561-.917-2.555-1.767-5.355 0-6 2.819-1.026 4.289 4.105 5.28 5.28 4.424 5.244 10.911 7.704 19.44 6.96 9.158-.799 14.269-5.92 19.2-11.04-5.589-5.903-15.09-11.337-18.72-19.44-2.243-5.01-1.9-12.223.96-15.36 4.88-5.352 15.473-3.58 20.64 1.2 5.35-5.211 17.726-6.674 21.84.48 1.938 3.369 2.051 8.791.24 12.72-3.27 7.094-13.13 14.617-18 20.16 6.604 7.188 19.215 14.768 31.68 8.641 6.067-2.982 9.995-11.235 10.08-19.92.13-13.209-6.157-24.16-13.68-31.68-7.468-7.468-18.257-13.44-31.68-13.44-14.12 0-25.526 6.086-32.88 13.44-7.756 7.756-13.75 16.935-13.92 32.4-2.943-6.169-1.851-16.636.48-22.32 4.077-9.944 12.497-17.598 21.6-22.32 9.772-5.069 23.8-6.89 36.96-3.84 11.355 2.632 20.385 8.913 26.88 17.04 7.888 9.871 14.935 28.08 8.64 43.44-3.353 8.178-12.05 14.993-24.48 14.16-10.16-.682-17.579-7.17-23.04-12.24-4.579 4.964-11.632 11.592-21.36 12.72-6.617.768-14.01-.742-18.48-4.319-.194-.046-.239-.241-.48-.24 8.675 11.375 23.717 21.532 44.16 20.4 13.02-.722 21.512-7.321 30.24-12m-52.08-51.84c-2.64 2.64-1.87 8.436 0 11.76 3.813 6.781 12.912 12.635 18 17.28 4.536-5.04 13.389-10.852 16.8-17.76 2.771-5.612 1.508-12.617-4.8-13.2-6.282-.581-9.212 3.691-12.72 6.48-2.984-3.619-12.04-9.805-17.28-4.56"/><path d="m279.37 63.36c3.854-5.721 17.485-10.832 23.76-3.6 5.366 6.186 1.797 19.563 2.88 30.24 2.08 0 4.16 0 6.24 0-.137 1.784.287 4.128-.24 5.52-6.16 0-12.32 0-18.48 0 0-1.84 0-3.68 0-5.52 1.921 0 3.841 0 5.761 0-.905-8.92 3.636-24.716-3.84-27.6-6.702-2.585-12.581 2.719-16.08 6.24 0 7.12 0 14.24 0 21.36 2 0 4 0 6 0 0 1.84 0 3.68 0 5.52-6.16 0-12.32 0-18.48 0 0-1.84 0-3.68 0-5.52 1.92 0 3.84 0 5.76 0 .561-18 .08-37.04.24-55.44-2 0-4 0-6 0 0-.8 0-1.6 0-2.4 3.316-1.564 8.808-2.231 12.24-2.88.558 10.88.078 22.8.239 34.08"/><path d="m174.97 90c2.08 0 4.16 0 6.24 0-.137 1.784.288 4.128-.24 5.52-6.08 0-12.16 0-18.24 0 0-1.84 0-3.68 0-5.52 1.92 0 3.84 0 5.76 0-.924-8.713 3.55-24.63-3.6-27.6-6.723-2.792-12.96 2.917-16.32 6.48 0 7.04 0 14.08 0 21.12 2 0 4 0 6 0 0 1.84 0 3.68 0 5.52-6.08 0-12.16 0-18.24 0-.527-1.392-.104-3.735-.24-5.52 2 0 4 0 6 0 .56-8.72.08-18.48.24-27.6-2.08 0-4.16 0-6.24 0 0-1.84 0-3.68 0-5.52 4.08 0 8.16 0 12.24 0 0 2.24 0 4.48 0 6.72 3.844-5.349 16.809-11.232 23.52-4.32 5.787 5.96 2 19.878 3.12 30.72"/><path d="m215.05 89.76c1.626.534 4.221.1 6.24.24 0 1.84 0 3.68 0 5.52-4 0-8 0-12 0 0-1.52 0-3.039 0-4.56-4.984 5.01-17.973 7.87-23.76 1.2-3.278-3.777-3.259-10.764.48-14.641 4.521-4.688 15.427-5.04 23.04-2.399-.107-4.409.515-7.41-1.2-10.08-2.558-3.982-9.999-4.774-14.64-2.16 2.915 7.257-8.592 8.991-7.68 1.2 1.023-8.749 18.573-10.146 25.2-5.04 7.551 5.817 3.107 18.843 4.32 30.72m-25.2-7.68c-1.254 3.134.183 6.342 2.16 7.68 4.459 3.02 15.759-.014 17.04-4.319.587-1.974-.437-3.827 0-6.24-6.761-1.748-16.887-2.899-19.2 2.879"/><path d="m234.49 91.92c0 5.28 0 10.561 0 15.84 2.479 0 4.96 0 7.439 0-.137 1.784.288 4.128-.24 5.521-6.56 0-13.12 0-19.68 0 0-1.84 0-3.681 0-5.521 2 0 4 0 6 0 .56-14.641.08-30.32.24-45.36-2.08 0-4.16 0-6.24 0 0-1.84 0-3.68 0-5.52 4.08 0 8.16 0 12.24 0 0 1.68 0 3.36 0 5.04 2.996-2.284 5.787-5.226 10.56-5.76 26.608-2.977 27.21 40.02 1.681 40.08-5.281.012-8.607-1.983-12-4.32m12-1.2c16.294-.708 16.984-31.405-2.16-29.04-3.114.384-9.123 3.384-9.84 6-.726 2.643 0 6.125 0 9.12 0 3.102 0 6.199 0 9.36 3.401 2.999 6.769 4.787 12 4.56"/><path d="m368.65 90c2.08 0 4.16 0 6.24 0 0 1.84 0 3.68 0 5.52-4 0-8 0-12 0 0-1.52 0-3.039 0-4.56-3.394 2.192-7.332 5.192-13.2 5.28-10.73.159-17.352-10.819-10.319-18.48 4.847-5.28 15.08-5.125 23.279-2.64-.063-4.587.507-7.648-1.439-10.32-2.745-3.768-9.924-4.434-14.641-1.92 3.396 6.882-8.421 9.328-7.439 1.2.584-4.839 6.933-7.489 11.52-7.92 8.794-.827 17.02 2.042 18 10.8.815 7.294-.579 13.605-.0001 23.04m-25.44-3.36c.301.985 1.54 2.538 2.399 3.12 4.518 3.059 15.762-.102 17.04-4.319.597-1.968-.443-3.831 0-6.24-7.424-2.674-22.473-2.493-19.439 7.439"/><path d="m327.37 56.88c0 10.96 0 21.92 0 32.88 1.782.538 4.543.097 6.72.24-.137 1.784.287 4.128-.24 5.52-6.399 0-12.8 0-19.2 0 0-1.84 0-3.68 0-5.52 2.08 0 4.16 0 6.24 0 .56-8.72.08-18.48.24-27.6-2.16 0-4.32 0-6.48 0 0-1.84 0-3.68 0-5.52 4.239 0 8.479 0 12.72 0"/><path d="m98.17 72.48c1.918-.655 2.597.388 2.64 1.68.165 4.963-7.288-.094-2.64-1.68"/><path d="m92.89 80.4c.616 1.216-.016 2.506-.72 3.119-.927.048-1.769.009-2.4-.239-2.067-2 1.123-5.05 3.12-2.88"/><path d="m102.73 82.32c1.443-.486 2.713.255 2.64 1.92-.208 4.738-7.06-.431-2.64-1.92"/></g><circle cx="320.7" cy="40.33" r="6" fill="#f4b169"/></g></svg>