<?xml version="1.0" encoding="utf-8"?>
<!-- Generated by IcoMoon.io -->
<!DOCTYPE svg PUBLIC "-//W3C//DTD SVG 1.1//EN" "http://www.w3.org/Graphics/SVG/1.1/DTD/svg11.dtd">
<svg version="1.1" xmlns="http://www.w3.org/2000/svg" xmlns:xlink="http://www.w3.org/1999/xlink" width="64" height="64" viewBox="0 0 64 64">
<g>
</g>
	<path d="M53.334 0h-42.666c-5.867 0-10.668 4.801-10.668 10.668v42.664c0 5.871 4.801 10.668 10.668 10.668h42.666c5.867 0 10.666-4.797 10.666-10.668v-42.664c0-5.867-4.799-10.668-10.666-10.668zM52.378 21.365c0.020 0.459 0.031 0.921 0.031 1.384 0 14.138-10.576 30.442-29.916 30.442-5.938 0-11.465-1.772-16.118-4.807 0.822 0.099 1.659 0.15 2.508 0.15 4.926 0 9.46-1.711 13.058-4.58-4.601-0.086-8.484-3.18-9.822-7.43 0.642 0.125 1.301 0.192 1.978 0.192 0.959 0 1.888-0.131 2.77-0.376-4.81-0.983-8.434-5.307-8.434-10.491 0-0.045 0-0.090 0.001-0.134 1.418 0.801 3.039 1.282 4.763 1.338-2.821-1.919-4.678-5.193-4.678-8.905 0-1.961 0.518-3.799 1.424-5.379 5.186 6.473 12.934 10.732 21.672 11.179-0.179-0.783-0.272-1.6-0.272-2.438 0-5.909 4.708-10.699 10.514-10.699 3.024 0 5.757 1.299 7.675 3.379 2.395-0.48 4.645-1.37 6.677-2.596-0.785 2.498-2.452 4.595-4.623 5.919 2.127-0.259 4.153-0.834 6.039-1.685-1.409 2.145-3.192 4.030-5.246 5.538z" fill="#000000" />
</svg>
