<svg xmlns="http://www.w3.org/2000/svg" viewBox="0 0 64 64" enable-background="new 0 0 64 64"><path d="m53.33 0h-42.666c-5.867 0-10.668 4.801-10.668 10.668v42.664c0 5.871 4.801 10.668 10.668 10.668h42.666c5.867 0 10.666-4.797 10.666-10.668v-42.664c0-5.867-4.799-10.668-10.666-10.668m-.956 21.365c.021.459.031.921.031 1.384 0 14.14-10.576 30.442-29.916 30.442-5.938 0-11.465-1.772-16.12-4.808.822.099 1.659.15 2.508.15 4.926 0 9.46-1.711 13.06-4.58-4.601-.086-8.484-3.181-9.822-7.431.642.125 1.301.192 1.978.192.959 0 1.888-.131 2.77-.376-4.81-.982-8.434-5.307-8.434-10.491 0-.045 0-.09.0001-.134 1.418.801 3.039 1.282 4.763 1.338-2.821-1.919-4.678-5.193-4.678-8.905 0-1.961.518-3.799 1.424-5.379 5.186 6.473 12.934 10.732 21.672 11.179-.179-.783-.272-1.6-.272-2.438 0-5.909 4.708-10.699 10.515-10.699 3.02 0 5.756 1.299 7.675 3.379 2.395-.48 4.645-1.37 6.677-2.596-.785 2.498-2.452 4.595-4.623 5.919 2.127-.259 4.152-.834 6.04-1.685-1.41 2.147-3.192 4.03-5.248 5.539" fill="#00aced"/></svg>