<?xml version="1.0" encoding="utf-8"?>
<!-- Generator: Adobe Illustrator 15.1.0, SVG Export Plug-In  -->
<!DOCTYPE svg PUBLIC "-//W3C//DTD SVG 1.1//EN" "http://www.w3.org/Graphics/SVG/1.1/DTD/svg11.dtd" [
	<!ENTITY ns_flows "http://ns.adobe.com/Flows/1.0/">
]>
<svg version="1.1"
	 xmlns="http://www.w3.org/2000/svg" xmlns:xlink="http://www.w3.org/1999/xlink" xmlns:a="http://ns.adobe.com/AdobeSVGViewerExtensions/3.0/"
	 x="0px" y="0px" width="500px" height="500px" viewBox="0 0 500 500" style="enable-background:new 0 0 500 500;"
	 xml:space="preserve">
<defs>
</defs>
<circle style="fill:none;stroke:#0066BC;stroke-width:7;" cx="228.5" cy="228.5" r="225"/>
<circle style="fill:none;stroke:#0066BC;stroke-width:4;" cx="228.5" cy="226" r="145"/>
<text transform="matrix(1 0 0 1 130.7188 245.3018)" style="fill:#0066BC; font-family:'MyriadPro-Bold'; font-size:183;">30</text>
<text transform="matrix(1.3888 0 0 1 139.9619 322.7607)" style="fill:#0066BC; font-family:'MyriadPro-BoldCond'; font-size:99;">DAY</text>
<path style="fill:none;" d="M71.1,257.5c-12.7-102,55.4-192.4,156.7-192.4s166,83.7,153.4,175.4"/>
<text transform="matrix(0.5764 -0.8171 0.8171 0.5764 84.6665 150.4814)" style="fill:#0066BC; font-family:'MyriadPro-Semibold'; font-size:59.9963;">M</text>
<text transform="matrix(0.7881 -0.6155 0.6155 0.7881 109.8657 113.8335)" style="fill:#0066BC; font-family:'MyriadPro-Semibold'; font-size:59.9963;">O</text>
<text transform="matrix(0.893 -0.4501 0.4501 0.893 139.7861 89.6206)" style="fill:#0066BC; font-family:'MyriadPro-Semibold'; font-size:59.9963;">N</text>
<text transform="matrix(0.9701 -0.2429 0.2429 0.9701 173.5815 73.186)" style="fill:#0066BC; font-family:'MyriadPro-Semibold'; font-size:59.9963;">E</text>
<text transform="matrix(0.9988 -0.048 0.048 0.9988 201.3765 66.1924)" style="fill:#0066BC; font-family:'MyriadPro-Semibold'; font-size:59.9963;">Y</text>
<text transform="matrix(0.9799 0.1994 -0.1994 0.9799 250.0005 65.1006)" style="fill:#0066BC; font-family:'MyriadPro-Semibold'; font-size:59.9963;">B</text>
<text transform="matrix(0.8953 0.4455 -0.4455 0.8953 285.5586 72.4692)" style="fill:#0066BC; font-family:'MyriadPro-Semibold'; font-size:59.9963;">A</text>
<text transform="matrix(0.7227 0.6912 -0.6912 0.7227 315.2344 85.1006)" style="fill:#0066BC; font-family:'MyriadPro-Semibold'; font-size:59.9963;">C</text>
<text transform="matrix(0.5895 0.8078 -0.8078 0.5895 342.8057 111.4434)" style="fill:#0066BC; font-family:'MyriadPro-Semibold'; font-size:59.9963;">K</text>
<path style="fill:none;" d="M71.1,189.8C58.5,291.9,126.5,382.2,227.8,382.2s166-83.7,153.4-175.4 M26.4,243.3
	C20.8,346,122.6,432.7,225.3,432.7C328,432.7,414,364,415.1,271.5"/>
<text transform="matrix(0.732 0.7009 -0.6916 0.7223 67.4478 359.5439)" style="fill:#0066BC; font-family:'MyriadPro-Semibold'; font-size:60;">G</text>
<text transform="matrix(0.732 0.7009 -0.6916 0.7223 101.0962 390.9316)" style="fill:#0066BC; font-family:'MyriadPro-Semibold'; font-size:60;">U</text>
<text transform="matrix(0.732 0.7009 -0.6916 0.7223 140.5698 414.3291)" style="fill:#0066BC; font-family:'MyriadPro-Semibold'; font-size:60;">A</text>
<text transform="matrix(0.732 0.7009 -0.6916 0.7223 182.2744 428.5098)" style="fill:#0066BC; font-family:'MyriadPro-Semibold'; font-size:60;">R</text>
<text transform="matrix(0.732 0.7009 -0.6916 0.7223 221.939 433.5381)" style="fill:#0066BC; font-family:'MyriadPro-Semibold'; font-size:60;">A</text>
<text transform="matrix(0.732 0.7009 -0.6916 0.7223 265.8477 430.0303)" style="fill:#0066BC; font-family:'MyriadPro-Semibold'; font-size:60;">N</text>
<text transform="matrix(0.732 0.7009 -0.6916 0.7223 310.1846 416.5498)" style="fill:#0066BC; font-family:'MyriadPro-Semibold'; font-size:60;">T</text>
<text transform="matrix(0.732 0.7009 -0.6916 0.7223 342.8047 399.1865)" style="fill:#0066BC; font-family:'MyriadPro-Semibold'; font-size:60;">E</text>
<text transform="matrix(0.732 0.7009 -0.6916 0.7223 371.334 375.6924)" style="fill:#0066BC; font-family:'MyriadPro-Semibold'; font-size:60;">E</text>
</svg>
