<svg xmlns="http://www.w3.org/2000/svg" xmlns:xlink="http://www.w3.org/1999/xlink" class="hidden">
<defs>
	<g id="guarantee-icon">
	   <style type="text/css">
	    <![CDATA[
			#circles{fill:none;stroke-width:7;stroke:#369}
			#thirty-day-text{fill:#47a;stroke-width:1;stroke:#458;}
		]]>
	  </style>
	  <path id="circles" d="m3.5 228.5c0-124.3 100.7-225 225-225 124.3 0 225 100.7 225 225 0 124.3-100.7 225-225 225-124.3 0-225-100.7-225-225zM83.5 228.5 83.5 228.5 83.5 228.5c0-80.1 64.9-145 145-145 80.1 0 145 64.9 145 145 0 80.1-64.9 145-145 145-80.1 0-145-64.9-145-145z"/>
	  <path id="thirty-day-text" d="M143.35 218.04c4.94 2.75 16.29 7.32 27.63 7.32 14.46 0 21.78-6.95 21.78-15.74 0-11.89-11.71-17.2-23.97-17.2h-11.35v-19.95h10.98c9.33 0 21.05-3.66 21.05-13.72 0-7.14-5.67-12.44-17.57-12.44-9.7 0-19.95 4.21-24.7 7.14l-5.67-20.13c7.14-4.57 21.23-8.97 36.78-8.97 25.25 0 39.35 13.36 39.35 29.65 0 12.63-7.14 22.69-21.78 27.63v0.37c14.27 2.56 25.8 13.36 25.8 29.1 0 20.86-18.48 36.23-48.68 36.23-15.37 0-28.36-4.03-35.32-8.23L143.35 218.04zM327.81 185.28c0 36.6-14.82 62.04-45.02 62.04-30.74 0-44.28-27.63-44.47-61.3 0-34.59 14.46-61.67 45.2-61.67C315.18 124.34 327.81 152.71 327.81 185.28zM266.14 186.01c0 27.27 6.59 40.26 17.2 40.26 10.8 0 16.65-13.54 16.65-40.62 0-26.35-5.67-40.26-16.84-40.26C273.09 145.39 266.14 158.2 266.14 186.01zM279.66 326.3v-25.03l-19.94-40.35h18.86l6.06 15.62c1.75 4.17 3.5 9.02 4.85 13.87h0.27c1.08-4.75 2.56-9.51 4.18-14.16l5.39-15.33h18.32l-20.34 39.87v25.51H279.66zM225.91 311.36l-4.04 14.94h-17.11l19.67-65.38h21.15l17.65 65.38h-17.11l-3.91-14.94H225.91zM240.59 301.47l-2.96-13.68c-0.94-3.98-2.15-10.57-2.96-14.84h-0.4c-0.94 4.36-2.29 11.06-3.23 14.84l-3.37 13.68H240.59zM147.51 261.89c4.45-0.77 10.91-1.26 17.92-1.26 11.45 0 19.4 1.94 25.19 5.82 7.81 5.04 11.85 13.68 11.85 26.38 0 13.19-4.71 22.6-12.66 27.65-6.2 4.17-15.09 6.31-27.61 6.31-5.66 0-11.18-0.39-14.68-0.78V261.89zM165.16 316.21c0.94 0.19 2.15 0.19 3.1 0.19 8.49 0 15.9-6.01 15.9-24.06 0-13.39-4.85-21.53-15.49-21.53-1.21 0-2.42 0-3.5 0.29V316.21zM99.93 104.67c-4.29-2.98-9.48-6.56-13.79-9.93l-0.11 0.14c3.11 4.04 6.43 8.69 9.39 13.21l10.32 15.36-3.42 4.48-17.01-6.2c-5.05-1.89-10.31-4.1-14.97-6.3l-0.07 0.1c4.09 3.35 9.04 7.44 13.25 11.03l12.38 10.59-4.19 5.48-30.5-26.69 5.9-7.72 16.13 5.67c4.64 1.73 9.22 3.65 13.42 5.57l0.11-0.14c-2.82-3.52-5.94-7.64-8.77-11.75L78.5 93.28l5.83-7.63 33.56 22.69-4.37 5.72L99.93 104.67zM138.22 67.26c8.11 10.86 6.16 21.98-2.73 28.62-9.18 6.86-20.19 4.15-27.26-5.32-7.47-10-6.41-21.72 2.72-28.54C120.37 54.99 131.29 57.98 138.22 67.26zM114.37 85.75c4.96 6.63 12.19 9.4 17.86 5.16 5.72-4.27 4.96-12.01-0.11-18.79-4.56-6.1-11.9-9.61-17.81-5.19C108.44 71.31 109.38 79.07 114.37 85.75zM154.15 82.21l-15.1-37.52 7.85-3.16 16.16 12.19c4.13 3.19 8.1 6.64 11.46 10l0.11-0.04c-2.52-4.81-4.58-9.61-6.88-15.34l-5.26-13.08 6.35-2.55 15.1 37.52-7.12 2.87-16.45-12.59c-4.05-3.16-8.34-6.73-11.88-10.23l-0.2 0.14c2.23 4.73 4.33 9.64 6.82 15.82l5.4 13.42L154.15 82.21zM209.68 47.66l-15.04 2.47 1.93 11.72 16.81-2.76 0.98 5.98-24.1 3.96-6.56-39.9 23.21-3.82 0.98 5.98-15.93 2.62 1.69 10.3 15.04-2.47L209.68 47.66zM228.23 65.05l0.4-16.85-12.22-23.87 8.46 0.2 4.56 10.49c1.31 3.03 2.28 5.34 3.35 8.12l0.12 0c1.02-2.56 2.22-5.05 3.67-7.96l5.1-10.26 8.34 0.2-13.98 23.08-0.4 17.04L228.23 65.05zM274.54 29.97c2.38 0.21 6.58 1.02 10.61 2.21 5.18 1.54 8.25 3.2 10.31 5.75 1.99 2.15 2.85 5.16 1.86 8.5-1.06 3.57-4.26 6.12-8.92 6.43l-0.05 0.17c3.78 2.25 6.56 6.58 4.99 11.87-1.02 3.45-3.32 5.71-6.07 6.96-3.46 1.54-8.36 1.4-15.49-0.72-3.91-1.16-6.76-2.32-8.53-3.1L274.54 29.97zM271.74 65.12c0.87 0.45 2.08 0.81 3.69 1.28 4.54 1.35 9.12 0.89 10.54-3.88 1.35-4.54-2.07-7.56-6.96-9.01l-3.51-1.04L271.74 65.12zM277.02 47.35l3.62 1.08c4.95 1.47 8.33-0.03 9.31-3.31 1.09-3.68-1.17-6.17-5.66-7.5-2.07-0.61-3.31-0.86-4.11-0.91L277.02 47.35zM306.65 71.75l-8.65 8.28-6.64-3.74 31.12-28.89 8.21 4.62-8.38 41.69-6.95-3.91 2.43-11.78L306.65 71.75zM319.47 72.57l2.11-10.24c0.53-2.53 1.31-5.25 1.93-7.59l-0.1-0.06c-1.67 1.75-3.63 3.88-5.38 5.65l-7.6 7.15L319.47 72.57zM346.04 114.09c-1.85-0.55-5.34-2.43-8.97-5.74-9.49-8.65-9.85-19.84-1.52-28.98 8.97-9.85 21.26-9.53 30.4-1.2 3.59 3.27 5.44 6.33 6.02 7.92l-5.11 3.3c-0.85-1.91-2.37-4.26-4.8-6.49-6.08-5.54-13.94-5.72-20.49 1.47-6.02 6.61-6 14.25 0.61 20.27 2.17 1.98 4.89 3.64 6.91 4.35L346.04 114.09zM381.01 95.16l4.18 6.01-15.26 10.63 0.1 0.15c1.83-0.1 3.59-0.09 5.27-0.09l17.74 0.59 5.18 7.44-22.09-1.58-10.59 25.43-4.94-7.09 8.7-19.95-5.64-0.53-11.67 8.13-4.18-6.01L381.01 95.16zM95.1 385.97c-2.54-1.14-7.11-3.77-10.98-7.56-4.96-4.85-7.52-9.79-7.74-15.13-0.22-5 2.04-10.26 6.32-14.63 9.02-9.14 21.29-8.55 30.98 0.94 3.61 3.53 5.72 7.02 6.44 8.98l-5.33 3.1c-0.9-2.3-2.35-4.73-5.43-7.75-6.26-6.12-14.22-6.77-20.8-0.04-6.42 6.56-6.15 14.46-0.06 20.42 1.96 1.91 3.6 3.02 4.59 3.4l7.09-7.25-5.17-5.06 4.07-4.16 10.35 10.12L95.1 385.97zM131.98 364.87l-12.3 20.11c-4.13 6.76-3.19 11.62 1.11 14.26 4.62 2.82 9.28 1.39 13.41-5.37l12.31-20.11 6.38 3.9-12.05 19.7c-6.51 10.65-14.94 11.96-23.34 6.82-8.09-4.95-10.6-12.61-3.97-23.46l12.09-19.75L131.98 364.87zM154.25 409.21l-7.16 9.62-7.28-2.59 25.93-33.7 9 3.2-1.01 42.57-7.62-2.71 0.35-12.04L154.25 409.21zM167.17 407.89l0.3-10.46c0.08-2.58 0.38-5.41 0.59-7.82l-0.11-0.04c-1.36 2-2.93 4.43-4.37 6.47l-6.32 8.32L167.17 407.89zM189.9 390.95c2.9-0.17 7.05 0.01 11.33 0.57 5.85 0.76 9.65 2.22 12.12 4.84 1.99 2.13 2.89 5.1 2.44 8.55-0.67 5.18-4.69 8.22-8.72 9.03l-0.02 0.18c2.82 1.46 4.2 4.48 4.66 8.47 0.68 5.17 1.16 9.95 1.74 11.6l-7.6-0.99c-0.45-1.27-1.05-4.67-1.48-9.81-0.52-5.39-2.18-7.3-6.38-7.97l-3.74-0.49-2.15 16.48-7.36-0.96L189.9 390.95zM194.96 409.58l4.4 0.57c5.01 0.65 8.42-1.57 8.94-5.55 0.57-4.34-2.24-6.82-7.06-7.45-2.35-0.31-3.88-0.32-4.63-0.24L194.96 409.58zM232.17 422.12l-2.65 11.7-7.7 0.59 10.03-41.32 9.52-0.72 16.35 39.32-8.06 0.61-4.57-11.15L232.17 422.12zM243.45 415.67l-3.97-9.69c-0.97-2.39-1.85-5.09-2.63-7.38l-0.12 0.01c-0.43 2.38-0.88 5.24-1.37 7.69l-2.4 10.17L243.45 415.67zM268.22 429.72l-10.75-38.99 8.27-2.28 14.81 13.91c3.78 3.63 7.36 7.49 10.35 11.22l0.12-0.03c-1.96-5.06-3.47-10.06-5.11-16.02l-3.75-13.59 6.68-1.84 10.75 38.99-7.5 2.07-15.05-14.34c-3.7-3.59-7.59-7.62-10.73-11.48l-0.22 0.12c1.68 4.95 3.22 10.07 4.99 16.49l3.84 13.94L268.22 429.72zM303.96 381.71l-10.47 5.17-2.74-5.54 27.75-13.71 2.74 5.54-10.58 5.23 15.18 30.71-6.7 3.31L303.96 381.71zM352.02 370.48l-12.36 9.26 7.12 9.51 13.82-10.36 3.63 4.85-19.8 14.84-24.25-32.36 19.08-14.3 3.63 4.85-13.09 9.81 6.26 8.36 12.36-9.26L352.02 370.48zM374.5 346.37l-10.14 11.65 8.96 7.8 11.34-13.03 4.57 3.98-16.25 18.67-30.5-26.55 15.65-17.98 4.57 3.98-10.74 12.34 7.88 6.86 10.14-11.65L374.5 346.37z"/>
	</g>
</defs>
</svg>