<?xml version="1.0" encoding="utf-8"?>
<!DOCTYPE svg PUBLIC "-//W3C//DTD SVG 1.1//EN" "http://www.w3.org/Graphics/SVG/1.1/DTD/svg11.dtd">
<svg xmlns="http://www.w3.org/2000/svg" version="1.1" x="0" y="0" width="500" height="500" viewBox="-21.5" enable-background="new -21.492 -26.466 500 500" xml:space="preserve">
<style type="text/css"><![CDATA[
	.thirty-text{
		font-family:'MyriadPro-Bold';
		font-size:183px;
		font-size:183;
	}
	.day-text{
		font-family:'MyriadPro-BoldCond';
		font-size:99px;
		font-size:99;
	}
	.money-back-text .tspan,
	.guarantee-text .tspan{
		font-family:'MyriadPro-Semibold';
		font-size:60px;
		font-size:60;
	}
	.outer-circle,
	.inner-circle{
		fill:none;
		stroke:#000000;
		stroke-miterlimit:10;
	}
	.outer-circle{
		stroke-width:7;
	}
	.inner-circle{
		stroke-width:4;
	}
	.path{
		fill:none;
	}
]]></style>
	<circle class="outer-circle" cx="228.5" cy="228.5" r="225"/>
	<circle class="inner-circle" cx="228.5" cy="226" r="145"/>
	<text class="thirty-text" transform="matrix(1 0 0 1 130.7188 245.3022)">30</text>
	<text class="day-text" transform="matrix(1.3888 0 0 1 139.9619 322.7612)">DAY</text>
	<path class="path" d="M71.1 257.5C58.4 155.5 126.5 65.1 227.8 65.1c101.3 0 166 83.7 153.4 175.4"/>
	<text class="money-back-text" transform="matrix(0.6069 -0.7947 0.7947 0.6069 89.7344 145.1992)">
		<tspan class="tspan"> x="0" y="0">M</tspan>
		<tspan class="tspan"> x="47.1" y="0.1" rotate="15.9">O</tspan>
		<tspan class="tspan"> x="85.5" y="10.8" rotate="30.7">N</tspan>
		<tspan class="tspan"> x="118.5" y="30.8" rotate="43.3">E</tspan>
		<tspan class="tspan"> x="139.9" y="50.6" rotate="54">Y</tspan>
		<tspan class="tspan"> x="158.9" y="77.8" rotate="61.3"/>
		<tspan class="tspan"> x="165" y="87.1" rotate="69.2">B</tspan>
		<tspan class="tspan"> x="177" y="117.4" rotate="82.1">A</tspan>
		<tspan class="tspan"> x="182.1" y="153" rotate="95.5">C</tspan>
		<tspan class="tspan"> x="179.1" y="186" rotate="108.3">K</tspan>
	</text>
	<path class="path" d="M71.1 189.8C58.5 291.9 126.5 382.2 227.8 382.2c101.3 0 166-83.7 153.4-175.4M26.4 243.3c-5.6 102.7 96.2 189.4 198.9 189.4 102.7 0 188.7-68.7 189.8-161.2"/>
	<text class="guarantee-text" transform="matrix(0.732 0.7009 -0.6916 0.7223 67.4478 359.5435)">
		<tspan class="tspan"> x="0" y="0">G</tspan>
		<tspan class="tspan"> x="45.4" y="-0.6" rotate="-12.4">U</tspan>
		<tspan class="tspan"> x="89.5" y="-11" rotate="-24.4">A</tspan>
		<tspan class="tspan"> x="128.9" y="-29.6" rotate="-36.2">R</tspan>
		<tspan class="tspan"> x="160.6" y="-53.4" rotate="-48.2">A</tspan>
		<tspan class="tspan"> x="189.5" y="-86.3" rotate="-59.8">N</tspan>
		<tspan class="tspan"> x="211.9" y="-126.7" rotate="-71.4">T</tspan>
		<tspan class="tspan"> x="223.3" y="-161.8" rotate="-82.3">E</tspan>
		<tspan class="tspan"> x="227.6" y="-198.5" rotate="-94.6">E</tspan>
	</text>
</svg>