<?xml version="1.0" encoding="utf-8"?>
<!-- Generator: Adobe Illustrator 15.1.0, SVG Export Plug-In . SVG Version: 6.00 Build 0)  -->
<!DOCTYPE svg PUBLIC "-//W3C//DTD SVG 1.1//EN" "http://www.w3.org/Graphics/SVG/1.1/DTD/svg11.dtd">
<svg version="1.1" id="Layer_1" xmlns="http://www.w3.org/2000/svg" xmlns:xlink="http://www.w3.org/1999/xlink" x="0px" y="0px"
	 width="2835px" height="980px" viewBox="0 0 2835 980" enable-background="new 0 0 2835 980" xml:space="preserve">
<g transform="translate(0.000000,980.000000) scale(0.100000,-0.100000)">
	<path d="M0,4900V0h14174.999h14174.999v4900v4900H14174.999H0V4900z M28329.002,9776c7.998-10,10-1292.002,8.994-4886.997
		L28334.998,15l-14149.003-2.998C3732.998,10.996,33.999,12.998,23.999,20.996C12.002,30.996,10,820.996,10,4905
		c0,2678.999,2.998,4875,7.002,4877.998c2.998,4.004,6372.998,7.002,14152.997,7.002
		C26054.002,9789.999,28319.002,9787.997,28329.002,9776z"/>
	<path d="M4667.998,9568.998C4645.996,9556,4645,9506,4665,9466c12.998-25,7.002-21.001-37.002,21.001
		c-30,26.997-62.002,55-72.998,60c-55,28.999-180,26.997-210-3.003c-17.998-17.998-20-65-2.998-81.997c25-25-4.004-24.004-30,0.996
		c-42.998,41.001-92.998,57.002-179.004,57.002c-92.998,0-122.998-15-122.998-62.002c0-23.999,12.998-41.997,59.004-86.997
		c83.994-83.003,145-111.001,240-111.001c106.992,0,120.996,5,120.996,43.999c0,17.002-7.998,42.002-17.002,56.001
		c-12.998,18.999-3.994,15,44.004-18.999c68.994-48.003,155-68.999,235.996-57.002c44.004,7.002,47.002,8.999,47.002,38.003
		c0,15.996-10,43.999-22.002,60.996c-20,29.004-20,30-2.998,17.002c10.996-7.998,37.002-28.999,57.002-47.002
		C4834.003,9298.998,4929.003,9271,5005,9286c32.998,6.001,35,8.999,35,43.999c0,22.998-10,52.002-25.996,76.001
		c-18.008,27.998-6.006,18.999,43.994-33.999c84.004-87.002,116.006-102.002,217.998-102.002h77.002l-5.996,40
		c-2.998,22.002-2.002,40,2.002,40c3.994,0,22.998-16.001,41.992-36.001c57.002-60,112.002-86.001,191.006-91.997l70-5L5645,9271
		c-10,73.999-40,131.997-105,200c-37.998,40-67.002,61.001-95,67.998c-47.002,13.003-142.002,15-149.004,3.003
		c-2.998-5-5.996-27.002-6.992-50l-3.008-42.002l-40.996,45c-22.998,23.999-57.998,51.001-77.998,60
		c-44.004,17.998-157.002,20-180,2.998c-17.998-13.999-26.006-65.996-12.002-87.998c5-7.998-12.998,7.998-37.998,37.002
		c-39.004,41.997-56.006,52.998-97.998,61.997C4777.001,9582.997,4690.996,9582.997,4667.998,9568.998z"/>
	<path d="M5622.001,9487.997c-50-50,75.996-253.999,193.994-315.996c12.002-7.002,47.002-15,78.008-18.003l55.996-6.997v61.997
		c0,118.999-87.998,248.999-187.998,278.999C5710.996,9502.997,5637.001,9502.997,5622.001,9487.997z"/>
	<path d="M3730,9442.001c-27.998-13.003-35.996-24.004-37.998-50c-4.004-38.003,30.996-91.001,75.996-116.001
		c97.002-53.999,117.998-61.001,207.998-63.999c110-5,134.004,5,134.004,51.997c0,27.002-10.996,43.003-67.998,98.003
		c-52.998,51.997-80,70-122.002,81.997C3850,9464.999,3774.004,9463.998,3730,9442.001z"/>
	<path d="M5942.998,9422.997c-17.002-5.996-15.996-40.996,2.002-91.997c7.998-23.003,14.004-42.002,14.004-43.999
		c-2.002-17.002,32.998-72.002,81.992-126.001c66.006-73.999,106.006-95,174.004-88.999l40,2.998l-0.996,47.002v46.997
		l33.994-51.997c71.006-109.004,136.006-157.002,211.006-157.002h40l2.998,57.998c2.998,56.001,3.994,56.001,15.996,27.002
		c29.004-67.998,50-98.999,102.002-150c42.998-40,65.996-53.999,99.004-60c23.994-3.999,46.992-2.998,50.996,1.001
		c5,5,10,41.001,12.002,78.999c2.998,75,5.996,72.998,32.998-18.999c30-103.999,132.002-216.001,195-216.001
		c49.004,0,54.004,10,47.002,107.002c-11.006,150-45,225-127.002,278.999c-30,20-47.998,25-85.996,21.997
		c-48.008-2.998-49.004-3.999-52.002-37.998c-5-62.998-14.004-66.001-27.998-11.001c-8.008,31.001-29.004,73.003-49.004,97.002
		c-37.998,46.001-122.998,93.999-167.002,93.999c-27.998,0-33.994-7.002-52.998-65c-5.996-17.002-9.004-15-25.996,20
		C6465,9276,6365.996,9343.998,6287.998,9337.997c-37.002-2.998-42.998-5.996-45.996-27.998
		c-6.006-52.002-12.002-52.998-41.006-7.998c-15.996,25-55,63.999-86.992,86.997c-50,36.001-64.004,41.001-108.008,40
		C5977.998,9428.998,5949.003,9426,5942.998,9422.997z"/>
	<path d="M3410,9352.001c-45.996-22.002-50.996-59.004-15.996-105l25.996-34.004l-49.004,24.004
		c-85.996,42.998-233.994,40-282.998-4.004c-23.994-20.996-23.994-78.999-0.996-91.997c10-5,15-12.002,10.996-16.001
		c-2.998-3.999-17.002-1.001-30,6.001c-13.999,7.998-57.998,13.999-112.998,13.999c-77.002,0-96.001-2.998-132.002-23.999
		c-56.997-33.003-67.998-73.999-27.998-108.003c33.999-28.999,28.999-35.996-16.001-22.998s-166.001,11.001-206.001-2.998
		c-91.997-34.004-110-104.004-37.998-144.004c126.001-68.999,318.999-70,392.002-0.996c30.996,28.999,28.999,51.997-9.004,81.997
		l-31.997,25l33.999-6.997c18.999-4.004,80-7.002,135-7.002c82.002,0,105.996,3.999,132.998,20
		c52.998,32.002,52.002,52.998-3.994,103.999c-27.002,25-37.002,38.003-23.008,28.999c76.006-47.998,224.004-61.997,302.002-28.999
		c60,26.001,67.998,53.003,30,93.003c-15,16.997-20.996,26.997-12.998,21.997c67.002-40,192.002-53.999,272.998-30
		c75,22.002,76.006,43.999,7.002,118.999c-72.998,80-132.998,107.002-234.004,107.002
		C3469.004,9369.999,3435,9364.999,3410,9352.001z"/>
	<path d="M4797.998,8982.997c-60.996-3.999-67.998-5.996-67.998-25c0-22.998-35-68.999-144.004-190.996
		c-37.998-43.003-72.998-74.004-76.992-70c-10,10-14.004,165.996-5,180.996c2.998,6.001,20,13.003,35.996,17.002
		c25.996,6.001,30,11.001,30,42.002c0,33.999-0.996,35-32.002,28.999c-17.998-3.003-90-8.003-160-12.002L4250,8947.001v-33.003
		c0-31.001,2.998-33.999,29.004-33.999c15.996,0,33.994-6.001,40-12.998c5.996-8.003,17.998-117.002,26.992-252.002
		c15-227.998,15-240-1.992-252.002c-10-6.997-26.006-12.998-36.006-12.998c-13.994,0-17.998-7.998-17.998-36.001v-36.001
		l52.998,6.001c27.998,3.003,101.006,8.999,160,12.002l107.998,6.997l-2.998,31.001c-2.002,26.001-7.998,32.002-30.996,33.999
		c-15,2.002-34.004,13.003-41.006,25c-13.994,22.002-27.998,177.002-16.992,177.002c2.998,1.001,61.992-57.998,130.996-128.999
		l125-130l107.998,6.001l107.002,5.996v32.002c0,27.998-5,35-32.002,45c-20,7.002-90,71.001-170,152.998l-137.002,141.001
		l96.006,103.003c80,85.996,103.994,105.996,140,115.996c40,10,42.998,14.004,42.998,44.004c0,30.996-2.002,32.998-32.002,30.996
		C4880,8987.001,4835,8984.999,4797.998,8982.997z"/>
	<path d="M5055.996,8963.998c-10-26.997-6.992-53.999,8.008-53.999c7.998,0,23.994-7.998,36.992-18.999l23.008-18.003
		l-28.008-232.998c-15-127.998-30-238.999-32.998-247.002c-2.998-7.998-15.996-18.999-28.994-23.999
		c-16.006-5-24.004-16.001-24.004-31.997c0-23.003,5-24.004,167.998-46.001c231.006-32.002,322.002-38.003,322.002-21.001
		c0,10,2.998,10,12.998-2.002c12.002-15,187.998-77.998,219.004-77.998c20,0,37.002,62.002,18.994,67.998
		c-5.996,2.002-20,11.001-31.992,21.001L5697.998,8296l51.006,161.997c28.994,89.004,55.996,162.002,60,162.002
		c5,0,50-102.002,100-227.002c115-285.996,118.994-291.997,160.996-320.996c65-44.004,65-45,160,252.998
		c47.002,148.999,90,276.001,94.004,282.998c5,8.003,20,10,45,6.001c33.994-5,38.994-3.999,43.994,17.002
		c12.002,43.999,7.998,46.997-92.002,77.998c-122.998,38.003-138.994,38.999-146.992,3.999
		c-7.002-25.996-3.008-30.996,41.992-58.999c17.002-10,15-20-30.996-166.997c-27.998-86.001-52.998-153.003-57.002-149.004
		c-5.996,7.002-157.002,367.002-190.996,457.002c-14.004,37.998-19.004,42.002-92.998,67.002
		c-99.004,35-138.008,33.999-142.002-4.004c-2.002-20,2.998-30,20-38.999c12.998-6.997,25.996-16.001,28.994-21.001
		c6.006-8.999-30-128.999-112.998-382.998l-32.998-100l-40,3.999c-22.002,1.001-42.998,5-45.996,7.002
		c-4.004,1.997-2.002,26.997,2.998,55c10,56.001,2.998,68.999-39.004,68.999c-15.996,0-25-10-35.996-42.002l-14.004-42.998
		l-87.998,2.002c-59.004,0.996-92.002,5.996-100,15c-9.004,10-10,33.999-2.998,102.998c5.996,50,13.994,93.999,17.998,97.998
		c10.996,12.002,109.004-3.999,125.996-20c8.008-7.998,14.004-27.998,14.004-43.999c0-26.001,2.998-28.999,34.004-28.999h32.998
		l5.996,67.998c2.998,37.002,9.004,88.003,12.998,115l7.002,47.002h-35.996c-32.002,0-36.006-2.998-42.002-31.001l-7.002-31.997
		l-55.996,5.996c-76.006,8.003-84.004,19.004-76.006,100c10,98.003,16.006,103.003,103.008,90
		c85-12.998,100.996-23.999,100.996-68.999c0-31.997,2.002-33.999,32.998-33.999c32.002,0,32.998,1.001,45,57.998
		c7.002,32.002,12.002,70,12.002,85c0,31.001,5,30-210,52.002c-80,7.998-172.002,20-205,25
		C5074.003,8982.997,5062.998,8982.997,5055.996,8963.998z"/>
	<path d="M7137.001,8922.997c-16.006-15.996-7.002-180,13.994-240c33.008-98.999,109.004-172.998,177.002-172.998
		c37.002,0,42.002,15,42.002,126.001c0,121.001-17.998,170-89.004,236.997c-51.992,49.004-65,57.002-98.994,57.002
		C7160.996,8929.999,7140,8927.001,7137.001,8922.997z"/>
	<path d="M3905.996,8486c-52.998,146.997-95.996,272.998-95.996,281.001c0,6.997,12.002,17.998,25.996,22.998
		c20,7.998,25,16.001,22.002,37.998c-3.994,38.003-33.994,38.003-142.998-2.998c-85-31.001-90-33.999-90-61.001
		c0-26.997,2.998-28.999,37.002-28.999c20,0,40.996-3.999,45.996-10c14.004-15,102.998-266.001,100-281.001
		c-2.002-11.001-212.998,103.999-430,233.999c-25,16.001-30.996,15-127.002-17.998C3167.998,8631,3150,8621,3150,8604.999
		c0-35,15-47.998,47.002-41.001c20,5,33.994,2.002,42.002-7.998c17.998-21.001,171.992-457.002,165-467.002
		c-3.008-5-27.002-20-54.004-33.999L3302.002,8031l-258.003,181.001c-142.998,98.999-265,182.998-271.997,185.996
		c-7.002,2.002-29.004-3.999-48.003-13.999c-42.998-22.998-45,2.002,20-376.997c25-147.002,46.001-272.002,46.001-276.001
		s-11.001-20-23.999-33.999c-22.002-24.004-23.999-25-28.999-6.001c-10,37.998-45,22.998-72.002-32.002
		c-51.001-100-136.001-171-222.002-185c-130.996-20-312.998,153.999-300.996,288.002c6.997,63.999,48.999,122.998,118.999,165.996
		c63.999,39.004,78.999,40,117.998,6.001c38.999-32.998,75-28.999,78.999,8.003c2.002,16.997-8.999,45-35,81.997
		c-30.996,47.002-41.997,56.001-66.997,56.001c-85,0-261.001-143.999-313.003-256.001c-32.998-70-42.998-196.997-21.997-271.001
		c16.997-60.996,111.997-162.998,185-198.999c50-23.999,61.997-26.001,151.001-21.997C2440,7336,2463.999,7341,2513.999,7366
		c80,38.999,177.002,136.001,213.003,211.997c25,54.004,30.996,60,52.998,56.001c32.998-6.001,193.999,93.999,197.998,123.003
		c5,31.997-22.998,47.998-55,33.999c-22.998-11.001-28.999-10-38.999,2.998c-11.001,15-27.998,96.001-21.997,100
		c1.997,1.001,40,25,85,53.003l81.997,51.997l45.005-31.001c47.998-30.996,56.992-50.996,30-61.997c-20-8.003-15-55,6.992-68.999
		c12.002-8.003,27.002-3.003,60,20c115,78.999,238.008,145.996,322.002,173.999c50,17.998,96.006,36.001,101.006,40
		s5,20,1.992,33.999c-5.996,25-10,27.002-41.992,22.002c-28.008-5-37.002-2.002-49.004,15.996
		c-15.996,26.001-117.002,308.003-112.002,314.004c2.998,1.997,87.002-45,187.998-105c314.004-185,292.002-175,355-167.002
		c32.002,3.999,57.002,12.002,61.006,20C3999.004,8212.997,3959.004,8338.998,3905.996,8486z M2845,8016.669l-10,168.33
		l110.835-111.665C2946.919,8063.383,2853.711,8016.669,2845,8016.669z"/>
	<path d="M2330,8827.997c-37.002-10-87.002-41.997-107.002-65.996c-15.996-20-16.997-74.004-0.996-90
		c8.999-9.004-1.001-12.002-45-12.002c-116.001,0-222.002-66.001-215-133.999c2.998-26.001,8.999-33.003,45-46.001
		c58.999-22.002,65.996-33.999,12.998-23.999c-73.999,15-145,7.998-202.998-18.999c-58.003-26.001-111.001-84.004-105-114.004
		c1.997-10,25.996-28.999,52.998-42.998l50-25l-95-5c-87.002-5-101.001-7.998-152.002-38.999
		c-60-37.002-76.997-58.999-80.996-106.001c-3.003-45,35-60,157.998-60c128.999,0,186.001,16.001,242.002,70
		c55.996,53.999,58.999,88.999,7.998,111.001c-18.999,6.997-43.999,13.999-55,13.999c-12.002,0-18.999,3.999-16.001,8.999
		c3.003,3.999,48.999,11.001,103.003,13.003c106.997,5.996,160.996,22.998,205.996,65c33.003,32.998,36.001,75.996,5,96.997
		c-26.997,20-16.997,23.003,83.003,28.999c60,3.003,86.997,10,122.998,31.001c67.002,38.999,87.002,90,46.001,118.999
		c-18.999,13.003-12.998,14.004,55,16.001c83.999,2.002,142.998,18.999,192.002,57.002c43.999,32.998,40,60-12.002,96.001
		C2543.999,8827.997,2416.001,8852.997,2330,8827.997z"/>
	<path d="M7400.996,8627.997c4.004-110.996,7.002-128.999,32.002-180c37.002-75,90-120,137.002-115.996
		c32.002,2.998,35,5.996,42.002,42.998c10,60,8.994,195-2.002,235c-5,18.999-32.998,57.998-62.002,87.002
		c-48.994,50-55,52.998-100.996,52.998h-49.004L7400.996,8627.997z"/>
	<path d="M6527.998,8583.998c-10.996-23.999-8.994-28.999,15-50c32.998-27.998,45,0-112.002-266.997
		C6342.998,8116,6312.001,8071,6300,8076c-54.004,22.998-80,12.998-80-32.002c0-16.001,20.996-32.998,90-72.998
		c95.996-53.999,109.004-58.003,127.998-38.999c17.998,17.998,14.004,38.999-12.998,67.998l-24.004,25l90,152.998
		c50,85,93.008,151.001,96.006,148.003c2.998-3.003,27.002-133.003,53.994-288.003c47.002-280,47.002-282.998,79.004-310.996
		c17.998-16.001,40-27.002,50.996-25c14.004,1.997,62.002,75,164.004,247.998l142.998,245h49.004
		c45.996,0,47.998,1.001,47.998,28.999c0,26.001-10,35-89.004,83.003c-47.998,30-95.996,52.998-103.994,50.996
		c-9.004-1.997-21.006-15.996-26.006-30.996c-8.994-24.004-6.992-31.001,18.008-50l27.998-23.003l-82.998-141.997
		c-46.006-78.003-86.006-138.003-90-134.004c-7.002,8.003-75,382.002-87.002,476.001l-7.002,58.999L6655,8561
		c-44.004,26.997-87.998,47.998-97.998,48.999C6547.998,8609.999,6534.003,8597.997,6527.998,8583.998z"/>
	<path d="M7657.998,8537.997c-20-35.996-15.996-181.997,7.002-257.998c15-48.999,30.996-77.002,65-112.002
		c59.004-61.997,92.998-65,115-11.997c7.998,20,15,45,15,55c0,11.001,4.004,18.999,9.004,18.999
		c3.994,0,10.996-37.998,12.998-83.999c7.002-98.999,30.996-158.999,85-206.001c52.998-47.002,82.002-38.999,105,28.999
		c25.996,75,32.998,167.002,17.998,230c-17.002,72.002-90,152.002-140,153.999c-30.996,2.002-37.002-1.997-55-37.998l-20-40
		l-5.996,71.001c-8.008,82.998-16.006,101.001-77.002,166.001c-37.998,40.996-50,47.998-82.998,47.998
		C7680,8559.999,7667.998,8554.999,7657.998,8537.997z"/>
	<path d="M7259.003,8126c-10-20-8.008-28.999,10-52.002c17.998-22.998,18.994-28.999,7.998-42.998
		c-56.006-66.001-249.004-285-286.006-323.003c-35.996-37.998-51.992-47.998-77.998-47.998c-27.998,0-32.998-3.999-32.998-22.998
		c0-16.001,22.002-41.001,72.998-84.004c39.004-35,115-100.996,167.002-147.998c52.998-47.002,104.004-85,115-85
		c12.002,0,45.996,26.001,80,60c50,50,57.998,62.998,49.004,77.998c-16.006,25-50,26.001-85,2.002l-30-22.002l-53.008,36.001
		c-28.994,20-62.998,47.001-75,60c-22.998,25-22.998,25-3.994,48.999c33.994,44.004,110.996,127.002,117.002,127.002
		c12.998,0,85.996-72.998,85.996-86.001c0-7.998-5.996-22.998-12.002-33.999c-17.002-26.001,0-53.999,32.998-57.002
		c19.004-0.996,38.008,15,87.002,73.003c64.004,75,71.006,97.998,40,117.998c-12.998,8.003-25,6.001-47.002-6.997l-28.994-17.002
		l-50,42.002l-50,41.997l55,63.003c30.996,35,60.996,62.998,68.994,62.998c7.002,0,40-25,73.008-56.001
		c58.994-53.999,60-56.001,45-78.999c-22.002-32.998-15-68.999,13.994-72.998c30-4.004,121.006,73.999,122.002,105
		c0,15-25,43.999-82.002,93.999c-45.996,38.999-128.994,111.997-185,160c-55,48.999-107.998,88.999-117.002,88.999
		C7277.001,8149.999,7265,8138.998,7259.003,8126z"/>
	<path d="M8127.998,8097.997c-17.002-30.996-22.998-241.997-8.994-293.999c5.996-22.998,26.992-61.997,46.992-87.998
		c29.003-38.003,41.005-47.002,62.001-43.999c44.004,5,75,80.996,80,198.999c5,113.999-5.996,156.001-55,210
		c-28.994,31.997-42.002,38.999-73.994,38.999C8150,8119.999,8137.998,8114.999,8127.998,8097.997z"/>
	<path d="M1390,7998.998C1316.001,7966,1270,7911,1270,7856c0-37.002,27.002-46.001,137.002-46.001
		c156.997,0,278.999,53.999,297.998,132.998c16.001,62.002-15,77.002-162.998,77.002C1456.001,8019.999,1426.001,8016,1390,7998.998
		z"/>
	<path d="M8347.001,7837.997c-40-85.996-49.004-213.999-22.002-305.996c15.996-54.003,70.996-122.001,99.004-122.001
		c8.994,0,25,15,35.996,32.998c10,17.002,22.998,37.002,29.004,43.003c5,6.997,6.992,15,3.994,17.998
		c-3.994,3.003-0.996,6.001,6.006,6.001c8.994,0,10.996-6.001,5.996-17.002c-4.004-10-10-60.996-12.002-112.998
		c-5-82.998-2.998-101.001,16.006-141.001c26.992-56.001,62.998-91.997,87.998-86.997c10,1.997,27.002,20,37.998,40
		c30.996,57.998,44.004,55,27.998-5c-8.994-32.002-12.998-83.003-10-134.004c2.998-67.998,7.998-87.998,30-120.996
		c34.004-52.002,64.004-63.003,89.004-31.001c10.996,12.998,25,31.001,32.998,41.001c7.002,8.999,10.996,18.999,7.998,21.997
		c-3.994,3.003-0.996,6.001,6.006,6.001c6.992,0,8.994,5,5.996,10c-2.998,6.001-0.996,10,5,10s7.998,5,5,10
		c-2.998,6.001-2.002,10,2.998,10s9.004,6.001,10,12.998c0,6.001,6.006,40,12.998,74.004c15,73.999,2.002,150.996-33.994,205
		c-17.998,25.996-31.006,33.999-59.004,35.996c-35,3.003-37.998,1.001-60.996-43.999c-15-28.999-27.002-42.998-31.006-36.001
		c-3.994,7.002-1.992,12.002,4.004,12.002s7.998,5,5,10c-2.998,6.001-2.002,10,4.004,10c5,0,8.994,46.001,7.998,113.999
		c-2.002,110-2.998,116-32.002,158.002c-27.002,37.998-35.996,42.998-72.998,45.996c-40,3.003-42.998,1.001-52.998-27.998
		c-17.002-47.998-23.008-27.002-20,63.999c2.998,95-12.002,142.002-61.006,193.999c-22.998,23.003-40.996,32.002-63.994,32.002
		C8367.997,7869.999,8359.999,7863.998,8347.001,7837.997z"/>
	<path d="M4625,7849.999c-900-61.001-1715-527.998-2237.998-1282.998c-318.003-458.003-471.001-912.998-508.003-1507.002
		C1845,4502.998,1965,3902.001,2192.998,3490C2370,3167.998,2530,2957.998,2781.001,2715C3295,2217.002,3795,1979.004,4515,1887.998
		c152.002-18.994,609.004-15.996,770,6.006c352.998,45.996,670,137.998,940,273.994c267.998,134.004,552.998,349.004,795,597.998
		C7457.001,3217.998,7722.998,3760,7822.001,4400c30,195,32.002,654.004,5,850C7737.998,5883.999,7540,6331,7149.003,6785
		c-85,98.999-300,312.002-394.004,391.001c-360.996,302.998-780.996,517.998-1179.004,602.998
		C5265.996,7846,4935,7871,4625,7849.999z M4805.996,7501c-3.994-42.002-26.992-218.003-50.996-391.001
		c-75.996-547.002-157.998-1420.996-170-1830c-7.002-220.996-2.002-245,50-245c27.002,0,35,9.004,75.996,77.002
		C4789.003,5242.001,4880,5470,5042.001,5940c122.998,357.002,205,855,233.994,1412.998c4.004,85,10,127.002,18.008,127.002
		c30-1.001,92.998-83.999,207.998-275c20-32.998,50-72.998,65.996-88.999c27.002-25,35-27.002,72.002-21.001
		c24.004,3.999,75,22.998,115,42.002c104.004,48.999,322.998,90.996,339.004,65c2.998-5-40-71.001-96.006-148.003
		C5570,6461,5247.001,5912.998,4974.003,5310.996C4867.998,5080,4865.996,5062.001,4940,4975c167.998-197.998,300-462.998,395-790
		c24.004-82.002,75-294.004,115-470c117.998-530,160.996-669.004,292.002-950c90.996-195,132.002-272.998,193.994-365.996
		C5960,2362.002,5980,2330,5980,2325.996c0-10.996-65.996-5.996-120.996,10c-67.002,20-172.002,72.002-262.002,130
		C5560,2490,5520,2510,5509.003,2510c-33.008,0-73.008-34.004-142.002-122.998c-72.002-91.006-142.002-160-160-154.004
		c-12.002,4.004-11.006,30,2.998,302.002c12.998,225.996,12.002,794.004,0,975c-32.998,467.002-120,874.004-235.996,1102.002
		c-44.004,85.996-68.008,118.994-120,167.002c-63.008,58.994-66.006,60.996-120,60.996c-126.006,0-166.006-87.002-180-395
		c-12.002-255.996,7.998-455,135.996-1390c65.996-477.998,125-894.004,130.996-922.998c7.002-27.998,10-54.004,7.002-57.002
		c-8.994-9.004-75.996,49.004-115.996,100c-22.002,27.998-72.002,100.996-111.006,164.004
		C4492.998,2510.996,4475.996,2530,4430,2530c-34.004,0-42.998-5.996-80.996-52.002c-97.002-120-189.004-202.002-202.002-180
		c-2.998,4.004,37.002,432.002,88.994,952.002L4330,4195v660c0,844.004-15,1120-80,1512.002C4210,6606,4172.001,6753.999,4075,7050
		c-45.996,140-87.998,273.999-92.998,296.001l-9.004,41.997l29.004-7.998c27.002-7.998,75-41.001,212.998-146.001
		c59.004-45,60.996-46.001,114.004-40c53.994,6.001,55.996,8.003,208.994,153.999c215,204.003,256.006,241,266.006,235
		C4809.003,7579.999,4809.003,7542.997,4805.996,7501z M3565.996,7178.999C3547.002,7115,3535,7028.999,3515,6815
		c-25-260-27.002-338.999-37.002-1095c-5-447.998-7.002-885-3.994-970c10-277.998,50.996-665,116.992-1095
		c25-160.996,207.002-1192.002,223.008-1257.002c1.992-10,0.996-20-3.008-22.002c-3.994-2.998-87.998,94.004-186.992,215
		C3515,2725,3435.996,2812.998,3422.002,2817.002c-44.004,10.996-90-7.998-157.002-62.002c-37.002-30-72.998-55-80-55
		c-25.996,0-35.996,35.996-25,85c22.998,104.004,50.996,370.996,62.002,600.996c8.994,192.002,8.994,345-1.006,683.008
		c-10.996,412.998-12.998,436.992-31.992,455.996c-18.008,17.998-32.002,20-150.005,19.004c-176.001-2.002-171.001,2.998-210-210
		C2785,4095,2670,3414.004,2670,3390.996c0-10.996-5-31.992-11.001-47.998c-15-40-21.997-22.998-57.998,147.002
		c-36.001,165.996-62.002,250-92.002,299.004l-20,33.994l-86.001-5.996C2307.002,3810,2250,3825,2250,3857.001
		c0,25,35,82.998,108.999,182.998c68.003,90.996,110,169.004,188.003,350c260,597.998,435,1287.998,577.998,2272.998
		c24.004,164.004,45.996,301.001,50,305c4.004,4.004,15-3.999,24.004-17.998c42.998-63.999,62.998-81.001,95-77.998
		C3322.998,6875,3330,6883.999,3405,7027.998c80,154.004,159.004,262.002,177.002,244.004
		C3587.998,7266,3582.002,7232.001,3565.996,7178.999z M6700.996,6732.001c121.006-129.004,218.008-298.003,353.008-610
		c95-219.004,90-212.002,131.992-212.002c29.004,0,34.004-2.998,30-17.002C7192.001,5810.996,7165,5679.003,7130,5480
		c-22.002-127.998-44.004-237.998-50-244.004c-7.002-6.992-10-5.996-10,1.006c0,5.996-22.002,130.996-50,278.994
		c-95.996,518.003-172.002,767.002-302.002,984.004c-78.994,132.998-103.994,160-142.998,160c-17.998,0-37.998-6.001-44.004-13.999
		c-13.994-17.002-51.992-270-85-566.001c-82.998-740.996-95-1507.002-35-2230c31.006-380,96.006-800,138.008-895
		c28.994-65.996,46.992-60.996,150,42.998C6895,3197.998,7037.998,3425,7190.996,3780c32.002,74.004,66.006,140.996,76.006,147.002
		C7290.996,3945,7365,3942.998,7380,3925c10-12.002,9.004-27.002-7.998-77.998c-32.998-102.002-156.006-345-230-457.002
		C7014.003,3197.002,6820,2967.998,6660,2820.996l-87.002-78.994l-30.996,18.994c-30,20-47.998,45-131.006,185
		c-90,153.008-210.996,453.008-276.992,686.006C5990,4145,5950.996,4775,6025.996,5365c70,550,248.008,1108.999,450,1412.002
		l56.006,82.998l50-27.002C6609.003,6817.998,6662.998,6772.001,6700.996,6732.001z"/>
	<path d="M3047.002,5377.998c-65-310-117.002-570.996-117.002-580c0-15.996,12.998-17.998,140-17.998h140v467.998
		C3210,5810,3204.004,5940,3180,5940C3165.996,5940,3145,5848.999,3047.002,5377.998z"/>
	<path d="M1227.002,7763.998C1195,7753.998,1160,7731,1123.999,7696c-46.001-43.999-53.999-58.003-53.999-88.999
		c0-41.001,18.999-57.002,68.999-57.002c16.001,0,33.003-3.999,36.001-10c3.999-6.001-7.998-10-27.998-10
		c-125,0-254.004-107.001-245-202.998C905,7295,905,7295,970,7292.001c122.998-6.001,237.002,33.999,302.998,106.997
		c61.001,67.002,61.001,122.001,1.001,128.999c-46.001,5-50,20-7.998,27.002c102.998,17.998,161.997,47.998,205,107.998
		c35,48.003,36.997,82.002,6.997,98.003C1442.002,7779.999,1282.998,7782.001,1227.002,7763.998z"/>
	<path d="M7732.001,7697.997c-16.006-15.996-15-33.999,3.994-61.997c15-23.999,14.004-25-127.998-143.002
		C7357.998,7286,7370.996,7295,7325.996,7295c-68.994,0-60-22.998,79.004-195c167.998-207.002,167.998-207.002,200-192.002
		c42.002,19.004,135,92.002,135,105c0,37.002-50.996,48.003-100,22.002c-27.002-13.999-30.996-12.998-54.004,7.998
		c-13.994,12.002-42.998,44.004-63.994,72.002l-39.004,48.999L7652.001,7305C7865.996,7481,7862.998,7478.999,7889.003,7456
		c22.998-21.001,60-18.003,73.994,5c12.002,18.999,15,12.998-102.002,157.998C7785.996,7709.999,7760,7726,7732.001,7697.997z"/>
	<path d="M1702.002,7466C1651.001,7402.998,1610,7345,1610,7337.998c0-17.998,20-37.998,38.999-37.998c8.003,0,25,8.999,37.002,20
		l21.001,21.001l70-53.003c160-120.996,321.997-253.999,322.998-263.999c0-21.001-25-63.999-38.999-63.999
		c-8.003,0-22.002-7.002-31.001-15c-20-18.999-287.998-38.999-307.002-22.998c-6.997,5.996-12.998,30-12.998,55
		c0,52.998-17.998,90.996-60,126.997C1622.998,7126,1608.999,7130,1553.999,7130c-61.001,0-66.997-2.002-103.999-37.002
		c-32.998-31.997-92.998-128.999-213.999-343.999c-11.001-20-17.002-42.998-13.003-51.997c9.004-24.004,46.001-21.001,74.004,5
		l22.998,20.996l215-123.999L1751.001,6475l-7.002-35c-2.998-18.999-6.997-40-6.997-47.002c0-7.998-14.004-5-39.004,8.003
		c-21.997,11.001-51.997,18.999-65.996,16.997c-22.002-1.997-28.003-8.999-30-35c-3.003-25.996,1.997-33.999,26.997-48.999
		c17.002-10,33.003-23.999,36.001-31.997c5-15-37.998-149.004-52.998-164.004c-5-5-46.001,5-98.003,25
		c-86.001,32.002-88.999,34.004-87.998,64.004c1.001,16.997,7.998,42.998,16.001,58.999c11.997,26.001,17.998,28.999,55,26.001
		c37.998-3.003,42.998-1.001,48.999,21.997c2.998,13.999,3.999,30,1.997,36.001c-3.999,12.002-171.997,78.999-198.999,80
		c-36.001,0-38.999-66.001-3.999-82.002c13.999-5.996,25-13.999,25-17.998c0-12.002-32.002-105-38.999-112.002
		C1325,6231,1175,6281,1162.002,6293.999c-7.002,8.003,15,82.002,38.999,128.999c17.998,35,21.997,37.002,61.997,35
		c41.001-2.998,42.002-1.997,45,29.004c3.003,28.999-0.996,33.999-46.997,57.998c-28.003,13.999-63.003,25-78.999,25
		c-26.001,0-30-6.001-60-87.002c-102.002-280-133.003-375-130-390c1.997-10.996,13.999-18.999,30.996-20.996
		c21.001-3.003,29.004,1.997,36.001,20.996c6.001,14.004,13.999,28.003,18.999,31.001c5,3.003,115-32.998,245-80
		c219.004-80,237.002-87.998,246.001-115c7.002-21.001,16.001-28.999,35-28.999c21.001,0,27.002,8.999,43.999,57.998
		C1658.999,5988.999,1692.002,6076,1720,6150c28.999,73.999,52.998,155,55,180c2.002,27.002,7.998,46.001,17.002,47.998
		C1808.999,6382.001,1945,6618.999,1945,6645c0,30-57.998,33.999-77.998,3.999l-16.001-21.997l-95,52.998
		c-53.003,28.999-93.003,56.001-91.001,60c2.998,3.999,85,11.001,182.998,15l178.003,7.002l27.998,51.997
		c16.001,28.003,36.001,65,45,83.003c8.999,17.998,21.001,31.997,28.003,32.998c15.996,0,192.998,223.999,192.998,243.999
		c0,8.999-11.001,22.002-25,28.003c-22.002,10-28.999,7.998-48.999-11.001c-15-13.999-30-20-38.003-15
		c-45,26.001-377.998,300-377.998,311.001c0,6.997,6.001,21.997,12.002,32.998c15.996,23.999,0.996,52.998-29.004,57.998
		C1798.999,7579.999,1770,7552.001,1702.002,7466z M1558.999,6951c25-13.003,43.003-33.003,55-58.999
		c17.002-38.003,17.002-41.001-1.001-80l-17.998-40L1502.002,6826l-93.003,55L1430,6910c23.999,33.999,57.998,60,77.998,60
		C1515,6970,1537.998,6961,1558.999,6951z"/>
	<path d="M930,7255c-30-8.999-72.002-27.002-92.002-40c-50-32.998-98.999-117.998-95.996-165l2.998-35l65-5l65-5l-40-12.002
		c-22.002-6.997-52.998-15-68.999-18.999c-43.999-10-130-100-151.001-156.997c-26.001-70-12.998-94.004,55-98.003
		c27.998-1.997,53.999-1.001,57.998,2.002c4.004,3.999,25,11.997,47.002,18.999c107.998,33.999,177.998,90,213.999,170
		c36.001,77.998,28.003,90-60,90c-31.001,0-47.998,3.999-43.999,10c2.998,6.001,12.002,10,20,10
		c37.002,0,128.999,46.001,173.999,86.001c55,48.999,93.003,126.001,73.003,146.001C1133.999,7270,992.002,7272.001,930,7255z"/>
	<path d="M8859.003,7012.998c-80-126.997-91.006-318.999-23.008-393.999c24.004-26.997,44.004-23.999,75,13.999
		c15,17.002,30,29.004,33.008,26.001c2.998-2.998-4.004-30-15-60c-28.008-73.999-24.004-203.999,6.992-246.001
		c33.008-43.999,52.002-40.996,104.004,16.001c25.996,28.003,45.996,51.001,44.004,51.001c-2.002,0,6.992,21.001,20,47.998
		c63.994,129.004,32.998,302.002-54.004,302.002c-15.996,0-32.002-5-35-10c-12.002-20-24.004,1.001-15,26.001
		c5.996,13.999,10,56.997,10,95c0,106.997-37.002,178.999-92.002,178.999C8894.999,7060,8884.003,7051,8859.003,7012.998z"/>
	<path d="M8059.003,6875C7912.001,6827.998,7820,6701,7820,6545c0-121.001,42.002-225,127.998-317.002
		c42.002-45,47.998-47.998,92.998-47.998c42.002,0,49.004,2.998,49.004,20c0,11.001-17.998,37.998-40,60
		c-42.002,42.002-92.998,132.998-105,188.999C7920.996,6560,8060,6712.001,8207.001,6736
		c50.996,7.998,132.002-26.001,172.002-71.001c27.998-32.002,70.996-130,70.996-161.001c0-26.001-19.004-52.998-50-68.999
		c-22.998-12.002-30-22.002-30-45c0-16.001,4.004-32.002,10-35c5-2.998,47.998,6.001,95,21.001c82.998,26.001,85,26.997,85,57.998
		c0,53.999-27.002,162.002-55,221.001c-32.998,67.998-132.998,177.998-189.004,207.998
		C8262.997,6890,8125.996,6897.001,8059.003,6875z"/>
	<path d="M722.998,6705c-82.998-17.998-126.997-40-163.999-82.998C497.998,6552.998,472.002,6457.998,505,6430
		c45-37.002,226.001,31.001,302.002,112.998c41.997,45,66.997,108.003,60.996,150c-1.997,18.003-10,22.002-42.998,24.004
		C802.998,6717.998,757.002,6712.998,722.998,6705z"/>
	<path d="M9112.997,6426c-17.002-18.999-45.996-65-63.994-102.002c-32.002-63.999-34.004-76.001-34.004-165
		s2.002-100,24.004-122.998c13.994-13.999,28.994-26.001,33.994-26.001c12.002,0,127.002,100,125,107.998
		c-0.996,4.004,9.004,27.002,22.002,52.002c20.996,37.998,25,57.998,25,137.002c0,76.997-2.998,95.996-20.996,120
		C9192.001,6470,9150.995,6470,9112.997,6426z"/>
	<path d="M627.998,6403.999c-75.996-17.998-128.999-46.001-171.997-90c-41.001-41.997-68.999-116.001-63.999-171.001L395,6105
		l50-1.001c27.998-1.001,55-1.997,60-2.998c6.001-1.001-12.998-13.999-41.001-30c-27.998-16.001-63.999-45-81.001-63.999
		c-36.997-42.002-65-122.002-60.996-172.998c2.998-36.006,11.997-46.006,51.997-58.008c16.001-5.996,13.003-11.992-26.001-53.994
		C295,5665.996,277.002,5617.998,276.001,5535L275,5475l52.998-0.996c28.003-1.006,52.002,2.998,52.002,7.998s5,5.996,11.001,2.002
		c6.001-4.004-6.001-18.008-30-34.004C287.998,5402.001,240,5310.996,240,5220c0-57.998,17.998-74.004,71.001-64.004
		c23.999,4.004,47.998,8.008,51.997,8.008C367.002,5165,375,5172.001,380,5180s10,10.996,10,5c0-5,7.002-0.996,15,9.004
		c7.998,10.996,15,15.996,15,11.992c0-3.994,22.002,18.008,48.999,49.004C527.002,5320.996,550,5380,550,5462.001V5520h-36.001
		C495,5520,470,5515,460,5510c-16.001-9.004-17.998-7.998-13.999,5c3.999,9.004,8.999,14.004,11.001,10.996
		c8.999-7.998,105,106.006,123.999,148.008c10,22.998,18.999,63.994,18.999,93.994V5820h-45c-25,0-45,2.002-45,4.004
		c0,1.992,27.998,32.998,62.998,67.998C640,5957.998,670,6018.999,670,6087.998v35l-65-5c-36.001-2.998-65-2.998-65,1.001
		s20,17.002,45,28.999c100,48.003,165,137.002,165,225c0,47.002,0,47.002-32.002,46.001
		C700,6418.999,658.999,6412.001,627.998,6403.999z"/>
	<path d="M8582.997,6303.999c-7.002-2.998-12.998-22.998-12.998-45V6221L8502.997,6200
		c-37.998-11.001-143.994-42.002-237.998-68.999c-152.001-43.999-172.001-47.002-192.001-35
		c-12.002,7.998-33.994,13.999-47.998,13.999c-20.996,0-25-5-25-28.999c0-16.001,7.002-48.003,15-72.002
		c9.004-23.999,27.002-88.999,40.996-143.999c14.004-55,34.004-127.998,45-162.002c20-60,22.002-62.998,52.002-62.998
		c17.998,0.996,59.003,5.996,92.001,12.998c57.002,12.002,60,14.004,62.998,45l2.998,32.002h-50
		c-46.992,0-51.992,2.002-66.992,32.998c-25,46.006-55,150-46.005,158.003c4.004,2.998,107.001,33.999,230,67.998
		c234.004,65,242.998,66.001,257.002,20c5.996-18.999,30-23.999,59.004-12.998c22.998,8.999,18.994,42.998-22.002,183.999
		c-31.006,102.998-41.006,125-57.002,127.002C8604.003,6307.998,8589.003,6306,8582.997,6303.999z"/>
	<path d="M9234.999,6131C9164.003,6087.001,9109.003,5995,9089.003,5885c-12.002-65.996-4.004-149.004,15.996-165
		c19.004-15,75-10,100,9.004c19.004,15,19.004,15,4.004-4.004c-49.004-60-83.008-179.004-72.002-252.002c7.998-55.996,20-65,70-60
		c38.994,4.004,42.002,2.002,28.994-12.002c-37.998-42.998-60-107.998-63.994-187.998c-6.006-110.996,8.994-127.002,92.998-100
		c5.996,2.002,42.002,35,80.996,75c47.002,47.002,74.004,84.004,82.002,110c16.006,52.002,16.006,184.004,0,200
		c-15,15-62.998,16.006-88.994,2.002c-15-9.004-12.002,2.998,17.998,55.996c30,54.004,37.002,79.004,40.996,138.008
		c6.006,93.994-12.998,135.996-60,135.996c-18.994,0-42.002-9.004-55.996-22.002c-14.004-12.998-21.006-15.996-16.006-7.998
		s9.004,17.002,9.004,20c0.996,2.998,12.002,27.998,27.002,55c13.994,27.998,27.998,68.999,32.002,91.001
		c10.996,77.998-22.002,183.999-58.008,183.999C9269.999,6150,9252.001,6142.001,9234.999,6131z"/>
	<path d="M1512.998,5560c41.001,0,35-17.002,63.003,182.002c7.998,63.994,12.998,121.997,8.999,127.998
		c-2.998,5-18.999,10-33.999,10c-25,0-30-5-35-35c-3.999-19.004-12.002-35-18.999-35c-7.002,0-117.002,14.004-245,31.001
		c-151.001,21.001-239.004,36.997-248.003,46.001C996.001,5895,990,5915,990,5931c0,25-3.999,28.999-28.999,28.999
		s-30-5-33.999-32.002c-3.003-17.998-11.001-72.998-18.003-122.002c-11.997-83.994-11.997-90,5-100
		c67.002-40,366.001-238.994,366.001-245c0-2.998-97.998-36.992-218.999-75l-218.003-68.994l-16.997-121.006
		C817.002,5129.003,810,5072.001,810,5067.998c0-5,16.001-7.998,35-7.998c27.002,0,35,4.004,35,17.998
		c0,10,6.001,26.006,12.998,36.006C905,5130,917.998,5130,1135,5100c127.002-17.002,240-37.998,251.001-45
		c22.998-15,37.998-87.002,22.998-115C1405,4932.001,1275,4855.996,1120,4770.996l-282.002-153.994l6.001-30
		C847.002,4570.996,850,4550,850,4540c0-12.998,16.001-22.002,62.998-34.004c98.003-26.992,489.004-145.996,520-157.998
		c15-5.996,35-23.994,43.003-38.994c15-30,56.001-40,70-18.008C1557.002,4310,1527.998,4530,1513.999,4530
		c-30,0-43.999-12.998-43.999-40.996c0-37.002-13.999-42.002-70-26.006c-55,16.006-65,35-73.999,139.004l-6.001,77.002
		l43.999,25.996c53.003,30.996,63.999,30.996,76.001,0c7.002-19.004,17.002-25,41.001-25h31.997l-6.997,72.998
		c-26.001,272.002-27.002,292.998-15,375c11.001,71.006,10,85-2.002,92.998c-28.999,18.008-48.999,10-56.001-21.992
		c-2.998-17.002-12.998-33.008-20.996-37.002c-8.003-2.998-74.004,2.002-146.001,12.002c-160,20.996-186.001,25.996-186.001,35
		c0,2.998,97.998,37.998,217.998,75.996c119.004,37.002,220,70.996,224.004,74.004c3.999,2.998,8.999,16.992,12.998,30.996
		c6.001,24.004-7.002,34.004-192.002,155C1185,5649.003,1150,5675.996,1170,5677.998c40,4.004,288.999-33.994,305-47.998
		c8.999-7.998,12.002-22.002,7.998-40.996C1477.998,5560.996,1478.999,5560,1512.998,5560z M1021.25,4573.75l176.953,70
		c1.782-31.25,0-103.75,0-103.75L1021.25,4573.75z"/>
	<path d="M23390.994,5868.999c-155-29.995-280.996-98.003-396.992-213.999C22912,5572.998,22897,5552.001,22847,5450
		c-67.998-139.004-92.998-234.004-109.004-402.002c-20-222.998,17.002-487.002,92.002-645.996
		C22930.994,4185.996,23137,4017.998,23352,3975c148.994-29.004,385-19.004,545.996,24.004l42.002,11.992V4145
		c0,85.996-4.004,135-10,135s-32.998-12.002-60.996-25.996C23750.994,4195,23584.998,4175,23464.998,4205
		c-232.998,60-372.002,227.998-437.002,530c-20,94.004-17.002,365,5,445c62.998,232.998,220,402.002,422.998,455
		c113.008,29.004,260,12.002,382.002-45c105-49.004,102.002-52.002,102.002,100.996v130l-37.002,15
		c-68.994,29.004-182.002,44.004-325.996,43.003C23499.002,5877.998,23414.998,5873.999,23390.994,5868.999z"/>
	<path d="M10569.999,4920.996V3970h135h135l2.002,387.998l2.998,387.002l145,7.002c80,2.998,175.996,12.998,214.004,22.002
		c216.992,50.996,345,185,382.998,401.992c18.994,112.002,12.998,262.002-17.002,356.006c-34.004,112.002-134.004,225-250,282.998
		c-80.996,42.002-125.996,47.002-442.002,52.002l-307.998,5V4920.996z M11090.995,5620c106.006-32.002,152.002-67.998,190-145.996
		c32.002-64.004,34.004-75,34.004-169.004c0-82.998-4.004-109.004-22.998-150.996c-29.004-63.008-82.002-116.006-144.004-144.004
		c-63.994-27.998-270-49.004-292.002-30c-13.994,10.996-15.996,55-15.996,330c0,174.004,2.998,320,7.002,322.998
		C10862.001,5649.003,11029.003,5640,11090.995,5620z"/>
	<path d="M11849.999,4920v-950h465h465v120v120h-319.004c-257.998,0-320.996,2.998-330,14.004
		c-7.998,8.994-10.996,100-8.994,311.992l2.998,299.004l297.998,2.998l297.002,2.002v115v115h-289.004
		c-231.992,0-290.996,2.998-300,14.004c-7.998,8.994-10.996,90.996-8.994,276.992l2.998,264.004l312.998,2.998l312.002,2.002v120
		v120h-450h-450V4920z"/>
	<path d="M12929.999,5750v-120h202.998c145,0,206.006-2.998,215-12.002c9.004-8.994,12.002-207.002,12.002-830V3970h130h130
		l2.002,827.998l2.998,827.002l212.998,2.998l212.002,2.002v120v120h-560h-560V5750z"/>
	<path d="M14909.999,4920v-950h135h135l2.002,432.998l2.998,432.002l294.004,2.998c207.998,2.002,297.998-0.996,306.992-8.994
		c12.002-9.004,14.004-88.008,14.004-435V3970h130h130v950v950h-130h-130l-2.002-397.002l-2.998-397.998l-294.004-2.998
		c-207.998-2.002-297.998,0.996-306.992,8.994c-11.006,9.004-14.004,83.008-14.004,400V5870h-135h-135V4920z"/>
	<path d="M16439.998,4920v-950h465h465v120v120h-319.004c-257.998,0-320.996,2.998-330,14.004
		c-7.998,8.994-10.996,100-8.994,311.992l2.998,299.004l297.998,2.998l297.002,2.002v115v115h-289.004
		c-231.992,0-290.996,2.998-300,14.004c-7.998,8.994-10.996,90.996-8.994,276.992l2.998,264.004l312.998,2.998l312.002,2.002v120
		v120h-450h-450V4920z"/>
	<path d="M18114.998,5857.998c-44.004-120.996-625-1865-625-1873.994c0-11.006,27.002-14.004,132.998-14.004h132.998l75,242.998
		l74.004,242.002l332.002,2.998l332.002,2.002l15-22.002c7.998-12.998,41.992-115,75.996-227.998s67.002-212.998,72.002-222.002
		c7.998-15.996,25-17.998,142.998-17.998h135v24.004c0,20.996-574.004,1795.996-600,1853.994
		c-9.004,21.001-14.004,22.002-150,22.002C18157,5870,18117.996,5867.001,18114.998,5857.998z M18379.002,5127.998
		c67.998-222.002,125.996-410.996,128.994-420C18512,4690.996,18494.998,4690,18257,4690c-177.998,0-257.998,2.998-262.998,10.996
		C17987,4712.001,18239.998,5530,18249.998,5530C18252.996,5530,18310.994,5349.003,18379.002,5127.998z"/>
	<path d="M19209.998,4920v-950h435h435v120v120H19787c-215,0-296.006,2.998-305,12.002c-9.004,8.994-12.002,207.002-12.002,830V5870
		h-130h-130V4920z"/>
	<path d="M19939.998,5750v-120h197.998c141.006,0,201.006-2.998,210-12.002c9.004-8.994,12.002-207.002,12.002-830V3970h135h135
		l2.002,827.998l2.998,827.002l212.998,2.998l212.002,2.002v120v120h-560h-560V5750z"/>
	<path d="M21279.998,4920v-950h130h130l2.002,432.998l2.998,432.002l299.004,2.998c211.992,2.002,302.998-0.996,311.992-8.994
		c12.002-9.004,14.004-89.004,14.004-435V3970h130h130v950v950h-130h-130l-2.002-397.002l-2.998-397.998l-299.004-2.998
		c-211.992-2.002-302.998,0.996-311.992,8.994c-11.006,9.004-14.004,83.008-14.004,400V5870h-130h-130V4920z"/>
	<path d="M24370.994,4937.998c-170.996-512.998-310.996-940.996-310.996-950.996c0-16.006,10.996-17.002,132.002-15l130.996,2.998
		l71.006,230c38.994,127.002,75,235.996,78.994,242.998c12.002,17.998,662.002,17.998,674.004,0
		c3.994-7.002,40-115.996,78.994-242.998l72.002-230l141.006-2.998c130-2.002,140.996-1.006,140.996,15
		c0,10-137.002,437.002-304.004,947.998L24972,5865l-145,2.998l-144.004,3.003L24370.994,4937.998z M24947.996,5117.001
		c67.002-221.006,122.002-407.998,122.002-414.004c0-10-57.998-12.998-254.004-12.998c-140,0-256.992,4.004-260,7.998
		c-2.998,5,50,185,118.008,400C24814.002,5542.001,24807,5520,24817,5520C24820.994,5520,24879.998,5339.003,24947.996,5117.001z"/>
	<path d="M25769.998,4920v-950h135h135l2.002,422.998l2.998,422.002l82.998-2.002c85-2.998,155-23.994,195-60.996
		c36.006-32.002,79.004-135,187.998-454.004c60-177.002,109.004-322.998,109.004-325s65-2.998,145-2.998
		c134.004,0,145,0.996,145,17.998c0,10-62.998,197.998-140,417.002c-144.004,412.002-160,447.002-227.998,490
		c-17.002,10.996-31.006,22.002-31.006,25c-0.996,2.998,25,15.996,57.002,30c69.004,29.004,167.998,124.004,199.004,190
		c50,107.998,57.002,314.004,13.994,435c-37.998,107.002-155.996,225-260,260c-77.998,25-205,35-487.998,35h-262.998V4920z
		 M26384.998,5595c67.002-35,82.002-47.002,105.996-90c90-160.996,25-364.004-140-437.002
		c-56.992-25.996-270.996-38.994-295.996-17.998c-12.998,10.996-15,55.996-15,295c0,155,2.998,285,7.998,289.004
		c4.004,3.994,64.004,5.996,132.998,3.994C26305.994,5635,26307.996,5635,26384.998,5595z"/>
	<path d="M27159.998,4920v-950h465h465v120v120h-324.004c-261.992,0-325.996,2.998-335,14.004
		c-7.998,8.994-10.996,100-8.994,311.992l2.998,299.004l297.998,2.998l297.002,2.002v115v115h-289.004
		c-231.992,0-290.996,2.998-300,14.004c-7.998,8.994-10.996,90.996-8.994,276.992l2.998,264.004l312.998,2.998l312.002,2.002v120
		v120h-445h-445V4920z"/>
	<path d="M8739.999,5655c0-22.002-5.996-37.002-17.002-44.004c-10-5-102.998-15.996-207.998-25
		c-104.004-8.994-207.002-20.996-227.002-26.992c-92.998-25-132.998-100-132.001-249.004c1.006-52.002,6.006-114.004,13.008-137.998
		c13.994-51.006,72.998-120,117.998-139.004c40-15.996,163.994-15.996,337.998,1.006c72.998,6.992,137.002,8.994,147.002,5
		c8.994-5,18.994-22.002,22.998-39.004c5-22.002,12.002-30,27.998-30c44.004,0,47.998,10.996,37.002,85.996
		c-5,38.008-10,90-10,117.002V5220h-35c-32.998,0-35-2.002-35-35c0-45.996-12.998-50.996-167.002-64.004
		c-168.994-15-237.998-13.994-273.994,5c-46.006,23.008-74.004,97.002-70,181.006c1.992,32.998,47.998,82.002,88.994,92.002
		c52.002,13.994,359.004,41.992,377.998,33.994c8.008-2.998,18.008-17.998,21.006-33.994c5-25,10-29.004,40.996-29.004h35
		l-7.002,62.998c-2.998,34.004-8.994,96.006-11.992,137.002c-8.008,115-10,120-44.004,120
		C8742.001,5690,8739.999,5687.001,8739.999,5655z"/>
	<path d="M403.999,5177.001c-126.997-85-146.001-112.002-166.001-226.006c-10.996-61.992-10-75.996,3.003-98.994
		c27.998-50,72.998-42.002,157.998,27.998C476.001,4944.003,530,5045,530,5125.996c0,29.004-2.998,59.004-6.001,68.008
		C513.999,5220.996,457.002,5212.998,403.999,5177.001z"/>
	<path d="M9329.003,5145c-107.002-89.004-152.002-177.002-147.002-287.002l2.998-62.998l40,0.996c50,0,67.002,5,82.002,24.004
		c7.002,7.998,12.998,12.998,12.998,9.004c0.996-17.002,104.004,96.992,120,132.998c22.998,52.998,34.004,142.002,22.002,182.998
		c-7.002,25.996-14.004,30-49.004,32.998C9379.003,5180.996,9365.995,5175,9329.003,5145z"/>
	<path d="M8177.001,4737.998c-12.998-122.998-15-175.996-7.998-215.996c12.998-67.998,20-80,75-130l45.996-42.002h80.996h82.002
		l40,42.002c37.002,37.998,40,40,50,22.002c6.006-10,22.998-31.006,37.998-46.006c24.004-23.994,35-27.998,88.008-27.998
		c32.998,0,70.996,5,85,12.002c42.998,18.994,65.996,82.002,76.992,213.994c5,66.006,14.004,155,19.004,199.004
		c14.004,110,15,105-25,105c-30,0-35-2.998-35-22.002c-0.996-52.998-2.002-52.998-217.002-33.994c-275,25-292.998,28.994-317.998,60
		c-10.996,13.994-30,25.996-40.996,25.996C8194.999,4900,8192.997,4887.998,8177.001,4737.998z M8419.999,4662.001l65-7.002
		l-0.996-40c-1.006-30-9.004-45-33.008-67.002c-72.998-65-200.996-7.998-200.996,91.006c0,37.998,5,40.996,59.004,35
		C8334.003,4670.996,8384.003,4665,8419.999,4662.001z M8747.001,4617.001c10.996-11.006,10.996-20,2.998-42.998
		c-25-66.006-67.998-81.006-125.996-45c-36.006,21.992-63.008,82.998-45,105C8592.001,4650,8727.001,4637.001,8747.001,4617.001z"/>
	<path d="M398.999,4847.001C291.001,4765.996,251.001,4695,250,4589.003c0-71.006,16.001-99.004,57.002-99.004
		c30.996,0,33.999-10,10.996-54.004c-15-27.998-21.997-66.992-25.996-127.998c-4.004-77.002-2.002-90.996,13.999-108.994
		c15-16.006,26.997-20,61.001-16.006l41.997,4.004L390,4159.003c-30-41.006-52.998-145-46.001-203.008
		c7.002-58.994,28.999-85.996,68.999-85.996c30,0,104.004,45.996,93.003,57.998c-3.999,2.998,2.998,15,12.998,26.006
		C530,3965.996,551.001,4000,567.002,4030c25,47.998,27.998,65.996,27.998,145.996c0,124.004-27.002,152.002-96.001,103.008
		l-30-21.006l28.999,46.006c41.001,62.998,55,122.998,50,205c-3.999,85-13.999,97.998-58.999,81.992
		c-17.998-5.996-33.999-8.994-36.997-6.992c-2.002,2.998,7.998,20,21.997,38.994C510,4670,530,4732.998,530,4800
		c0,77.998-6.001,90-43.999,90C465,4890,437.002,4875.996,398.999,4847.001z"/>
	<path d="M9352.997,4825c-58.994-30-130.996-102.998-163.994-165.996c-17.002-33.008-23.008-62.002-23.008-114.004l-0.996-70h47.998
		c26.006-0.996,47.002,2.002,47.002,5c0,4.004,5.996,7.002,14.004,7.002c6.992,0-12.002-24.004-43.008-52.998
		c-73.994-68.008-100.996-123.008-100.996-203.008v-61.992l50,2.998c27.002,2.002,50,7.002,50,10.996c0,5,5,5,10,2.002
		c5.996-4.004-14.004-24.004-42.998-45c-82.002-59.004-136.006-157.002-137.002-247.998c0-22.002,2.998-24.004,52.998-22.002
		c75,2.998,75,2.998,26.006-29.004c-93.008-57.998-147.002-133.994-157.002-216.992c-4.004-38.008-2.002-42.002,22.002-48.008
		c31.992-7.998,141.992,17.002,195,43.008c48.994,25.996,117.998,102.998,131.992,150c6.006,20,9.004,55.996,7.002,80.996
		c-2.998,44.004-3.994,45-40,47.998c-20.996,2.002-37.998,7.002-37.998,11.006c0,3.994,20.996,21.992,45.996,38.994
		c62.002,44.004,96.006,117.998,92.002,199.004l-2.998,57.998l-47.002-0.996c-27.002,0-47.998,3.994-47.998,10
		c0,5,2.998,6.992,5.996,2.998c14.004-14.004,104.004,87.002,124.004,140c24.004,63.994,27.002,145,5,162.998
		c-15,12.002-52.998,10-87.002-5c-32.002-12.998-18.994,10.996,22.002,40.996c70.996,52.002,119.004,194.004,90.996,267.002
		C9447.997,4857.998,9419.999,4857.998,9352.997,4825z"/>
	<path d="M538.999,3942.998c-83.999-80-113.999-145-113.999-250c0-67.002,3.999-85.996,21.001-110
		c31.997-42.002,67.998-42.002,110,1.006c18.999,20,31.001,35.996,26.997,35.996c-3.999,0-1.997,4.004,6.001,9.004
		c8.003,5,16.001,15,17.002,22.998c1.997,7.002,13.999,40,27.998,72.998c42.002,99.004,30,275-18.999,275
		C606.001,4000,572.002,3975,538.999,3942.998z"/>
	<path d="M1408.999,3842.998c-6.001-15-26.001-67.998-43.999-117.998l-32.998-90L1205,3632.002
		c-157.002-2.998-157.998-9.004-27.998-102.002c50.996-35.996,91.997-70,91.997-75c1.001-5.996-16.997-57.002-38.999-115
		s-40-110.996-40-117.002c0-27.002,37.998-10.996,137.002,57.002l101.997,70l103.003-70c56.997-37.998,110.996-70,120.996-70
		c26.001,0,22.002,35-17.998,140.996c-18.999,52.002-35,99.004-35,106.006c0,5.996,40,40,90,75
		C1815,3620,1812.002,3630,1666.001,3630c-88.003,0-116.001,2.998-126.001,15c-7.002,7.998-28.999,60.996-50,117.002
		C1450,3872.998,1428.999,3892.998,1408.999,3842.998z"/>
	<path d="M8240.995,3700l-43.994-120h-122.998c-159.004,0-162.002-9.004-33.008-100c49.004-35,92.002-67.002,94.004-70.996
		c2.998-4.004-12.998-55-35-113.008c-22.002-57.998-40-112.998-40-120.996c0-27.002,30-15.996,122.998,47.998
		c50,34.004,96.005,65,102.998,69.004c6.006,3.994,56.006-22.998,114.004-62.002c105-70.996,140-85,140-52.002
		c0,10-17.998,67.002-40,127.002c-29.004,80.996-35.996,110.996-27.002,117.002c51.006,28.994,177.002,130.996,177.002,142.998
		s-22.002,15-122.002,17.002L8404.999,3585l-40,105c-45,117.998-50.996,130-67.998,130
		C8289.999,3820,8264.999,3765.996,8240.995,3700z"/>
	<path d="M643.999,3672.998c-32.998-35-86.001-117.002-105-162.998c-7.998-20.996-13.999-69.004-13.999-117.002
		c0-77.002,2.002-83.994,28.999-112.002c17.002-17.998,40-30.996,53.999-30.996c25,0,85,42.998,75,54.004
		c-3.999,2.998,0,5.996,7.002,5.996s11.001,2.998,7.002,5.996c-3.003,3.008,5.996,32.002,20,63.008
		c35,75.996,43.999,227.998,15.996,280.996C708.999,3705.996,678.999,3710,643.999,3672.998z"/>
	<path d="M9117.997,3564.004c-25-8.008-75-33.008-108.994-57.002c-74.004-49.004-119.004-114.004-126.006-182.002l-5.996-45h60.996
		c180,0,320,112.998,310,250.996c-2.998,44.004-2.998,44.004-42.998,46.006C9182.997,3577.998,9144.003,3572.998,9117.997,3564.004z
		"/>
	<path d="M737.002,3347.002c-20-22.998-48.003-67.002-63.003-97.002c-23.999-45.996-27.998-67.002-27.998-135
		c0-47.002,6.001-90,12.998-105c21.001-40,53.003-70,73.999-70c20,0,70,34.004,61.001,42.002c-2.998,2.998,2.002,7.998,10,10.996
		c13.003,5,13.003,2.002,0-27.998c-16.997-40.996-18.999-177.998-2.998-225.996c26.001-75,80-100,126.001-57.002
		c12.998,12.002,25,20,26.997,17.002c2.002-2.002,0-29.004-5-59.004c-10-57.998-2.998-142.002,13.003-175
		c5.996-10.996,23.999-35,40.996-52.002c40-42.002,72.002-42.998,95-2.998c9.004,15.996,20,30,23.003,30
		c2.998,0,3.999-32.998,1.001-72.998c-6.001-100,15.996-174.004,63.999-217.002c46.997-40.996,82.998-37.998,103.999,7.002
		c7.998,17.998,17.998,32.998,22.998,32.998c4.004,0,7.002-40.996,7.002-92.002c0-103.994,18.999-158.994,72.002-202.998
		c45.996-39.004,77.998-30.996,105,25c48.999,97.998,38.999,259.004-20,347.002c-55,80-81.001,82.002-123.003,8.994
		c-12.998-22.998-23.999-33.994-27.998-26.992c-3.999,5.996-3.999,10.996,1.001,10.996c11.997,0-2.002,189.004-16.001,225
		c-21.001,52.002-60,95-86.001,95c-17.002,0-31.001-10.996-48.999-42.002c-30-50-28.999-52.002-26.001,72.998
		c1.001,52.002-2.998,113.008-8.999,136.006c-13.003,48.994-46.001,92.998-70,92.998c-18.003,0-61.001-40-78.003-74.004
		c-6.997-11.992-12.998-15-16.997-6.992c-3.999,5.996-3.999,10.996,1.001,10.996c10.996,0,17.998,60,17.998,170.996
		c0,88.008-2.002,99.004-27.998,137.002c-34.004,52.002-56.001,52.998-96.001,5c-32.002-40.996-33.999-35-12.002,42.998
		c13.999,51.006,13.999,152.002,0,195C831.001,3402.002,788.999,3410.996,737.002,3347.002z"/>
	<path d="M10569.999,2375v-945h135h135l2.002,387.998l2.998,387.002l150,5.996c85,4.004,177.998,13.008,215,23.008
		c155.996,38.994,274.004,128.994,330.996,250c83.008,176.992,75,461.992-15.996,605.996c-37.998,60-122.002,140-182.998,172.998
		c-95,52.002-140,57.002-469.004,57.002h-302.998V2375z M11074.999,3085c32.998-9.004,85-30.996,115-49.004
		c45.996-27.998,60.996-45,90-100.996c32.998-65,35-72.998,35-169.004c0-83.994-4.004-110-22.998-151.992
		c-27.998-63.008-82.002-116.006-142.998-143.008c-80-35-272.002-53.994-297.002-28.994c-9.004,8.994-12.002,95.996-12.002,327.998
		c0,174.004,2.998,320,7.002,322.998C10859.003,3105.996,11015.995,3100,11074.999,3085z"/>
	<path d="M11849.999,2375v-945h440h440v115v115h-292.998c-215,0-296.006,2.998-305,12.002c-9.004,8.994-12.002,207.002-12.002,830
		V3320h-135h-135V2375z"/>
	<path d="M13369.003,3292.998c-21.006-55-619.004-1845.996-619.004-1853.994c0-5,60.996-9.004,135-9.004h134.004l20,67.998
		c11.992,37.002,45,146.006,75,242.002l53.994,175l330,2.998l331.006,2.002l15-22.002c7.998-12.998,41.992-112.998,75-222.998
		c33.994-110,65-210,70.996-222.002c9.004-22.002,14.004-22.998,145-22.998h135v25.996c0,21.006-270,860-540.996,1682.002
		L13667.997,3320h-143.994h-144.004L13369.003,3292.998z M13644.003,2575c68.994-225.996,125.996-414.004,125.996-417.998
		c0-11.006-507.998-9.004-515,2.998c-4.004,5.996,50.996,190.996,120,412.998c125,394.004,134.004,422.002,140,415
		C13517.001,2985.996,13574.999,2800,13644.003,2575z"/>
	<path d="M14469.999,2375v-945h125h125v727.002c0,412.002,4.004,722.998,9.004,717.002c3.994-5,153.994-326.006,331.992-714.004
		c177.002-387.998,327.002-710.996,332.002-717.002c7.002-10,52.998-12.998,167.998-12.998h159.004v945v945h-125h-125v-714.004
		c0-392.998-4.004-716.992-7.998-720c-5-2.998-152.002,308.008-327.002,692.002c-174.004,382.998-324.004,707.002-330.996,720
		c-14.004,21.006-19.004,22.002-174.004,22.002h-160V2375z"/>
	<path d="M8945.995,3235c-32.998-12.998-75-37.002-95-52.998c-46.992-37.998-91.992-112.002-93.994-154.004l-2.002-32.998
		l79.004-2.998c106.992-4.004,163.994,15.996,231.992,82.002c53.008,51.992,79.004,110,72.002,158.994
		c-2.998,20-10,22.002-67.998,24.004C9019.999,3259.004,8992.001,3254.004,8945.995,3235z"/>
	<path d="M8914.003,2970c-89.004-12.998-184.004-50-226.006-87.998c-47.002-42.998-80-104.004-75.996-140l2.998-27.002l100,0.996
		c80,1.006,110,5,150,23.008c92.002,40.996,149.004,116.992,142.998,193.994C9004.999,2980.996,8999.003,2982.998,8914.003,2970z"/>
	<path d="M1975,2539.004c-110-93.008-202.002-177.002-202.998-185c-4.004-16.006,43.999-74.004,60.996-74.004
		c5,0,47.002,32.002,93.003,70c45,39.004,86.001,70,91.001,70c3.999,0,41.997-40.996,82.998-90c41.001-50,80-90,87.998-90
		c24.004,0,62.002,32.002,62.002,54.004c0,11.992-33.999,60-76.001,110l-76.001,90l43.003,37.998
		c23.999,20,46.001,37.998,48.999,37.998s45-47.002,92.998-105c50-60,95-105,105-105c24.004,0.996,62.002,35,62.002,55
		c0,10-52.002,80-116.001,155.996c-85,101.006-122.998,139.004-137.998,138.008C2183.999,2709.004,2090,2637.002,1975,2539.004z"/>
	<path d="M8652.001,2670c-79.004-20.996-112.998-40.996-160-95c-32.998-37.002-51.006-100-34.004-117.002
		c6.006-5.996,52.998-8.994,124.004-5.996c135,3.994,192.002,27.002,245.996,97.998c27.998,35.996,32.998,50,30,89.004
		l-2.998,45.996l-65,2.002C8750.995,2687.998,8695.995,2682.002,8652.001,2670z"/>
	<path d="M7919.003,2307.998l-40,35l20,21.006c26.992,27.998,25.996,37.998-2.002,63.994c-29.004,27.002-45,27.998-72.998,1.006
		l-21.006-20l-115.996,100C7624.003,2565,7562.998,2610,7552.001,2610c-10,0-26.006-7.998-35-17.998c-10-10-17.002-26.006-17.002-35
		c0-9.004,20.996-106.006,45.996-214.004c40-172.002,50-200.996,73.008-220c13.994-12.002,30.996-22.002,36.992-22.998
		c7.002,0,44.004,35.996,84.004,80l72.002,80l40.996-35c47.998-40.996,57.002-42.002,85-12.002
		C7970,2247.002,7965,2269.004,7919.003,2307.998z M7670,2300c-38.691,0-38.691,60,0,60S7708.691,2300,7670,2300z"/>
	<path d="M8442.001,2400.996c-91.006-31.992-176.006-116.992-170-170.996c2.002-20,10-27.002,42.998-34.004
		c70-15,70.996-18.994,5-26.992c-122.998-15-240-96.006-240-167.002c0-32.002,35-42.998,155-49.004
		c97.998-5,100.996-3.994,165,29.004c72.998,37.002,110,82.002,110,135c0,27.998-5,35.996-30,47.002
		c-34.004,13.994-30,25.996,9.004,25.996c40.996,0.996,105,34.004,155,82.998c45,42.998,46.992,47.002,43.994,92.998l-2.998,49.004
		l-95,2.002C8519.003,2419.004,8482.001,2415,8442.001,2400.996z"/>
	<path d="M2482.998,2245.996c-90.996-28.994-166.997-97.998-210.996-195c-31.001-66.992-36.001-175.996-10-225.996
		c20.996-39.004,118.999-132.002,155-145.996c50-20,161.997-15,217.998,10c107.998,46.992,193.999,165,202.998,276.992
		c6.001,86.006-10.996,128.008-80.996,202.002C2710,2215.996,2685,2234.004,2646.001,2245
		C2586.001,2262.998,2538.999,2262.998,2482.998,2245.996z M2647.998,2122.998c51.001-28.994,96.001-108.994,85-152.998
		c-18.999-79.004-110.996-180-185-202.002c-36.997-10.996-45-10-95,17.002c-60.996,32.002-102.998,90-102.998,144.004
		c0,68.994,75,170,155,206.992C2561.001,2162.002,2582.998,2160,2647.998,2122.998z"/>
	<path d="M7565.996,1945c-10,52.998-68.994,114.004-116.992,120.996c-45,8.008-54.004,17.002-63.008,66.006
		c-3.994,23.994-17.998,47.002-41.992,67.002c-30,26.992-42.002,30.996-92.002,30.996c-36.006-0.996-70-7.998-92.998-20
		c-75-39.004-117.002-122.002-104.004-202.002c9.004-50.996,50-97.998,95-107.002c32.998-5.996,35-8.994,40-55.996
		c7.002-62.002,20-87.002,67.002-122.002c30.996-23.994,45-27.998,97.998-27.002C7494.003,1697.002,7590.996,1812.002,7565.996,1945
		z M7222.5,1980c-75.884-13.682-135,138.75,0,163.75C7306.088,2159.228,7375,2007.5,7222.5,1980z M7407.998,1804.004
		c-37.998-20-82.002-4.004-102.998,36.992c-22.998,43.008-17.998,64.004,20,98.008c45,38.994,77.998,40,115.996,1.992
		C7487.001,1894.004,7474.003,1837.998,7407.998,1804.004z"/>
	<path d="M1561.001,2020c-28.003-65-38.003-170.996-21.001-239.004c7.998-35.996,25-65.996,57.002-100.996
		c38.999-42.998,50-50,81.997-50c35,0,38.999,2.998,48.999,39.004c7.002,20.996,12.002,50,12.002,65
		c0,13.994,3.999,25.996,7.998,25.996c9.004,0-3.999,125-18.999,182.002c-5,20-23.999,55.996-41.997,80
		c-26.001,33.994-40,43.994-68.003,45.996C1583.999,2070.996,1582.002,2069.004,1561.001,2020z"/>
	<path d="M2936.001,1775c-102.002-180-115-210.996-116.001-282.998c0-61.006,13.999-94.004,62.002-139.004
		c100-95.996,255-95.996,335,1.006c35.996,45,202.998,331.992,202.998,350.996c0,20-40,45-70,45c-22.002,0-35.996-20-114.004-155
		c-85.996-150.996-137.998-215-173.994-215c-9.004,0-36.001,9.004-59.004,20c-51.997,22.998-85.996,72.998-77.998,114.004
		c2.998,15.996,47.998,102.998,100,192.998c52.002,90.996,95,167.998,95,172.998c0,14.004-55.996,50-77.002,50
		C3028.999,1930,3001.001,1890,2936.001,1775z"/>
	<path d="M8055,1920.996c-62.002-8.994-109.004-31.992-157.002-78.994c-63.994-61.006-42.998-101.006,61.006-117.998
		c22.998-4.004,42.998-10,45.996-13.008c2.002-3.994,37.998-3.994,80,0c84.004,8.008,144.003,37.002,189.003,90
		c28.994,34.004,35,89.004,11.992,108.008C8269.003,1922.998,8122.998,1930.996,8055,1920.996z"/>
	<path d="M7127.001,1605.996c-7.998,71.006-45,111.006-129.004,138.008C6984.003,1747.998,6980,1760,6980,1795
		c0,37.998-5.996,50.996-35.996,85c-36.006,39.004-38.008,40-103.008,40c-40-0.996-77.998-7.002-95.996-17.002
		c-74.004-38.994-105-87.998-105-167.002c0-46.992,4.004-60,30-90c17.002-18.994,40.996-35.996,52.998-37.998
		c20-2.998,22.002-10,27.002-75c5-68.994,7.002-75,47.002-115c42.002-40.996,43.994-42.002,110-42.002
		c80,0,132.998,23.008,180.996,78.008C7122.998,1494.004,7135,1540,7127.001,1605.996z M6795,1699.17
		c-87.5-3.311-93.75,130.83,0,138.33C6907.392,1846.494,6894.926,1702.949,6795,1699.17z M6934.003,1470
		c-15,0-38.008,12.002-55,29.004c-48.008,48.994-35,100,35.996,138.994c25.996,14.004,29.004,14.004,60,0
		c27.998-12.998,55-55,55-85.996C7030,1525,6965,1470,6934.003,1470z"/>
	<path d="M1775,1797.998c-22.002-75.996-20-218.994,3.999-267.002c42.002-81.992,148.003-145.996,177.002-105.996
		c30,40.996,30,189.004-1.001,290.996c-21.001,71.006-82.002,134.004-130,134.004C1792.002,1850,1790,1847.998,1775,1797.998z"/>
	<path d="M7735,1675.996c-62.998-30-107.998-75.996-102.998-106.992c2.998-22.002,22.998-37.002,72.998-55
		c12.002-5-20.996-10-85-14.004c-110.996-7.002-152.002-20.996-202.002-67.998C7377.001,1394.004,7380.996,1365,7430,1340
		c22.002-10.996,40-22.002,40-25c0-2.002-35.996-2.002-79.004,2.002c-133.994,10-250.996-35-250.996-97.002
		c0-19.004,7.002-34.004,20-42.002c10.996-7.002,20-15,20-17.998s-45.996-5-102.002-5c-90.996,0-107.998-2.998-147.998-25
		c-37.002-20.996-45.996-30.996-47.998-57.002c-2.998-28.994,2.002-35.996,50.996-67.998c97.002-65,196.006-80.996,296.006-47.998
		c86.992,27.998,128.994,102.002,78.994,137.002c-12.002,8.994-20,15.996-17.998,15.996c175,5,214.004,14.004,272.998,60
		c35,27.998,37.998,80.996,5,104.004c-12.002,8.994-20,15.996-17.998,16.992c2.998,0,39.004,2.002,80,4.004
		c127.002,4.004,210,55,210,127.002c0,33.994-4.004,40.996-32.002,52.998c-17.998,7.998-30.996,15-27.998,15
		c2.998,0.996,37.002,2.002,75,2.998c54.004,2.002,82.998,9.004,127.998,31.006c66.006,31.992,89.004,60.996,91.006,113.994
		c0.996,32.998-2.002,37.998-34.004,49.004c-19.004,5.996-84.004,12.002-145,12.002C7800,1700,7777.998,1697.002,7735,1675.996z"/>
	<path d="M6317.998,1669.004c-12.002-7.002-17.998-23.008-17.998-49.004c0-42.002-10.996-57.002-65-97.002
		c-25.996-18.994-27.998-23.994-20-48.994c12.998-36.006,37.002-41.006,85.996-18.008c22.002,9.004,42.002,15,45,12.002
		c3.008-2.998,36.006-75,74.004-158.994c52.002-116.006,74.004-155,89.004-157.002c27.998-5,80.996,25,80.996,45.996
		c0,9.004-47.002,121.006-104.004,247.002c-90,200-106.992,230-126.992,232.002C6345.996,1679.004,6327.001,1675,6317.998,1669.004z
		"/>
	<path d="M2012.998,1612.998C2002.002,1585,1998.999,1550,2002.002,1470c3.999-115.996,13.999-144.004,75-210.996
		c31.997-35,40-39.004,82.998-39.004h47.002l12.998,45.996c17.002,60,0,189.004-36.001,261.006
		c-28.999,60-96.001,122.998-131.001,122.998C2035,1650,2025,1640.996,2012.998,1612.998z"/>
	<path d="M3455,1399.004c-49.004-139.004-90.996-260-92.998-271.006c-4.004-18.994,30.996-37.998,72.002-37.998
		c20,0,28.994,17.002,80.996,162.998c50,140,75,199.004,75,174.004c0-32.002,94.004-425,104.004-435
		c6.992-7.998,30.996-16.006,52.998-19.004c32.998-3.994,40.996-2.002,47.002,12.998C3827.002,1069.004,3970,1474.004,3970,1485
		c0,20-25.996,37.002-60.996,37.998l-31.006,2.002L3815,1350c-35-95.996-64.004-172.998-65-170s-22.998,102.002-47.998,220
		c-51.006,235-49.004,230-127.998,245.996l-29.004,5L3455,1399.004z"/>
	<path d="M4070.996,1200c-25-142.998-45-269.004-45-282.002c-0.996-20,7.002-22.998,99.004-38.994
		c122.002-22.002,215-23.008,257.998-6.006c137.002,57.998,205,347.998,109.004,466.006c-50,61.992-71.006,70.996-217.002,96.992
		c-77.002,13.008-144.004,24.004-150,24.004S4095,1345.996,4070.996,1200z M4285,1335c67.998-12.002,110.996-40,129.004-85
		c38.994-97.998-4.004-244.004-86.006-285.996c-25-13.008-40-14.004-97.998-4.004c-37.998,5.996-72.998,17.002-79.004,22.998
		c-5.996,7.998,1.006,67.998,19.004,176.006c34.004,191.992,35,193.994,57.002,187.998
		C4237.001,1344.004,4262.998,1339.004,4285,1335z"/>
	<path d="M2256.001,1427.998c-8.999-37.002-7.002-190,3.999-230c12.998-47.002,81.001-132.998,121.001-152.998
		c16.997-9.004,43.999-15,61.997-12.998c28.003,2.998,32.002,7.998,40,42.998c13.003,62.998,0,170.996-30,237.002
		C2417.998,1390.996,2352.002,1450,2300,1450C2268.999,1450,2261.001,1445.996,2256.001,1427.998z"/>
	<path d="M5372.998,1407.002c-100-19.004-112.998-24.004-112.998-42.002c0-10.996,20.996-134.004,47.002-274.004
		c32.998-178.994,50.996-255,62.002-258.994C5390,824.004,5620,870,5662.001,890.996c75,38.008,107.998,110,107.998,234.004
		c0,112.002-20.996,175.996-77.002,235.996C5622.001,1437.002,5570.996,1444.004,5372.998,1407.002z M5600.996,1294.004
		c25-22.002,59.004-108.008,66.006-163.008c7.002-60.996-10-112.998-47.002-143.994c-30.996-27.002-155-56.006-170-41.006
		c-10,12.002-72.998,354.004-65.996,362.002c2.998,2.998,33.994,11.006,68.994,17.002
		C5519.003,1337.998,5562.998,1327.998,5600.996,1294.004z"/>
	<path d="M8385.995,1390c-66.992-20.996-105.996-85-105.996-177.998c0-52.998,2.998-61.006,34.004-91.006
		c25-25,51.992-36.992,111.992-51.992c125-31.006,163.008-48.008,170-74.004c19.004-75.996-80-122.002-170.996-77.998
		c-25,12.002-39.004,27.998-50.996,60C8357.001,1020,8357.001,1020,8307.001,1020h-50l5.996-57.002c5-50,11.006-62.002,49.004-100
		s52.002-45,105.996-52.998c72.998-12.002,167.998,0,214.004,27.002c57.002,32.998,72.998,65.996,72.998,148.994
		c0,71.006-0.996,75-35,109.004c-30,30-52.998,40-145,64.004c-77.998,20-114.004,35-127.002,50.996
		c-22.998,27.998-22.002,32.002,2.002,62.998c29.004,36.006,70,42.998,122.998,19.004c35-16.006,47.998-27.998,57.998-56.006
		c12.002-35,15-35.996,61.006-35.996h47.998v50c0,42.998-5,55-35.996,90c-21.006,22.998-51.006,44.004-72.002,50
		C8537.997,1402.002,8427.001,1402.002,8385.995,1390z"/>
	<path d="M8779.999,1105V820h50h50v157.002c0,93.994,4.004,152.998,9.004,147.998c5-5.996,30.996-75,58.994-155l50-145l52.998-2.998
		l54.004-2.998l55,160.996c30,87.998,57.998,160,62.002,160c5,0,7.998-72.002,7.998-160V820h50h50v285v285h-67.002h-67.998
		l-69.004-200c-37.998-110-70-200-70.996-200c-2.002,0-32.998,90-70,200l-67.002,200h-68.994h-69.004V1105z"/>
	<path d="M4710,1090V810h215h215v45v45h-154.004c-120,0-155.996,2.998-165,14.004c-6.992,8.994-10.996,37.998-8.994,72.998
		L4815,1045l147.998,2.998l147.002,2.998V1095v45h-139.004c-160.996,0-163.994,0.996-158.994,82.002L4815,1275l157.998,2.998
		l157.002,2.998V1325v45h-210h-210V1090z"/>
	<path d="M2516.001,1249.004c-8.999-49.004-7.002-143.008,5-199.004c8.999-40.996,21.997-64.004,67.998-112.002
		c55-57.998,60-60.996,113.003-65.996c51.997-4.004,56.997-2.998,60,17.002c3.999,30,21.997,30.996,25.996,1.992
		c2.002-12.998,32.002-52.998,66.001-87.998l63.003-63.994l53.999,2.998L3025,745l6.001,50c5,50.996,8.999,49.004,28.999-17.002
		c12.002-40,99.004-133.994,137.002-148.994c12.998-5,45.996-9.004,72.998-9.004h49.004l2.998,47.998L3325,715l22.998-47.002
		c30-60,110-135,154.004-142.998c18.994-4.004,52.002-5,72.998-2.998l40,2.998l5,50l5,50l22.002-40.996
		c28.994-54.004,115-131.006,160.996-144.004c80-22.002,132.002-7.002,132.002,37.002c0,27.002,0.996,25.996,47.998-19.004
		C4045,400.996,4092.002,380,4162.998,380c57.998,0,77.002,12.002,77.002,47.002c0,12.998,0.996,22.998,2.998,22.998
		s24.004-19.004,47.998-42.998C4340.996,360,4392.001,340,4467.998,340c54.004,0,82.002,17.002,82.002,50.996
		c0,27.002,12.002,24.004,45-10.996s107.002-60,175-60c74.004,0,107.998,37.998,80,90.996c-15,28.008-5,24.004,39.004-15.996
		c63.994-57.998,205-92.002,260.996-62.998c32.002,17.002,39.004,70.996,12.998,100.996c-10,11.006,7.002,2.002,37.002-20
		c64.004-47.002,135.996-67.002,215-60.996c65,5,85,20,85,62.998c0,27.002-12.002,42.998-74.004,102.002
		c-50,48.994-87.998,75-120.996,87.002c-47.998,15.996-167.998,21.992-199.004,10C5085,605.996,5085,555,5105,515.996
		c14.004-25.996,10.996-25-30.996,13.008c-69.004,63.994-118.008,81.992-211.006,78.994L4785,605l-5.996-37.002
		c-3.008-22.002-1.006-42.002,5-48.994c5.996-7.002-12.002,5.996-39.004,28.994C4675,605,4634.003,620,4544.003,620h-76.006
		l2.998-44.004l4.004-43.994l-57.998,53.994C4355,644.004,4315,660,4232.998,660c-50.996,0-52.998-0.996-52.998-27.998
		c0-16.006-2.998-32.002-7.002-35c-2.998-4.004-30,15-57.998,42.002C4057.998,692.998,4015,710,3934.004,710
		c-45,0-52.002-2.998-57.002-22.002c-6.006-20-7.998-18.994-50,19.004C3764.004,765,3730,780,3662.002,780h-60l-4.004-35.996
		c-2.002-19.004,0-38.008,4.004-40c5-3.008,5-10,2.002-16.006C3600,682.998,3590,695,3580,717.002
		c-22.998,48.994-114.004,137.002-162.002,157.998c-20.996,7.998-50.996,15-67.998,15c-29.004,0-30-0.996-30-49.004
		c0-63.994-12.998-71.992-30.996-17.998C3270,880.996,3165.996,985.996,3117.998,995c-57.002,10.996-82.998,2.998-85.996-25
		c-6.001-52.998-14.004-55-33.003-5.996c-30,80.996-116.997,160.996-186.001,171.992c-38.999,6.006-40.996,5-52.998-26.992
		L2747.998,1075l-10.996,37.998C2712.998,1189.004,2613.999,1280,2555,1280C2527.002,1280,2522.002,1275.996,2516.001,1249.004z"/>
	<path d="M6670,1000c-7.998-5-27.998-15-45-22.002c-37.002-15.996-47.002-67.998-17.002-90c41.006-28.994,30-35-30.996-15.996
		c-46.006,15-81.006,18.994-132.998,15c-132.002-7.002-178.008-61.006-112.002-127.998c30-30,30-32.002,5.996-16.006
		C6300.996,765.996,6205.996,790,6150,790c-42.002,0-99.004-15-127.002-32.998c-15.996-10-17.002-51.006-2.002-77.998
		c10-20,9.004-20-30.996,0.996c-50.996,25.996-177.998,37.002-237.002,20.996C5712.001,690,5710,687.002,5710,652.998
		c0-20,7.998-45.996,17.998-57.002C5745,575,5745,575,5725,592.002C5677.998,630.996,5617.001,650,5532.001,650
		c-99.004,0-122.002-9.004-122.002-50.996c0-24.004,14.004-44.004,69.004-98.008C5567.001,414.004,5597.001,400,5695,400
		c97.002,0,135,17.002,135,62.002c0,17.002-7.998,40-17.002,50.996c-12.998,14.004-2.002,10,39.004-12.002
		c48.994-26.992,65.996-30.996,132.002-30.996c98.994,0,155.996,20.996,155.996,59.004c0,15-7.002,35.996-15,47.998l-15,20.996
		l42.002-20c58.994-28.994,150.996-33.994,220.996-13.994c74.004,21.992,99.004,65,60,107.998
		c-15,17.002-13.994,17.002,32.998,2.998c99.004-30,228.008-14.004,265,32.998c25,32.002,24.004,50-2.998,80l-22.998,25l25-7.998
		c49.004-14.004,147.998-17.002,205-5c65,12.998,105,45,105,82.998c0,31.006-82.998,91.006-155,112.002
		C6832.001,1010.996,6694.003,1014.004,6670,1000z"/>
</g>
</svg>
