<?xml version="1.0" encoding="utf-8"?>
<!-- Generator: Adobe Illustrator 15.1.0, SVG Export Plug-In  -->
<!DOCTYPE svg PUBLIC "-//W3C//DTD SVG 1.1//EN" "http://www.w3.org/Graphics/SVG/1.1/DTD/svg11.dtd" [
	<!ENTITY ns_flows "http://ns.adobe.com/Flows/1.0/">
]>
<svg version="1.1"
	 xmlns="http://www.w3.org/2000/svg" xmlns:xlink="http://www.w3.org/1999/xlink" xmlns:a="http://ns.adobe.com/AdobeSVGViewerExtensions/3.0/"
	 x="0px" y="0px" width="111px" height="107px" viewBox="0 0 111 107" style="enable-background:new 0 0 111 107;"
	 xml:space="preserve">
<style type="text/css">
<![CDATA[
	.st0{fill-rule:evenodd;clip-rule:evenodd;stroke:#000000;stroke-miterlimit:10;}
]]>
</style>
<defs>
</defs>
<path class="st0" d="M75.429,33.938c2.667-1.5-0.725-8.373,0.167-11.417c2.917-9.958,0.511-11.677,2.396-17.583
	c4.188,0.688,7.355,5.707,8.031,8.031c7.786,1.224,9.099,0.911,14.094-0.656c2.617-0.821,7.281-4.406,10.313-4.375
	c0.469,1.563-1.922,4.86-2.531,6.344c-1.828,4.451-1.552,5.656,2.531,10.656c0.75,1.5-1.166,10-6,14
	c1.12,3.947,1.155,8.026,0.443,12.034c-1.818,10.242-8.513,20.021-14.443,25.967c5.93,9.947-2.461,18.34-2,29
	c-3.863,0.195-7.369,0.035-10-1c-2.609-8.553-6.979-15.75-8.813-26.334c-1.309-7.557-14.792-5.223-28.188-2.666
	c-3.221,2.445-4.933,6.4-9,8c-1.138,9.805,6.949,10.383,10,16c-0.031,1.344,0.031,1.719-2,2c-7.325,0.141-7.999-6.367-15.25-6.299
	c-0.825,0.008-4.687-0.764-5.562-2.576c-1.625-9.75-1.938-3.75-5.188-13.125c7.268-5.926,3.791-21.604-2.729-27.917
	c-0.878-14.497,8.225-27.01,4.479-41.333c-1.063-4.063-5.813-5.563-7.813-3.125c-1.688,1-1.563,7.281-4.938,8.375
	c0,0-2,0.031-2.7-3.462C-0.135,8.167,1.054,0.813,11.179,0.5c8.938,0.563,13.438,7.375,13.25,30.438c-0.271,2.083,0.813,2.917,2,3
	C46.019,32.771,59.142,36.726,75.429,33.938z M80.429,89.938c4.049,1.381,3.163-2.172,6-2c-0.435-2.232-1.768-3.566-4-4
	C82.429,83.938,81.639,84.562,80.429,89.938z"/>
</svg>
