<?xml version="1.0" standalone="no"?>
<!DOCTYPE svg PUBLIC "-//W3C//DTD SVG 20010904//EN"
 "http://www.w3.org/TR/2001/REC-SVG-20010904/DTD/svg10.dtd">
<svg version="1.0" xmlns="http://www.w3.org/2000/svg"
 width="1650.000000pt" height="600.000000pt" viewBox="0 0 1650.000000 600.000000"
 preserveAspectRatio="xMidYMid meet">
<metadata>
Created by potrace 1.11, written by Peter Selinger 2001-2013
</metadata>
<g transform="translate(0.000000,600.000000) scale(0.100000,-0.100000)"
fill="#000000" stroke="none">
<path d="M0 3000 l0 -3000 8250 0 8250 0 0 3000 0 3000 -8250 0 -8250 0 0
-3000z m16479 2976 c8 -10 10 -797 9 -2987 l-3 -2974 -8224 -3 c-6072 -1
-8227 1 -8237 9 -12 10 -14 497 -14 2984 0 1634 3 2975 7 2978 3 4 3706 7
8228 7 6904 0 8224 -2 8234 -14z"/>
<path d="M2760 5043 c-172 -13 -404 -61 -560 -115 -412 -144 -809 -469 -1038
-850 -96 -161 -138 -268 -172 -445 -45 -232 -10 -683 52 -683 10 0 17 37 26
148 22 269 75 463 192 697 87 174 173 296 314 442 179 186 338 304 561 413
425 207 885 257 1319 144 406 -107 780 -356 1028 -685 299 -398 450 -941 369
-1329 -43 -204 -120 -366 -228 -481 -75 -79 -146 -126 -250 -162 -183 -66
-386 -78 -538 -33 -201 61 -357 156 -643 392 l-23 19 218 220 c284 286 470
511 524 632 44 101 61 283 38 395 -34 162 -158 290 -322 334 -68 18 -226 17
-305 -1 -82 -20 -196 -73 -276 -128 l-64 -45 -63 45 c-139 99 -272 143 -429
143 -236 0 -403 -110 -462 -303 -17 -59 -20 -86 -16 -200 6 -167 35 -264 113
-382 110 -166 366 -423 684 -688 l34 -28 -69 -70 c-198 -201 -388 -309 -629
-360 -112 -23 -287 -25 -393 -3 -233 47 -444 191 -554 377 -64 108 -74 117
-124 117 -62 0 -81 -13 -95 -63 -14 -51 -2 -112 46 -238 197 -515 661 -944
1230 -1137 644 -218 1376 -155 1837 160 107 73 257 217 311 300 38 58 50 118
24 118 -8 0 -76 -41 -153 -90 -292 -190 -632 -337 -899 -390 -512 -101 -1168
67 -1647 422 -86 64 -240 208 -291 271 l-30 38 34 -14 c19 -8 55 -24 80 -36
171 -77 512 -97 741 -42 241 57 394 148 614 363 l131 129 79 -69 c308 -265
451 -349 688 -405 132 -31 432 -31 557 0 241 61 392 156 523 330 154 205 221
410 233 714 17 423 -104 858 -331 1198 -352 526 -889 846 -1525 911 -95 9
-364 11 -471 3z m-137 -1156 c87 -32 205 -106 282 -178 34 -33 68 -59 75 -59
7 0 47 33 90 73 184 172 377 232 527 163 110 -51 158 -128 156 -256 -2 -135
-53 -256 -167 -395 -117 -142 -554 -575 -581 -575 -5 0 -82 62 -170 137 -184
158 -430 399 -499 490 -108 143 -161 336 -122 446 31 85 84 135 179 169 65 23
138 18 230 -15z"/>
<path d="M11515 4775 c-55 -12 -169 -37 -252 -55 l-153 -33 0 -68 0 -69 114 0
c83 0 117 -4 125 -14 8 -10 10 -316 9 -1142 l-3 -1129 -122 -3 -123 -3 0 -124
0 -125 395 0 395 0 0 125 0 125 -114 0 c-84 0 -117 4 -125 14 -8 9 -10 134 -9
442 l3 428 82 71 c158 136 274 188 418 189 83 1 96 -2 157 -32 51 -25 74 -43
98 -80 59 -89 60 -103 58 -587 l-3 -440 -122 -3 -123 -3 0 -124 0 -125 398 2
397 3 3 123 3 122 -119 0 c-84 0 -123 4 -130 13 -7 8 -12 182 -14 497 -4 460
-6 489 -26 564 -26 94 -66 160 -135 222 -101 90 -196 118 -382 112 -96 -4
-135 -10 -193 -30 -87 -31 -192 -95 -290 -177 -47 -40 -74 -57 -77 -49 -3 7
-6 321 -8 698 -2 600 -4 685 -17 686 -8 1 -60 -8 -115 -21z"/>
<path d="M6610 3647 c-123 -37 -248 -112 -362 -219 -27 -25 -50 -42 -53 -40
-3 3 -5 61 -5 129 l0 123 -265 0 -265 0 0 -125 0 -125 119 0 c88 0 121 -4 130
-14 8 -9 10 -165 9 -562 l-3 -549 -128 -3 -128 -3 3 -122 3 -122 393 -3 392
-2 0 125 0 125 -113 0 c-75 0 -117 4 -125 12 -9 9 -12 119 -12 434 l0 422 69
64 c85 81 142 121 234 163 138 63 261 70 365 19 61 -30 102 -80 129 -157 16
-47 18 -94 18 -502 l0 -450 -122 -3 -123 -3 0 -124 0 -125 393 2 392 3 3 123
3 122 -119 0 c-78 0 -122 4 -130 12 -9 9 -12 129 -12 479 0 505 -5 569 -53
672 -53 113 -166 204 -287 231 -102 24 -257 20 -350 -7z"/>
<path d="M8147 3660 c-134 -24 -262 -83 -335 -153 -18 -17 -46 -58 -62 -91
-25 -48 -30 -72 -30 -128 0 -81 15 -115 66 -155 31 -23 46 -27 103 -27 78 0
123 21 159 74 20 30 23 46 21 115 l-2 80 54 25 c49 22 66 25 174 25 100 -1
129 -5 177 -24 104 -41 149 -78 188 -156 34 -67 35 -74 39 -203 1 -74 -1 -138
-6 -143 -5 -5 -32 -2 -63 6 -178 47 -480 57 -615 20 -200 -56 -336 -181 -381
-350 -18 -67 -17 -188 1 -260 38 -145 170 -267 336 -312 86 -23 279 -22 374 1
81 20 230 89 299 139 27 20 53 34 58 31 4 -3 8 -41 8 -85 l0 -79 260 0 260 0
0 125 0 125 -118 0 c-78 0 -122 4 -130 12 -9 9 -12 131 -12 488 0 598 -1 602
-139 740 -80 80 -141 116 -246 145 -69 19 -359 29 -438 15z m398 -940 c160
-31 155 -26 155 -170 l0 -119 -68 -55 c-81 -66 -184 -119 -272 -142 -136 -34
-312 0 -383 74 -63 65 -85 179 -52 258 20 49 78 109 129 136 101 52 279 59
491 18z"/>
<path d="M10113 3651 c-39 -11 -91 -29 -115 -42 -55 -27 -156 -99 -187 -133
-13 -14 -28 -23 -32 -20 -5 3 -9 45 -9 95 l0 89 -265 0 -265 0 0 -125 0 -125
119 0 c88 0 121 -4 130 -14 8 -10 10 -261 9 -932 l-3 -919 -127 -3 -128 -3 0
-124 0 -125 423 2 422 3 3 122 3 123 -144 0 c-98 0 -147 4 -155 12 -15 15 -17
598 -2 598 5 0 37 -18 70 -39 199 -129 513 -144 748 -36 197 92 351 273 420
495 68 222 45 531 -53 719 -95 181 -268 326 -450 377 -95 26 -321 29 -412 5z
m257 -246 c155 -41 265 -130 330 -267 53 -111 73 -194 72 -303 0 -245 -117
-453 -306 -545 -101 -50 -179 -63 -289 -49 -132 17 -297 84 -368 150 l-29 27
0 385 0 385 52 47 c172 155 366 216 538 170z"/>
<path d="M14548 3660 c-135 -24 -246 -73 -324 -143 -70 -64 -98 -123 -102
-222 -3 -71 -1 -84 20 -114 41 -60 70 -75 146 -75 79 0 124 21 160 74 20 30
23 46 21 115 l-2 80 54 24 c102 47 288 37 402 -20 75 -39 106 -70 139 -138 31
-62 33 -73 36 -199 2 -74 0 -138 -5 -143 -5 -5 -32 -2 -63 6 -30 8 -107 21
-170 31 -137 20 -351 14 -444 -11 -183 -51 -319 -163 -372 -307 -25 -67 -30
-232 -9 -304 43 -150 169 -266 338 -311 86 -23 279 -23 372 1 88 23 235 92
298 140 26 20 52 34 57 31 6 -4 10 -42 10 -86 l0 -79 260 0 260 0 0 125 0 125
-118 0 c-78 0 -122 4 -130 12 -9 9 -12 130 -12 483 0 512 -4 549 -57 647 -58
107 -193 204 -338 244 -68 19 -349 28 -427 14z m393 -940 c163 -33 153 -23
157 -166 l3 -121 -63 -52 c-77 -63 -217 -135 -294 -151 -91 -19 -208 -9 -279
24 -33 15 -71 37 -83 49 -30 27 -67 101 -76 147 -15 85 55 205 147 252 103 52
287 59 488 18z"/>
<path d="M13100 3515 l0 -125 124 0 c92 0 126 -3 135 -14 8 -9 10 -165 9 -562
l-3 -549 -132 -3 -133 -3 0 -124 0 -125 413 2 412 3 3 123 3 122 -129 0 c-86
0 -132 4 -140 12 -9 9 -12 176 -12 690 l0 678 -275 0 -275 0 0 -125z"/>
<path d="M4049 2971 c-42 -43 -41 -99 3 -136 65 -55 158 -10 158 76 0 85 -98
122 -161 60z"/>
<path d="M3733 2670 c-25 -22 -37 -70 -28 -102 14 -45 35 -58 91 -58 45 0 56
4 73 26 30 38 28 103 -2 132 -31 29 -104 30 -134 2z"/>
<path d="M4239 2561 c-39 -39 -41 -100 -4 -136 56 -57 165 -12 165 68 0 88
-99 130 -161 68z"/>
</g>
</svg>
