<?xml version="1.0" encoding="utf-8"?>
<!-- Generator: Adobe Illustrator 15.1.0, SVG Export Plug-In  -->
<!DOCTYPE svg PUBLIC "-//W3C//DTD SVG 1.1//EN" "http://www.w3.org/Graphics/SVG/1.1/DTD/svg11.dtd" [
	<!ENTITY ns_flows "http://ns.adobe.com/Flows/1.0/">
]>
<svg version="1.1"
	 xmlns="http://www.w3.org/2000/svg" xmlns:xlink="http://www.w3.org/1999/xlink" xmlns:a="http://ns.adobe.com/AdobeSVGViewerExtensions/3.0/"
	 x="0px" y="0px" width="136px" height="122px" viewBox="0 0 136 122" style="enable-background:new 0 0 136 122;"
	 xml:space="preserve">
<style type="text/css">
<![CDATA[
	.st0{fill:#FDFFFF;}
]]>
</style>
<defs>
</defs>
<path class="st0" d="M132.526,61.784c-5,0-10.9-2.6-12.7-5.8c-0.9-1.5-2.3-5.6-3.2-9.2c-3.1-12.1-9.4-19.7-18.8-22.5
	c-6.7-2-17.3-1.9-37.9,0.1c-9.2,0.9-18.2,1.4-20.1,1c-1.9-0.3-5.3-2.2-7.5-4.1l-4.1-3.5l2.9-3.1c1.6-1.7,2.9-4.1,2.9-5.3
	c0-2.3-3.8-6.5-7.7-8.5c-2.1-1.1-3.4-1.1-10.3-0.4c-6.4,0.6-8,1.3-12,4.9c-5.4,4.9-5.4,8,0.2,12.8c3,2.6,4.4,3.3,4.9,2.4
	c0.7-1,1.1-1,2.1,0c1.2,1.2,1.7,3.7,4.3,23.5c1.2,9.7,2.1,13,5.1,19c3.5,6.8,3.8,8.4,5.8,26.5c2.1,18.6,2.1,19.4,0.4,22
	c-2.3,3.5-2.3,6.2,0,6.2c0.9,0,2.3,0.9,3,2.1c1.1,1.6,2.1,2,6,1.7c0,0,2.57,0.188,3.784,0.092c1.214-0.096,2.228-2.035,2.292-2.517
	c0.563-4.271-0.833-6.021-1.25-8.26c-0.405-2.175,1.7-39.14,3.938-42.115c0.17-0.226,2.438-1.4,5.237-2c7.5-1.4,14.4-4.6,21.9-10.2
	c7.1-5.2,8.7-5.6,12-3.3c1.9,1.3,8.6,13.1,16.9,29.6c5.4,10.6,6.8,22.8,3.3,27.3c-3.2,4.1-2.2,6,3.3,6.4c5.7,0.4,5.5,0.9,6.1-16.2
	c0.4-10.4,0.2-12.5-1.6-16.5c-2.9-6.6-3.6-22.9-1.2-30.1l1.8-5.3l2.6,5.4c1.4,2.9,3.7,6.1,5.1,7.1c3,2.1,16,3.7,16,1.9
	C136.026,62.284,134.526,61.784,132.526,61.784z M32.692,79.284c0,0-0.419-5.404-0.25-7.708c0.07-0.96,0.677-2.135,0.677-0.823
	C33.12,73.713,32.799,78.538,32.692,79.284z"/>
<path class="st0" d="M81.025,47.659c1.961,1.204,5.223,13.808,14.328,29.878c5.917,10.32,7.917,22.436,4.644,27.104
	c-2.993,4.253-1.901,6.101,3.612,6.229c5.712,0.118,5.538,0.627,5.292-16.481c-0.113-10.407-0.417-12.495-2.412-16.401
	c-3.223-6.449-4.727-22.694-2.686-30.004"/>
</svg>
