<?xml version="1.0" encoding="utf-8"?>
<!-- Generator: Adobe Illustrator 15.1.0, SVG Export Plug-In  -->
<!DOCTYPE svg PUBLIC "-//W3C//DTD SVG 1.1//EN" "http://www.w3.org/Graphics/SVG/1.1/DTD/svg11.dtd" [
	<!ENTITY ns_flows "http://ns.adobe.com/Flows/1.0/">
]>
<svg version="1.1"
	 xmlns="http://www.w3.org/2000/svg" xmlns:xlink="http://www.w3.org/1999/xlink" xmlns:a="http://ns.adobe.com/AdobeSVGViewerExtensions/3.0/"
	 x="0px" y="0px" width="64px" height="64px" viewBox="0 0 64 64" style="enable-background:new 0 0 64 64;" xml:space="preserve">
<style type="text/css">
<![CDATA[
	.st0{fill:#DD4B39;}
]]>
</style>
<defs>
</defs>
<path class="st0" d="M0.05,54.354c-0.015-0.158-0.028-0.316-0.036-0.477C0.022,54.037,0.035,54.195,0.05,54.354z M14.744,35.322
	c5.751,0.171,9.608-5.794,8.616-13.325c-0.993-7.53-6.462-13.573-12.213-13.745c-5.752-0.171-9.609,5.593-8.616,13.125
	C3.524,28.906,8.991,35.15,14.744,35.322L14.744,35.322z M64,16v-5.332C64,4.801,59.201,0,53.334,0H10.668
	C4.901,0,0.167,4.639,0.008,10.37c3.648-3.212,8.708-5.895,13.93-5.895c5.582,0,22.328,0,22.328,0l-4.997,4.226H24.19
	c4.696,1.8,7.197,7.258,7.197,12.858c0,4.703-2.613,8.747-6.305,11.623c-3.603,2.807-4.286,3.982-4.286,6.367
	c0,2.036,3.859,5.5,5.877,6.924c5.899,4.159,7.808,8.021,7.808,14.467c0,1.026-0.129,2.052-0.379,3.06h19.233
	c5.867,0,10.666-4.797,10.666-10.668V19.999h-12v12h-4v-12h-12v-4h12v-12h4v12L64,16L64,16z M11.618,47.871
	c1.351,0,2.589-0.037,3.871-0.037c-1.697-1.646-3.039-3.663-3.039-6.148c0-1.476,0.473-2.896,1.133-4.158
	c-0.674,0.049-1.362,0.063-2.07,0.063C6.866,37.59,2.919,36.085,0,33.6v4.202V50.41C3.34,48.824,7.306,47.871,11.618,47.871
	L11.618,47.871z M0.214,55.454c-0.07-0.341-0.123-0.688-0.159-1.04C0.091,54.766,0.144,55.113,0.214,55.454z M28.466,59.553
	c-0.941-3.675-4.278-5.498-8.93-8.723c-1.692-0.546-3.556-0.867-5.556-0.889c-5.601-0.06-10.819,2.185-13.764,5.523
	C1.211,60.322,5.531,64,10.668,64h17.903c0.113-0.695,0.169-1.414,0.169-2.152C28.74,61.064,28.644,60.298,28.466,59.553
	L28.466,59.553z"/>
</svg>
