<?xml version="1.0" encoding="utf-8"?>
<!-- Generator: Adobe Illustrator 15.1.0, SVG Export Plug-In . SVG Version: 6.00 Build 0)  -->
<!DOCTYPE svg PUBLIC "-//W3C//DTD SVG 1.1//EN" "http://www.w3.org/Graphics/SVG/1.1/DTD/svg11.dtd">
<svg version="1.1" id="Layer_1" xmlns="http://www.w3.org/2000/svg" xmlns:xlink="http://www.w3.org/1999/xlink" x="0px" y="0px"
	 width="64px" height="64px" viewBox="0 0 64 64" enable-background="new 0 0 64 64" xml:space="preserve">
<path fill="#4C7EBB" d="M31.61,2.563C15.351,2.781,2.346,16.137,2.564,32.397c0.218,16.25,13.574,29.258,29.834,29.041
	c16.252-0.219,29.261-13.574,29.04-29.834C61.225,15.35,47.867,2.345,31.61,2.563L31.61,2.563z M31.523,49.92H31.36
	c-2.502-0.074-4.269-1.92-4.198-4.387c0.07-2.422,1.878-4.186,4.301-4.186l0.147,0.002c2.574,0.077,4.32,1.904,4.244,4.442
	C35.783,48.221,34,49.92,31.523,49.92z M42.055,29.018c-0.593,0.835-1.886,1.875-3.518,3.146l-1.799,1.242
	c-0.985,0.768-1.58,1.488-1.801,2.195c-0.18,0.563-0.263,0.707-0.278,1.842l-0.003,0.291h-6.858l0.019-0.582
	c0.083-2.387,0.144-3.788,1.133-4.949c1.552-1.821,4.976-4.026,5.12-4.118c0.49-0.371,0.902-0.79,1.213-1.238
	c0.72-0.992,1.037-1.776,1.037-2.541c0-1.066-0.317-2.051-0.941-2.928c-0.602-0.848-1.744-1.277-3.395-1.277
	c-1.638,0-2.758,0.522-3.43,1.587c-0.694,1.098-1.04,2.246-1.04,3.424v0.294h-7.072l0.013-0.307c0.182-4.333,1.728-7.45,4.595-9.27
	c1.798-1.162,4.038-1.747,6.65-1.747c3.421,0,6.313,0.832,8.586,2.47c2.304,1.661,3.472,4.15,3.472,7.396
	c0,1.818-0.572,3.522-1.701,5.072L42.055,29.018z"/>
</svg>
