<?xml version="1.0" encoding="utf-8"?>
<!-- Generator: Adobe Illustrator 15.1.0, SVG Export Plug-In  -->
<!DOCTYPE svg PUBLIC "-//W3C//DTD SVG 1.1//EN" "http://www.w3.org/Graphics/SVG/1.1/DTD/svg11.dtd" [
	<!ENTITY ns_flows "http://ns.adobe.com/Flows/1.0/">
]>
<svg version="1.1"
	 xmlns="http://www.w3.org/2000/svg" xmlns:xlink="http://www.w3.org/1999/xlink" xmlns:a="http://ns.adobe.com/AdobeSVGViewerExtensions/3.0/"
	 x="0px" y="0px" width="396px" height="144px" viewBox="0 0 396 144" style="enable-background:new 0 0 396 144;"
	 xml:space="preserve">
<defs>
</defs>
<path style="fill-rule:evenodd;clip-rule:evenodd;fill:#F4B169;" d="M79.819,59.057c3.508-2.789,6.438-7.061,12.72-6.48
	c6.308,0.583,7.57,7.588,4.8,13.2c-3.411,6.907-12.264,12.715-16.8,17.76c-5.088-4.645-14.187-10.5-18-17.281
	c-1.87-3.323-2.64-9.119,0-11.76C67.783,49.252,76.835,55.438,79.819,59.057z"/>
<path style="fill-rule:evenodd;clip-rule:evenodd;fill:#1A2F6C;" d="M106.33,103.44c-7.207,14.578-29.712,19.932-49.92,13.68
	c-14.304-4.426-26.341-13.679-31.68-28.561c-0.917-2.555-1.767-5.355,0-6c2.819-1.026,4.289,4.105,5.28,5.28
	c4.424,5.244,10.911,7.704,19.44,6.96c9.158-0.799,14.269-5.92,19.2-11.04c-5.589-5.903-15.088-11.337-18.72-19.44
	c-2.243-5.005-1.9-12.223,0.96-15.36c4.88-5.352,15.473-3.58,20.64,1.2c5.35-5.211,17.726-6.674,21.84,0.48
	c1.938,3.369,2.051,8.791,0.24,12.72c-3.27,7.094-13.134,14.617-18,20.16c6.604,7.188,19.215,14.768,31.68,8.641
	c6.067-2.982,9.995-11.235,10.08-19.92c0.13-13.209-6.157-24.157-13.68-31.68c-7.468-7.468-18.257-13.44-31.68-13.44
	c-14.115,0-25.526,6.086-32.88,13.44c-7.756,7.756-13.75,16.935-13.92,32.4c-2.943-6.169-1.851-16.636,0.48-22.32
	c4.077-9.944,12.497-17.598,21.6-22.32c9.772-5.069,23.8-6.89,36.96-3.84c11.355,2.632,20.385,8.913,26.88,17.04
	c7.888,9.871,14.935,28.085,8.64,43.44c-3.353,8.178-12.051,14.993-24.48,14.16c-10.16-0.682-17.579-7.17-23.04-12.24
	c-4.579,4.964-11.632,11.592-21.36,12.72c-6.617,0.768-14.008-0.742-18.48-4.319c-0.194-0.046-0.239-0.241-0.48-0.24
	c8.675,11.375,23.717,21.532,44.16,20.4C89.114,114.719,97.602,108.12,106.33,103.44z M54.25,51.6c-2.64,2.64-1.87,8.436,0,11.76
	c3.813,6.781,12.912,12.635,18,17.28c4.536-5.044,13.389-10.852,16.8-17.76c2.771-5.612,1.508-12.617-4.8-13.2
	c-6.282-0.581-9.212,3.691-12.72,6.48C68.546,52.541,59.495,46.355,54.25,51.6z"/>
<path style="fill-rule:evenodd;clip-rule:evenodd;fill:#1A2F6C;" d="M279.371,63.36c3.854-5.721,17.485-10.832,23.76-3.6
	c5.366,6.186,1.797,19.563,2.88,30.24c2.08,0,4.16,0,6.24,0c-0.137,1.784,0.287,4.128-0.24,5.52c-6.16,0-12.32,0-18.48,0
	c0-1.84,0-3.68,0-5.52c1.921,0,3.841,0,5.761,0c-0.905-8.92,3.636-24.716-3.84-27.6c-6.702-2.585-12.581,2.719-16.08,6.24
	c0,7.12,0,14.24,0,21.36c2,0,4,0,6,0c0,1.84,0,3.68,0,5.52c-6.16,0-12.32,0-18.48,0c0-1.84,0-3.68,0-5.52c1.92,0,3.84,0,5.76,0
	c0.561-18,0.08-37.04,0.24-55.44c-2,0-4,0-6,0c0-0.8,0-1.6,0-2.4c3.316-1.564,8.808-2.231,12.24-2.88
	C279.69,40.16,279.21,52.08,279.371,63.36z"/>
<path style="fill-rule:evenodd;clip-rule:evenodd;fill:#1A2F6C;" d="M174.97,90c2.08,0,4.16,0,6.24,0
	c-0.137,1.784,0.288,4.128-0.24,5.52c-6.08,0-12.16,0-18.24,0c0-1.84,0-3.68,0-5.52c1.92,0,3.84,0,5.76,0
	c-0.924-8.713,3.55-24.63-3.6-27.6c-6.723-2.792-12.96,2.917-16.32,6.48c0,7.04,0,14.08,0,21.12c2,0,4,0,6,0c0,1.84,0,3.68,0,5.52
	c-6.08,0-12.16,0-18.24,0c-0.527-1.392-0.104-3.735-0.24-5.52c2,0,4,0,6,0c0.56-8.72,0.08-18.48,0.24-27.6c-2.08,0-4.16,0-6.24,0
	c0-1.84,0-3.68,0-5.52c4.08,0,8.16,0,12.24,0c0,2.24,0,4.48,0,6.72c3.844-5.349,16.809-11.232,23.52-4.32
	C177.637,65.24,173.853,79.158,174.97,90z"/>
<path style="fill-rule:evenodd;clip-rule:evenodd;fill:#1A2F6C;" d="M215.05,89.76c1.626,0.534,4.221,0.1,6.24,0.24
	c0,1.84,0,3.68,0,5.52c-4,0-8,0-12,0c0-1.52,0-3.039,0-4.56c-4.984,5.011-17.973,7.87-23.76,1.2
	c-3.278-3.777-3.259-10.764,0.48-14.641c4.521-4.688,15.427-5.041,23.04-2.399c-0.107-4.409,0.515-7.41-1.2-10.08
	c-2.558-3.982-9.999-4.774-14.64-2.16c2.915,7.257-8.592,8.991-7.68,1.2c1.023-8.749,18.573-10.146,25.2-5.04
	C218.281,64.857,213.837,77.883,215.05,89.76z M189.85,82.08c-1.254,3.134,0.183,6.342,2.16,7.68
	c4.459,3.02,15.759-0.014,17.04-4.319c0.587-1.974-0.437-3.827,0-6.24C202.289,77.453,192.163,76.302,189.85,82.08z"/>
<path style="fill-rule:evenodd;clip-rule:evenodd;fill:#1A2F6C;" d="M234.491,91.92c0,5.28,0,10.561,0,15.84c2.479,0,4.96,0,7.439,0
	c-0.137,1.784,0.288,4.128-0.24,5.521c-6.56,0-13.12,0-19.68,0c0-1.84,0-3.681,0-5.521c2,0,4,0,6,0
	c0.56-14.641,0.08-30.319,0.24-45.36c-2.08,0-4.16,0-6.24,0c0-1.84,0-3.68,0-5.52c4.08,0,8.16,0,12.24,0c0,1.68,0,3.36,0,5.04
	c2.996-2.284,5.787-5.226,10.56-5.76c26.608-2.977,27.212,40.023,1.681,40.08C241.21,96.252,237.884,94.257,234.491,91.92z
	 M246.491,90.72c16.294-0.708,16.984-31.405-2.16-29.04c-3.114,0.384-9.123,3.384-9.84,6c-0.726,2.643,0,6.125,0,9.12
	c0,3.102,0,6.199,0,9.36C237.892,89.159,241.26,90.947,246.491,90.72z"/>
<path style="fill-rule:evenodd;clip-rule:evenodd;fill:#1A2F6C;" d="M368.65,90c2.08,0,4.16,0,6.24,0c0,1.84,0,3.68,0,5.52
	c-4,0-8,0-12,0c0-1.52,0-3.039,0-4.56c-3.394,2.192-7.332,5.192-13.2,5.28c-10.73,0.159-17.352-10.819-10.319-18.48
	c4.847-5.28,15.076-5.125,23.279-2.64c-0.063-4.587,0.507-7.648-1.439-10.32c-2.745-3.768-9.924-4.434-14.641-1.92
	c3.396,6.882-8.421,9.328-7.439,1.2c0.584-4.839,6.933-7.489,11.52-7.92c8.794-0.827,17.021,2.042,18,10.8
	C369.466,74.254,368.072,80.565,368.65,90z M343.21,86.64c0.301,0.985,1.54,2.538,2.399,3.12c4.518,3.059,15.762-0.102,17.04-4.319
	c0.597-1.968-0.443-3.831,0-6.24C355.225,76.527,340.176,76.708,343.21,86.64z"/>
<path style="fill-rule:evenodd;clip-rule:evenodd;fill:#1A2F6C;" d="M327.371,56.88c0,10.96,0,21.92,0,32.88
	c1.782,0.538,4.543,0.097,6.72,0.24c-0.137,1.784,0.287,4.128-0.24,5.52c-6.399,0-12.8,0-19.2,0c0-1.84,0-3.68,0-5.52
	c2.08,0,4.16,0,6.24,0c0.56-8.72,0.08-18.48,0.24-27.6c-2.16,0-4.32,0-6.48,0c0-1.84,0-3.68,0-5.52
	C318.89,56.88,323.13,56.88,327.371,56.88z"/>
<path style="display:none;fill-rule:evenodd;clip-rule:evenodd;fill:#2D2D2D;" d="M234.491,86.16c0-3.161,0-6.259,0-9.36
	c0-2.994-0.726-6.477,0-9.12c0.717-2.616,6.726-5.616,9.84-6c19.145-2.365,18.454,28.332,2.16,29.04
	C241.26,90.947,237.892,89.159,234.491,86.16z"/>
<path style="fill-rule:evenodd;clip-rule:evenodd;fill:#1A2F6C;" d="M98.17,72.48c1.918-0.655,2.597,0.388,2.64,1.68
	C100.975,79.123,93.522,74.066,98.17,72.48z"/>
<path style="display:none;fill-rule:evenodd;clip-rule:evenodd;fill:#2D2D2D;" d="M209.05,79.2c-0.437,2.413,0.587,4.267,0,6.24
	c-1.281,4.306-12.581,7.339-17.04,4.319c-1.977-1.338-3.414-4.546-2.16-7.68C192.163,76.302,202.289,77.453,209.05,79.2z"/>
<path style="display:none;fill-rule:evenodd;clip-rule:evenodd;fill:#2D2D2D;" d="M362.65,79.2c-0.443,2.409,0.597,4.272,0,6.24
	c-1.278,4.218-12.522,7.378-17.04,4.319c-0.859-0.582-2.099-2.135-2.399-3.12C340.176,76.708,355.225,76.527,362.65,79.2z"/>
<path style="fill-rule:evenodd;clip-rule:evenodd;fill:#1A2F6C;" d="M92.89,80.4c0.616,1.216-0.016,2.506-0.72,3.119
	c-0.927,0.048-1.769,0.009-2.4-0.239C87.703,81.276,90.893,78.23,92.89,80.4z"/>
<path style="fill-rule:evenodd;clip-rule:evenodd;fill:#1A2F6C;" d="M102.73,82.32c1.443-0.486,2.713,0.255,2.64,1.92
	C105.162,88.978,98.312,83.809,102.73,82.32z"/>
<path style="display:none;fill-rule:evenodd;clip-rule:evenodd;fill:#2D2D2D;" d="M0.25,0C132.166,0,264.1,0,396.01,0
	c0,48,0,96,0,144c-132,0-264.001,0-396,0c0-47.761,0-95.519,0-143.28C-0.01,0.379-0.029,0.041,0.25,0z M76.09,115.44
	c-20.443,1.132-35.485-9.025-44.16-20.4c0.241-0.001,0.286,0.194,0.48,0.24c4.472,3.577,11.863,5.087,18.48,4.319
	c9.729-1.128,16.782-7.756,21.36-12.72c5.46,5.07,12.879,11.559,23.04,12.24c12.429,0.833,21.127-5.982,24.48-14.16
	c6.295-15.354-0.751-33.569-8.64-43.44c-6.495-8.127-15.525-14.408-26.88-17.04c-13.161-3.05-27.188-1.229-36.96,3.84
	c-9.103,4.723-17.523,12.376-21.6,22.32c-2.331,5.684-3.423,16.15-0.48,22.32c0.17-15.465,6.164-24.644,13.92-32.4
	c7.354-7.354,18.765-13.44,32.88-13.44c13.423,0,24.212,5.972,31.68,13.44c7.523,7.523,13.81,18.471,13.68,31.68
	c-0.085,8.685-4.013,16.938-10.08,19.92c-12.465,6.127-25.076-1.453-31.68-8.641c4.866-5.543,14.73-13.065,18-20.16
	c1.811-3.929,1.697-9.351-0.24-12.72c-4.114-7.154-16.49-5.691-21.84-0.48c-5.167-4.78-15.76-6.552-20.64-1.2
	c-2.86,3.137-3.203,10.354-0.96,15.36c3.632,8.103,13.131,13.537,18.72,19.44c-4.931,5.12-10.042,10.241-19.2,11.04
	c-8.529,0.744-15.016-1.716-19.44-6.96c-0.991-1.175-2.46-6.307-5.28-5.28c-1.767,0.645-0.917,3.445,0,6
	c5.338,14.882,17.375,24.135,31.68,28.561c20.208,6.252,42.713,0.898,49.92-13.68C97.602,108.12,89.114,114.719,76.09,115.44z
	 M279.13,29.28c-3.433,0.649-8.924,1.316-12.24,2.88c0,0.8,0,1.6,0,2.4c2,0,4,0,6,0c-0.16,18.4,0.32,37.44-0.24,55.44
	c-1.92,0-3.84,0-5.76,0c0,1.84,0,3.68,0,5.52c6.16,0,12.32,0,18.48,0c0-1.84,0-3.68,0-5.52c-2,0-4,0-6,0c0-7.12,0-14.24,0-21.36
	c3.499-3.521,9.378-8.826,16.08-6.24c7.476,2.884,2.935,18.68,3.84,27.6c-1.92,0-3.84,0-5.761,0c0,1.84,0,3.68,0,5.52
	c6.16,0,12.32,0,18.48,0c0.527-1.392,0.104-3.735,0.24-5.52c-2.08,0-4.16,0-6.24,0c-1.083-10.677,2.486-24.055-2.88-30.24
	c-6.274-7.231-19.906-2.121-23.76,3.6C279.21,52.08,279.69,40.16,279.13,29.28z M171.85,59.28c-6.711-6.912-19.676-1.028-23.52,4.32
	c0-2.24,0-4.48,0-6.72c-4.08,0-8.16,0-12.24,0c0,1.84,0,3.68,0,5.52c2.08,0,4.16,0,6.24,0c-0.16,9.12,0.32,18.88-0.24,27.6
	c-2,0-4,0-6,0c0.136,1.784-0.288,4.128,0.24,5.52c6.08,0,12.16,0,18.24,0c0-1.84,0-3.68,0-5.52c-2,0-4,0-6,0c0-7.04,0-14.08,0-21.12
	c3.359-3.563,9.597-9.272,16.32-6.48c7.15,2.97,2.676,18.887,3.6,27.6c-1.92,0-3.84,0-5.76,0c0,1.84,0,3.68,0,5.52
	c6.08,0,12.16,0,18.24,0c0.528-1.392,0.104-3.735,0.24-5.52c-2.08,0-4.16,0-6.24,0C173.853,79.158,177.637,65.24,171.85,59.28z
	 M210.73,59.04c-6.627-5.106-24.176-3.709-25.2,5.04c-0.912,7.791,10.595,6.057,7.68-1.2c4.641-2.614,12.082-1.822,14.64,2.16
	c1.715,2.67,1.093,5.671,1.2,10.08c-7.613-2.642-18.519-2.288-23.04,2.399c-3.739,3.877-3.758,10.863-0.48,14.641
	c5.787,6.67,18.776,3.811,23.76-1.2c0,1.521,0,3.04,0,4.56c4,0,8,0,12,0c0-1.84,0-3.68,0-5.52c-2.02-0.141-4.614,0.294-6.24-0.24
	C213.837,77.883,218.281,64.857,210.73,59.04z M246.491,96.24c25.531-0.057,24.928-43.057-1.681-40.08
	c-4.772,0.534-7.563,3.476-10.56,5.76c0-1.68,0-3.36,0-5.04c-4.08,0-8.16,0-12.24,0c0,1.84,0,3.68,0,5.52c2.08,0,4.16,0,6.24,0
	c-0.16,15.041,0.319,30.719-0.24,45.36c-2,0-4,0-6,0c0,1.84,0,3.681,0,5.521c6.56,0,13.12,0,19.68,0
	c0.528-1.393,0.104-3.736,0.24-5.521c-2.479,0-4.96,0-7.439,0c0-5.279,0-10.56,0-15.84C237.884,94.257,241.21,96.252,246.491,96.24z
	 M368.65,66.96c-0.979-8.757-9.206-11.626-18-10.8c-4.587,0.431-10.936,3.081-11.52,7.92c-0.981,8.128,10.836,5.682,7.439-1.2
	c4.717-2.514,11.896-1.848,14.641,1.92c1.946,2.672,1.376,5.733,1.439,10.32c-8.203-2.485-18.433-2.641-23.279,2.64
	c-7.032,7.661-0.411,18.64,10.319,18.48c5.868-0.088,9.807-3.088,13.2-5.28c0,1.521,0,3.04,0,4.56c4,0,8,0,12,0
	c0-1.84,0-3.68,0-5.52c-2.08,0-4.16,0-6.24,0C368.072,80.565,369.466,74.254,368.65,66.96z M314.65,56.88c0,1.84,0,3.68,0,5.52
	c2.16,0,4.32,0,6.48,0c-0.16,9.12,0.319,18.88-0.24,27.6c-2.08,0-4.16,0-6.24,0c0,1.84,0,3.68,0,5.52c6.4,0,12.801,0,19.2,0
	c0.527-1.392,0.104-3.735,0.24-5.52c-2.177-0.144-4.938,0.298-6.72-0.24c0-10.96,0-21.92,0-32.88
	C323.13,56.88,318.89,56.88,314.65,56.88z M100.81,74.16c-0.042-1.292-0.722-2.335-2.64-1.68
	C93.522,74.066,100.975,79.123,100.81,74.16z M89.77,83.28c0.632,0.248,1.473,0.287,2.4,0.239c0.704-0.613,1.335-1.903,0.72-3.119
	C90.893,78.23,87.703,81.276,89.77,83.28z M105.37,84.24c0.074-1.665-1.196-2.406-2.64-1.92
	C98.312,83.809,105.162,88.978,105.37,84.24z"/>
<circle style="fill-rule:evenodd;clip-rule:evenodd;fill:#F4B169;" cx="320.699" cy="40.333" r="6"/>
</svg>
