<?xml version="1.0" encoding="utf-8"?>
<!-- Generator: Adobe Illustrator 15.1.0, SVG Export Plug-In  -->
<!DOCTYPE svg PUBLIC "-//W3C//DTD SVG 1.1//EN" "http://www.w3.org/Graphics/SVG/1.1/DTD/svg11.dtd" [
	<!ENTITY ns_flows "http://ns.adobe.com/Flows/1.0/">
]>
<svg version="1.1"
	 xmlns="http://www.w3.org/2000/svg" xmlns:xlink="http://www.w3.org/1999/xlink" xmlns:a="http://ns.adobe.com/AdobeSVGViewerExtensions/3.0/"
	 x="0px" y="0px" width="64px" height="64px" viewBox="0 0 64 64" style="enable-background:new 0 0 64 64;" xml:space="preserve">
<style type="text/css">
<![CDATA[
	.st0{fill:#00ACED;}
]]>
</style>
<defs>
</defs>
<path class="st0" d="M53.334,0H10.668C4.801,0,0,4.801,0,10.668v42.664C0,59.203,4.801,64,10.668,64h42.666
	C59.201,64,64,59.203,64,53.332V10.668C64,4.801,59.201,0,53.334,0z M52.378,21.365c0.021,0.459,0.031,0.921,0.031,1.384
	c0,14.138-10.576,30.442-29.916,30.442c-5.938,0-11.465-1.772-16.118-4.808c0.822,0.099,1.659,0.15,2.508,0.15
	c4.926,0,9.46-1.711,13.058-4.58c-4.601-0.086-8.484-3.181-9.822-7.431c0.642,0.125,1.301,0.192,1.978,0.192
	c0.959,0,1.888-0.131,2.77-0.376c-4.81-0.982-8.434-5.307-8.434-10.491c0-0.045,0-0.09,0.001-0.134
	c1.418,0.801,3.039,1.282,4.763,1.338c-2.821-1.919-4.678-5.193-4.678-8.905c0-1.961,0.518-3.799,1.424-5.379
	c5.186,6.473,12.934,10.732,21.672,11.179c-0.179-0.783-0.272-1.6-0.272-2.438c0-5.909,4.708-10.699,10.515-10.699
	c3.023,0,5.756,1.299,7.675,3.379c2.395-0.48,4.645-1.37,6.677-2.596c-0.785,2.498-2.452,4.595-4.623,5.919
	c2.127-0.259,4.152-0.834,6.039-1.685C56.216,17.973,54.434,19.858,52.378,21.365L52.378,21.365z"/>
</svg>
